<?xml version="1.0" encoding="utf-8"?>
<!-- Generator: Adobe Illustrator 18.1.1, SVG Export Plug-In . SVG Version: 6.00 Build 0)  -->
<!DOCTYPE svg PUBLIC "-//W3C//DTD SVG 1.1//EN" "http://www.w3.org/Graphics/SVG/1.1/DTD/svg11.dtd">
<svg version="1.1" id="Layer_1" xmlns="http://www.w3.org/2000/svg" xmlns:xlink="http://www.w3.org/1999/xlink" x="0px" y="0px"
	 width="175.8px" height="168.1px" viewBox="0 0 175.8 168.1" enable-background="new 0 0 175.8 168.1" xml:space="preserve">
<g>
	<path d="M107.3,56.4c0,0.8-0.7,1.4-1.4,1.4H64.1c-0.8,0-1.4-0.6-1.4-1.4c0-0.8,0.7-1.4,1.4-1.4h41.8
		C106.6,55,107.3,55.6,107.3,56.4z"/>
	<path d="M107.3,70c0,0.8-0.7,1.4-1.4,1.4H64.1c-0.8,0-1.4-0.6-1.4-1.4c0-0.8,0.7-1.4,1.4-1.4h41.8C106.6,68.6,107.3,69.3,107.3,70z
		"/>
	<path d="M107.3,84.2c0,0.8-0.7,1.4-1.4,1.4H64.1c-0.8,0-1.4-0.7-1.4-1.4c0-0.8,0.7-1.4,1.4-1.4h41.8
		C106.6,82.8,107.3,83.4,107.3,84.2z"/>
	<path d="M121.3,78.1V41.8c0-3.5-2.8-6.3-6.3-6.3H55.8c-3.5,0-6.3,2.8-6.3,6.3V78c-3.6,0.1-6.3,2.8-6.3,6.3V131
		c0,3.5,2.8,6.3,6.3,6.3h71c3.5,0,6.3-2.8,6.3-6.3V84.3C126.8,81.1,124.4,78.5,121.3,78.1z M121.3,81.1c0.3,0.1,0.7,0.2,1,0.4
		l-1,0.6V81.1z M52.5,41.8c0-1.8,1.5-3.3,3.3-3.3H115c1.8,0,3.3,1.5,3.3,3.3V84l-34,20.9L52.5,84.1V41.8z M49.3,81.1
		c0.1,0,0.2,0,0.2,0v1.1L49.3,82l-1.1-0.7C48.5,81.2,48.9,81.1,49.3,81.1z M123.8,131c0,1.8-1.5,3.3-3.3,3.3h-71
		c-0.7,0-1.4-0.2-1.9-0.6c-0.3-0.2-0.6-0.5-0.8-0.8c-0.4-0.5-0.6-1.2-0.6-1.9V84.3c0-0.3,0-0.6,0.1-0.8l0.5,0.3l2.5,1.7l0.2,0.2
		l1.5,1l1.5,1L79.1,105l4.4,2.9l0.8,0.5l0.8-0.5l4.7-2.9l28.6-17.6l1.5-0.9l1.5-0.9l1.4-0.8l1.1-0.7c0,0.1,0,0.2,0,0.3V131z"/>
</g>
</svg>
