<?xml version="1.0" encoding="utf-8"?>
<!-- Generator: Adobe Illustrator 18.1.1, SVG Export Plug-In . SVG Version: 6.00 Build 0)  -->
<!DOCTYPE svg PUBLIC "-//W3C//DTD SVG 1.1//EN" "http://www.w3.org/Graphics/SVG/1.1/DTD/svg11.dtd">
<svg version="1.1" id="Layer_1" xmlns="http://www.w3.org/2000/svg" xmlns:xlink="http://www.w3.org/1999/xlink" x="0px" y="0px"
	 width="175.8px" height="168.1px" viewBox="0 0 175.8 168.1" enable-background="new 0 0 175.8 168.1" xml:space="preserve">
<path d="M68.9,57.9h41.8c0.8,0,1.4-0.6,1.4-1.4c0-0.8-0.7-1.4-1.4-1.4H68.9c-0.8,0-1.4,0.7-1.4,1.4C67.4,57.3,68.1,57.9,68.9,57.9z
	 M110.7,68.7H68.9c-0.8,0-1.4,0.6-1.4,1.4c0,0.8,0.7,1.4,1.4,1.4h41.8c0.8,0,1.4-0.6,1.4-1.4C112.1,69.3,111.4,68.7,110.7,68.7z
	 M110.7,82.9H68.9c-0.8,0-1.4,0.6-1.4,1.5c0,0.8,0.7,1.4,1.4,1.4h41.8c0.8,0,1.4-0.7,1.4-1.4C112.1,83.5,111.4,82.9,110.7,82.9z
	 M110.7,97.1H68.9c-0.8,0-1.4,0.6-1.4,1.4c0,0.8,0.7,1.4,1.4,1.4h41.8c0.8,0,1.4-0.6,1.4-1.4C112.1,97.7,111.4,97.1,110.7,97.1z
	 M110.7,97.1H68.9c-0.8,0-1.4,0.6-1.4,1.4c0,0.8,0.7,1.4,1.4,1.4h41.8c0.8,0,1.4-0.6,1.4-1.4C112.1,97.7,111.4,97.1,110.7,97.1z
	 M110.7,82.9H68.9c-0.8,0-1.4,0.6-1.4,1.5c0,0.8,0.7,1.4,1.4,1.4h41.8c0.8,0,1.4-0.7,1.4-1.4C112.1,83.5,111.4,82.9,110.7,82.9z
	 M110.7,68.7H68.9c-0.8,0-1.4,0.6-1.4,1.4c0,0.8,0.7,1.4,1.4,1.4h41.8c0.8,0,1.4-0.6,1.4-1.4C112.1,69.3,111.4,68.7,110.7,68.7z
	 M110.7,55H68.9c-0.8,0-1.4,0.7-1.4,1.4c0,0.8,0.7,1.4,1.4,1.4h41.8c0.8,0,1.4-0.6,1.4-1.4C112.1,55.7,111.4,55,110.7,55z
	 M119.4,26.6h-46L53.9,46v66.2c0,3.5,2.8,6.3,6.3,6.3h59.2c3.5,0,6.3-2.8,6.3-6.3V32.9C125.7,29.4,122.8,26.6,119.4,26.6z
	 M72.8,31.5V41c0,2.3-1.9,4.2-4.2,4.2h-9.4L72.8,31.5z M122.7,112.2c0,1.8-1.5,3.3-3.3,3.3H60.2c-1.8,0-3.3-1.5-3.3-3.3V48.1h11.7
	c3.9,0,7.1-3.2,7.1-7.1V29.6h43.7c1.8,0,3.3,1.5,3.3,3.3V112.2z M110.7,55H68.9c-0.8,0-1.4,0.7-1.4,1.4c0,0.8,0.7,1.4,1.4,1.4h41.8
	c0.8,0,1.4-0.6,1.4-1.4C112.1,55.7,111.4,55,110.7,55z M110.7,68.7H68.9c-0.8,0-1.4,0.6-1.4,1.4c0,0.8,0.7,1.4,1.4,1.4h41.8
	c0.8,0,1.4-0.6,1.4-1.4C112.1,69.3,111.4,68.7,110.7,68.7z M110.7,82.9H68.9c-0.8,0-1.4,0.6-1.4,1.5c0,0.8,0.7,1.4,1.4,1.4h41.8
	c0.8,0,1.4-0.7,1.4-1.4C112.1,83.5,111.4,82.9,110.7,82.9z M110.7,97.1H68.9c-0.8,0-1.4,0.6-1.4,1.4c0,0.8,0.7,1.4,1.4,1.4h41.8
	c0.8,0,1.4-0.6,1.4-1.4C112.1,97.7,111.4,97.1,110.7,97.1z M68.9,57.9h41.8c0.8,0,1.4-0.6,1.4-1.4c0-0.8-0.7-1.4-1.4-1.4H68.9
	c-0.8,0-1.4,0.7-1.4,1.4C67.4,57.3,68.1,57.9,68.9,57.9z M110.7,68.7H68.9c-0.8,0-1.4,0.6-1.4,1.4c0,0.8,0.7,1.4,1.4,1.4h41.8
	c0.8,0,1.4-0.6,1.4-1.4C112.1,69.3,111.4,68.7,110.7,68.7z M110.7,82.9H68.9c-0.8,0-1.4,0.6-1.4,1.5c0,0.8,0.7,1.4,1.4,1.4h41.8
	c0.8,0,1.4-0.7,1.4-1.4C112.1,83.5,111.4,82.9,110.7,82.9z M110.7,97.1H68.9c-0.8,0-1.4,0.6-1.4,1.4c0,0.8,0.7,1.4,1.4,1.4h41.8
	c0.8,0,1.4-0.6,1.4-1.4C112.1,97.7,111.4,97.1,110.7,97.1z M110.7,55H68.9c-0.8,0-1.4,0.7-1.4,1.4c0,0.8,0.7,1.4,1.4,1.4h41.8
	c0.8,0,1.4-0.6,1.4-1.4C112.1,55.7,111.4,55,110.7,55z M110.7,68.7H68.9c-0.8,0-1.4,0.6-1.4,1.4c0,0.8,0.7,1.4,1.4,1.4h41.8
	c0.8,0,1.4-0.6,1.4-1.4C112.1,69.3,111.4,68.7,110.7,68.7z M110.7,82.9H68.9c-0.8,0-1.4,0.6-1.4,1.5c0,0.8,0.7,1.4,1.4,1.4h41.8
	c0.8,0,1.4-0.7,1.4-1.4C112.1,83.5,111.4,82.9,110.7,82.9z M110.7,97.1H68.9c-0.8,0-1.4,0.6-1.4,1.4c0,0.8,0.7,1.4,1.4,1.4h41.8
	c0.8,0,1.4-0.6,1.4-1.4C112.1,97.7,111.4,97.1,110.7,97.1z"/>
</svg>
