<?xml version="1.0" encoding="utf-8"?>
<!-- Generator: Adobe Illustrator 18.1.1, SVG Export Plug-In . SVG Version: 6.00 Build 0)  -->
<!DOCTYPE svg PUBLIC "-//W3C//DTD SVG 1.1//EN" "http://www.w3.org/Graphics/SVG/1.1/DTD/svg11.dtd">
<svg version="1.1" id="Layer_1" xmlns="http://www.w3.org/2000/svg" xmlns:xlink="http://www.w3.org/1999/xlink" x="0px" y="0px"
	 width="175.8px" height="168.1px" viewBox="0 0 175.8 168.1" enable-background="new 0 0 175.8 168.1" xml:space="preserve">
<path d="M141.2,78.1c0-24.1-19.6-43.8-43.8-43.8S53.7,54,53.7,78.1s19.6,43.8,43.8,43.8S141.2,102.3,141.2,78.1z M138.2,78.1
	c0,22.5-18.3,40.8-40.8,40.8s-40.8-18.3-40.8-40.8S75,37.4,97.5,37.4S138.2,55.7,138.2,78.1z M93.2,103.9c-0.9,0.8-2.1,1.7-3.6,2.6
	c-0.7,0.4-1.1,1.3-0.8,2.1c0.4,1,1.5,1.4,2.4,0.9c1.8-1.1,3.3-2.2,4.4-3.2c0.1-0.1,0.3,0,0.3,0.2l0,12.3c0,0.9,0.7,1.7,1.7,1.7h0
	c0.9,0,1.7-0.7,1.7-1.7l0-12.2c0-0.2,0.2-0.3,0.3-0.2c1.2,1.1,2.8,2.3,4.9,3.4c0.2,0.1,0.5,0.2,0.8,0.2c0.6,0,1.3-0.4,1.5-1
	c0.3-0.8-0.1-1.8-0.9-2.2c-1.7-0.9-3-1.9-4-2.7c-1.8-1.6-2.8-3.9-2.8-6.3c1.2,1.2,2.9,2.5,5.3,3.7c0.2,0.1,0.5,0.2,0.8,0.2
	c0.6,0,1.3-0.4,1.5-1c0.3-0.8-0.1-1.8-0.9-2.2c-1.4-0.7-2.5-1.5-3.4-2.2c-2.1-1.7-3.3-4.4-3.3-7.1v0c1.3,1.4,3,2.9,5.3,4.4
	c0.7,0.4,1.6,0.4,2.1-0.2c0.8-0.8,0.6-2-0.3-2.6c-2.2-1.4-3.7-2.8-4.8-4c-1.5-1.7-2.3-3.9-2.3-6.2v-0.1c1.3,1.5,3,3.2,5.4,4.7
	c0.3,0.2,0.6,0.3,0.9,0.3c0.6,0,1.2-0.3,1.5-1c0.4-0.8,0-1.7-0.7-2.2c-3.3-2.1-5.2-4.6-6.1-6.3c-0.6-1-0.9-2.2-0.9-3.4l0-0.1
	c0.8,1.3,1.8,2.4,3,3.3c0.7,0.5,1.6,0.5,2.2-0.1c0.8-0.8,0.6-2-0.2-2.6c-3.1-2.1-4.6-8.1-4.9-10.2c-0.1-0.9-0.9-1.5-1.8-1.4
	c-0.9,0.1-1.4,0.9-1.5,1.7c-0.3,6.8-4.9,9.7-5.1,9.9c-0.8,0.5-1,1.5-0.6,2.3c0.3,0.5,0.9,0.8,1.4,0.8c0.3,0,0.6-0.1,0.9-0.2
	c0.1-0.1,1.8-1.1,3.4-3.2c0,1.2-0.3,2.3-0.9,3.3c-1,1.7-2.8,4.2-5.8,6c-0.7,0.4-1.1,1.3-0.9,2.1c0.4,1,1.5,1.4,2.4,0.9
	c2.2-1.3,3.9-2.8,5.2-4.3c0,2.2-0.8,4.4-2.2,6.1c-1.1,1.3-2.7,2.8-4.9,4c-0.8,0.4-1.2,1.4-0.8,2.2c0.3,0.6,0.9,1,1.5,1
	c0.3,0,0.6-0.1,0.8-0.2c2.4-1.4,4.2-3,5.6-4.5c0,2.6-1.1,5.1-3.1,6.9c-0.9,0.8-1.9,1.6-3.2,2.3c-0.7,0.4-1.1,1.3-0.8,2.1
	c0.4,1,1.5,1.4,2.4,0.9c2-1.2,3.6-2.4,4.8-3.6v0.1C95.9,100,94.9,102.3,93.2,103.9z M73.6,97.9c-0.8,0.7-1.8,1.5-3.1,2.3
	c-0.8,0.5-1.1,1.6-0.6,2.4c0.3,0.5,0.8,0.7,1.4,0.7c0.3,0,0.6-0.1,0.9-0.3c1.5-0.9,2.7-1.9,3.6-2.7c0.1-0.1,0.3,0,0.3,0.1l0,13.4
	c0,0.9,0.7,1.7,1.7,1.7h0c0.9,0,1.7-0.7,1.7-1.7l0-13.3c0-0.1,0.2-0.2,0.3-0.1c1,0.8,2.1,1.7,3.7,2.6c0.7,0.4,1.6,0.3,2.1-0.2
	c0.8-0.8,0.5-2.1-0.4-2.6c-1.2-0.7-2.2-1.4-3-2.1c-1.7-1.5-2.7-3.6-2.7-5.8l0-0.2c1,1.1,2.3,2.3,3.9,3.4c0.6,0.4,1.5,0.4,2.1-0.1
	c0.8-0.8,0.7-2-0.2-2.6c-2-1.4-3.5-2.9-4.4-4.1c-1-1.2-1.5-2.7-1.5-4.2c0.9,1.2,1.9,2.3,3.2,3.1c0.7,0.4,1.6,0.4,2.2-0.1
	c0.8-0.8,0.6-2-0.3-2.6c-2.5-1.6-4.6-5.9-5.2-7.4c-0.3-0.7-0.9-1.1-1.6-1.1c-0.7,0-1.3,0.5-1.5,1.1c-1.8,5.2-5,7.4-5.1,7.5
	c-0.8,0.5-1,1.5-0.5,2.3c0.3,0.5,0.9,0.8,1.4,0.8c0.3,0,0.6-0.1,0.9-0.3c0.1-0.1,1.6-1,3.2-3.1v0c0,1.5-0.5,2.9-1.4,4.1
	c-0.9,1.3-2.3,2.8-4.3,4c-0.7,0.5-1.1,1.4-0.8,2.2c0.3,0.6,0.9,1,1.5,1c0.3,0,0.6-0.1,0.9-0.2c1.7-1,3-2.2,4.1-3.4
	C76.1,94.4,75.2,96.5,73.6,97.9z M114.7,91.5c-1,1.3-2.4,2.8-4.4,4c-0.7,0.5-1.1,1.4-0.8,2.2c0.3,0.6,0.9,1,1.5,1
	c0.3,0,0.6-0.1,0.9-0.2c1.9-1.1,3.3-2.5,4.4-3.7c0,2.5-1.1,5-3,6.6c-0.8,0.7-1.7,1.4-2.8,2.1c-0.7,0.5-1.1,1.4-0.8,2.2
	c0.3,0.6,0.9,1,1.5,1c0.3,0,0.6-0.1,0.9-0.3c1.6-1,2.9-2,3.9-2.9c0.1-0.1,0.3,0,0.3,0.1l0,10.3c0,0.9,0.7,1.7,1.7,1.7h0
	c0.9,0,1.7-0.7,1.7-1.7l0-10.3c0-0.2,0.2-0.3,0.3-0.1c1,0.9,2.3,2,3.9,2.9c0.7,0.4,1.6,0.3,2.1-0.3c0.8-0.8,0.5-2.1-0.4-2.6
	c-1.1-0.6-2-1.3-2.7-1.9c-2.1-1.7-3.3-4.2-3.3-6.8v-0.2c1.1,1.2,2.5,2.5,4.3,3.8c0.6,0.4,1.6,0.4,2.1-0.1c0.8-0.8,0.7-2-0.2-2.6
	c-2-1.4-3.5-2.9-4.5-4.1c-1.1-1.4-1.7-3.2-1.7-5c1,1.3,2.1,2.6,3.5,3.5c0.7,0.4,1.6,0.4,2.1-0.1c0.8-0.8,0.6-2-0.3-2.6
	c-2.7-1.7-4.9-6.3-5.5-7.9c-0.3-0.7-0.9-1-1.6-1.1c-0.7,0-1.3,0.5-1.5,1.1c-1.9,5.5-5.4,7.9-5.4,7.9c-0.8,0.5-1,1.5-0.5,2.3
	c0.3,0.5,0.9,0.8,1.4,0.8c0.3,0,0.6-0.1,0.9-0.3c0.1-0.1,1.7-1.2,3.5-3.5v0C116.3,88.4,115.8,90.2,114.7,91.5z"/>
</svg>
