<?xml version="1.0" encoding="utf-8"?>
<!-- Generator: Adobe Illustrator 18.1.1, SVG Export Plug-In . SVG Version: 6.00 Build 0)  -->
<!DOCTYPE svg PUBLIC "-//W3C//DTD SVG 1.1//EN" "http://www.w3.org/Graphics/SVG/1.1/DTD/svg11.dtd">
<svg version="1.1" id="Layer_1" xmlns="http://www.w3.org/2000/svg" xmlns:xlink="http://www.w3.org/1999/xlink" x="0px" y="0px"
	 width="200px" height="200px" viewBox="0 0 200 200" enable-background="new 0 0 200 200" xml:space="preserve">
<g>
	<path fill="#231F20" d="M131.1,113H68.9c-1.7,0-3-1.3-3-3s1.3-3,3-3h62.2c1.7,0,3,1.3,3,3S132.7,113,131.1,113z"/>
</g>
<g>
	<path fill="#231F20" d="M131.1,133.4H68.9c-1.7,0-3-1.3-3-3s1.3-3,3-3h62.2c1.7,0,3,1.3,3,3S132.7,133.4,131.1,133.4z"/>
</g>
<g>
	<path fill="#231F20" d="M131.1,154.5H68.9c-1.7,0-3-1.3-3-3s1.3-3,3-3h62.2c1.7,0,3,1.3,3,3S132.7,154.5,131.1,154.5z"/>
</g>
<path fill="#231F20" d="M99.9,24.2c-43.4,0-78.6,35.3-78.6,78.6c0,22.4,9.5,42.7,24.6,57c1.9,1.8,3.9,3.5,6,5.2
	c13.3,10.3,30,16.5,48.1,16.5c18.2,0,35-6.2,48.3-16.7c2.1-1.6,4.1-3.4,6-5.2c15-14.3,24.3-34.5,24.3-56.8
	C178.6,59.5,143.4,24.2,99.9,24.2z M148.2,158.3c-12.9,11.3-29.8,18.2-48.3,18.2c-18.4,0-35.2-6.8-48.1-17.9V97.4h16.3
	c6.3,0,11.4-5.1,11.4-11.4V69.8h64.5c2.3,0,4.2,1.9,4.2,4.2V158.3z M56.1,91.4l17.5-17.5v7V86c0,3-2.4,5.4-5.4,5.4H56.1z
	 M154.1,152.5V73.9c0.1-5.6-4.4-10.1-10-10.1H76.5c-0.1,0-0.2,0-0.2,0c-0.7,0.1-1.4,0.4-1.8,0.9L46.7,92.2c-0.6,0.6-0.9,1.3-0.9,2.1
	v58.5c-12.1-13.1-19.6-30.7-19.6-49.9c0-40.6,33-73.6,73.6-73.6c40.6,0,73.6,33,73.6,73.6C173.4,122,166.1,139.5,154.1,152.5z"/>
</svg>
