<?xml version="1.0" encoding="utf-8"?>
<!-- Generator: Adobe Illustrator 18.1.1, SVG Export Plug-In . SVG Version: 6.00 Build 0)  -->
<!DOCTYPE svg PUBLIC "-//W3C//DTD SVG 1.1//EN" "http://www.w3.org/Graphics/SVG/1.1/DTD/svg11.dtd">
<svg version="1.1" id="Layer_1" xmlns="http://www.w3.org/2000/svg" xmlns:xlink="http://www.w3.org/1999/xlink" x="0px" y="0px"
	 width="200px" height="200px" viewBox="0 0 200 200" enable-background="new 0 0 200 200" xml:space="preserve">
<g>
	<path fill="#FFFFFF" stroke="#231F20" stroke-width="2.5847" stroke-miterlimit="10" d="M423.5,584H395c-1.3,0-2.3-1-2.3-2.3V550
		l8.9-8.9h21.9c1.3,0,2.3,1,2.3,2.3v38.3C425.8,582.9,424.7,584,423.5,584z"/>
	
		<line fill="none" stroke="#231F20" stroke-width="2.5847" stroke-linecap="round" stroke-miterlimit="10" x1="399.1" y1="554.8" x2="419.3" y2="554.8"/>
	
		<line fill="none" stroke="#231F20" stroke-width="2.5847" stroke-linecap="round" stroke-miterlimit="10" x1="399.1" y1="561.3" x2="419.3" y2="561.3"/>
	
		<line fill="none" stroke="#231F20" stroke-width="2.5847" stroke-linecap="round" stroke-miterlimit="10" x1="399.1" y1="568.2" x2="419.3" y2="568.2"/>
	
		<line fill="none" stroke="#231F20" stroke-width="2.5847" stroke-linecap="round" stroke-miterlimit="10" x1="399.1" y1="575" x2="419.3" y2="575"/>
	<path fill="none" stroke="#231F20" stroke-width="2.5847" stroke-linejoin="bevel" stroke-miterlimit="10" d="M399,550h-6.2
		l8.9-8.9v6.2C401.7,548.8,400.5,550,399,550z"/>
</g>
<path fill="#231F20" d="M100,21.4c-43.4,0-78.6,35.3-78.6,78.6s35.3,78.6,78.6,78.6s78.6-35.3,78.6-78.6S143.4,21.4,100,21.4z
	 M76.7,114.7c-3.5,2-6.3,3.8-8.1,4.9c-1.4-1.9-3.9-5.6-5.7-11c-2.5-7.2-4.4-18.9-0.5-34.9c1.3,0.6,3.1,1.4,5.6,2.1
	c1.2,0.4,2.5,0.7,3.9,1C70.8,79.6,65.2,96.2,76.7,114.7z M74.7,88.7c0.3-6.2,2-10.3,2-10.4c0.1-0.2,0.1-0.4,0.2-0.6
	c7.6,1.2,17,1.8,28.2,1.8c7.5,0,15.8-0.3,24.8-0.8v20.7c-2.2-0.6-5.5-1.2-9.5-1.2c-7.9,0-16.1,2.1-24.7,6.3c0,0-0.1,0-0.1,0.1
	c-0.3,0.1-0.6,0.3-0.9,0.4c-4.7,2.3-9.4,4.9-13.6,7.3C76.4,104.8,74.3,96.9,74.7,88.7z M110,74.4v-4.6h10v4.4
	C116.5,74.3,113.2,74.3,110,74.4z M120.3,103.1c1,0,1.9,0,2.7,0.1c-4.7,7.5-5.9,26.5-3.6,56.6H109c2-14.8,5-45.7-3.4-54.1
	C110.6,104,115.5,103.1,120.3,103.1z M127.4,168.3v-6c0-1.4-1.1-2.5-2.5-2.5h-0.4c-3.6-45.5,1.9-53.7,3.7-55.1
	c0.4-0.3,0.6-0.3,0.7-0.3c0.5,0.2,1,0.3,1.5,0.2c0.6,0.2,0.9,0.4,0.9,0.4c0.8,0.4,1.7,0.4,2.4-0.1s1.2-1.3,1.2-2.1V75.9
	c0-0.7-0.3-1.4-0.8-1.8c-0.5-0.5-1.2-0.7-1.9-0.7c-2.4,0.2-4.8,0.3-7.2,0.4v-6.6c0-1.4-1.1-2.5-2.5-2.5h-15c-1.4,0-2.5,1.1-2.5,2.5
	v7.2c-33.8,0-41.5-5.8-42.2-6.4c-0.5-0.8-1.4-1.1-2.3-0.9c-1,0.2-1.7,0.9-1.9,1.9c-10.6,36.7,7.1,54.8,7.9,55.5
	c0.5,0.5,1.1,0.7,1.8,0.7c0.5,0,0.9-0.1,1.3-0.4c0.1-0.1,14.3-9.1,28.1-15.9c2.5-1.1,3.6-0.4,3.9-0.1c1.7,1.2,5.5,6.6,4.3,30.3
	c-0.4,8-1.3,15.7-2,20.7h-1.1c-1.4,0-2.5,1.1-2.5,2.5v11.3c-0.1,0-0.2,0-0.3,0c-40.6,0-73.6-33-73.6-73.6s33-73.6,73.6-73.6
	s73.6,33,73.6,73.6C173.6,130.9,154.4,157.5,127.4,168.3z"/>
</svg>
