<?xml version="1.0" encoding="utf-8"?>
<!-- Generator: Adobe Illustrator 18.1.1, SVG Export Plug-In . SVG Version: 6.00 Build 0)  -->
<!DOCTYPE svg PUBLIC "-//W3C//DTD SVG 1.1//EN" "http://www.w3.org/Graphics/SVG/1.1/DTD/svg11.dtd">
<svg version="1.1" id="Layer_1" xmlns="http://www.w3.org/2000/svg" xmlns:xlink="http://www.w3.org/1999/xlink" x="0px" y="0px"
	 width="200px" height="200px" viewBox="0 0 200 200" enable-background="new 0 0 200 200" xml:space="preserve">
<path d="M100,21.4c-43.4,0-78.6,35.3-78.6,78.6s35.3,78.6,78.6,78.6s78.6-35.3,78.6-78.6S143.4,21.4,100,21.4z M140,161.8v-16
	c0-0.3,0.4-0.5,0.6-0.3c1.8,1.7,4.1,3.5,7.1,5.3c1.2,0.7,2.9,0.6,3.8-0.5c1.4-1.5,1-3.7-0.7-4.7c-1.9-1.1-3.6-2.3-4.9-3.3
	c-3.7-3-5.9-7.5-5.9-12.3v-0.4c2,2.2,4.5,4.5,7.8,6.8c1.2,0.8,2.8,0.8,3.8-0.2c1.5-1.4,1.2-3.6-0.3-4.7c-3.7-2.5-6.3-5.2-8.1-7.4
	c-2.1-2.5-3.1-5.8-3.1-9c1.8,2.4,3.9,4.7,6.3,6.3c1.2,0.8,2.8,0.8,3.9-0.2c1.4-1.4,1.1-3.7-0.5-4.7c-4.8-3.1-8.8-11.3-9.9-14.2
	c-0.5-1.2-1.5-1.8-2.9-1.9c-1.3,0-2.4,0.8-2.8,2c-3.5,10-9.7,14.2-9.8,14.3c-1.4,0.9-1.8,2.8-0.9,4.1c0.6,0.9,1.5,1.4,2.5,1.4
	c0.6,0,1.1-0.2,1.6-0.5c0.2-0.1,3.1-2.1,6.4-6.3v0.1c0,3.1-1,6.2-2.9,8.7c-1.8,2.3-4.4,5-8,7.3c-1.3,0.8-2.1,2.5-1.4,3.9
	c0.5,1.1,1.6,1.8,2.7,1.8c0.5,0,1.1-0.1,1.6-0.4c3.3-2,5.9-4.4,8-6.7c0,4.6-2,9-5.5,11.9c-1.4,1.2-3.1,2.4-5.1,3.7
	c-1.3,0.8-2,2.5-1.4,3.9c0.5,1.1,1.6,1.8,2.7,1.8c0.5,0,1.1-0.1,1.6-0.5c2.9-1.8,5.2-3.6,7.1-5.3c0.2-0.2,0.6,0,0.6,0.3l0,18.5
	c0,0.3,0.1,0.6,0.1,0.9c-9.3,4.9-19.9,7.9-31,8.3c0-0.2,0.1-0.4,0.1-0.6l0-22c0-0.3,0.4-0.5,0.6-0.3c2.2,2,5.1,4.1,8.9,6.2
	c0.4,0.2,0.9,0.4,1.4,0.4c1.2,0,2.3-0.7,2.8-1.9c0.6-1.5-0.2-3.2-1.6-3.9c-3.1-1.7-5.4-3.4-7.1-4.9c-3.2-2.9-5-7.1-5-11.4
	c2.2,2.2,5.3,4.5,9.5,6.7c0.4,0.2,0.9,0.4,1.4,0.4c1.2,0,2.3-0.7,2.8-1.9c0.6-1.5-0.2-3.2-1.6-3.9c-2.5-1.3-4.5-2.7-6.1-4
	c-3.8-3.1-6-7.9-6-12.8v0c2.3,2.5,5.4,5.2,9.5,7.9c1.2,0.8,2.8,0.7,3.8-0.3c1.4-1.4,1.1-3.7-0.5-4.7c-3.9-2.5-6.7-5-8.7-7.2
	c-2.8-3.1-4.2-7.1-4.2-11.2v-0.1c2.3,2.8,5.4,5.8,9.7,8.5c0.5,0.3,1.1,0.5,1.6,0.5c1.1,0,2.2-0.6,2.7-1.8c0.7-1.4,0-3.1-1.3-3.9
	c-5.9-3.8-9.3-8.3-11.1-11.4c-1.1-1.8-1.6-3.9-1.6-6.1l0-0.2c1.5,2.3,3.2,4.4,5.4,5.9c1.2,0.8,2.9,0.8,3.9-0.2
	c1.4-1.4,1.2-3.6-0.4-4.7c-5.6-3.8-8.4-14.6-8.9-18.4c-0.2-1.6-1.7-2.7-3.3-2.5c-1.5,0.2-2.6,1.6-2.7,3.1
	c-0.5,12.3-8.8,17.5-9.2,17.8c-1.4,0.9-1.9,2.7-1,4.1c0.6,0.9,1.6,1.5,2.6,1.5c0.5,0,1.1-0.1,1.5-0.4c0.2-0.1,3.2-2,6.1-5.8
	c0,2.1-0.5,4.1-1.5,6c-1.7,3.1-5,7.5-10.5,10.8c-1.3,0.8-2.1,2.3-1.5,3.8c0.7,1.8,2.7,2.5,4.3,1.6c4-2.3,7-5.1,9.3-7.8
	c0,4-1.4,7.9-4,11c-2,2.3-4.9,5-8.8,7.3c-1.4,0.8-2.1,2.5-1.5,3.9c0.5,1.2,1.6,1.8,2.8,1.8c0.5,0,1-0.1,1.5-0.4
	c4.3-2.5,7.6-5.4,10-8.1c0,4.7-2,9.3-5.5,12.4c-1.5,1.4-3.5,2.8-5.9,4.2c-1.3,0.8-2,2.3-1.5,3.7c0.7,1.8,2.7,2.5,4.3,1.6
	c3.7-2.1,6.5-4.4,8.6-6.5v0.1c0,4.3-1.8,8.4-4.9,11.3c-1.6,1.5-3.7,3.1-6.4,4.7c-1.3,0.8-2.1,2.3-1.5,3.8c0.7,1.8,2.7,2.5,4.3,1.6
	c3.3-1.9,5.9-3.9,7.9-5.8c0.2-0.2,0.6-0.1,0.6,0.3l0,22.1c0,0.2,0,0.4,0.1,0.6c-10.8-0.4-21-3.1-30.1-7.7c0.3-0.4,0.4-0.9,0.4-1.5
	l0-24c0-0.2,0.3-0.4,0.5-0.2c1.7,1.5,3.9,3.1,6.6,4.7c1.2,0.7,2.8,0.6,3.8-0.4c1.4-1.5,1-3.7-0.6-4.7c-2.2-1.3-4-2.6-5.4-3.8
	c-3.1-2.6-4.8-6.5-4.8-10.5V125c1.8,2,4.1,4.1,7.1,6.1c1.2,0.8,2.8,0.8,3.8-0.2c1.5-1.4,1.2-3.6-0.3-4.7c-3.7-2.5-6.2-5.2-7.9-7.3
	c-1.7-2.2-2.6-4.9-2.6-7.6c1.6,2.2,3.5,4.2,5.7,5.7c1.2,0.8,2.9,0.8,3.9-0.2c1.4-1.4,1.1-3.7-0.5-4.7c-4.5-2.9-8.3-10.6-9.3-13.4
	c-0.5-1.2-1.7-2-2.9-1.9c-1.3,0-2.4,0.8-2.8,2c-3.3,9.4-9.1,13.4-9.2,13.5c-1.4,0.9-1.8,2.8-0.9,4.1c0.6,0.9,1.5,1.4,2.5,1.4
	c0.6,0,1.1-0.2,1.6-0.5c0.2-0.1,2.8-1.9,5.8-5.7v0c0,2.7-0.9,5.2-2.4,7.4c-1.7,2.3-4.2,5-7.8,7.2c-1.3,0.8-2,2.5-1.4,3.9
	c0.5,1.1,1.6,1.8,2.8,1.8c0.5,0,1.1-0.1,1.6-0.4c3-1.9,5.4-4,7.3-6.1c0,3.9-1.6,7.7-4.5,10.3c-1.4,1.3-3.2,2.7-5.5,4.1
	c-1.5,0.9-2,2.9-1,4.4c0.6,0.8,1.5,1.3,2.5,1.3c0.5,0,1.1-0.1,1.6-0.5c2.7-1.7,4.8-3.3,6.6-4.9c0.2-0.2,0.5,0,0.5,0.2l0,22.5
	c-21.1-13-35.1-36.2-35.1-62.7c0-40.6,33-73.6,73.6-73.6s73.6,33,73.6,73.6C173.6,125.9,160.2,148.7,140,161.8z"/>
</svg>
