<?xml version="1.0" encoding="utf-8"?>
<!-- Generator: Adobe Illustrator 18.1.1, SVG Export Plug-In . SVG Version: 6.00 Build 0)  -->
<!DOCTYPE svg PUBLIC "-//W3C//DTD SVG 1.1//EN" "http://www.w3.org/Graphics/SVG/1.1/DTD/svg11.dtd">
<svg version="1.1" id="Layer_1" xmlns="http://www.w3.org/2000/svg" xmlns:xlink="http://www.w3.org/1999/xlink" x="0px" y="0px"
	 width="200px" height="200px" viewBox="-567 284.4 200 200" enable-background="new -567 284.4 200 200" xml:space="preserve">
<g id="lqx6j9.tif" display="none">
	
		<image display="inline" overflow="visible" enable-background="new    " width="401" height="301" id="Layer_0_1_" xlink:href="FB9B5A07284BD595.png"  transform="matrix(0.9972 0 0 0.9972 -71.1902 238.6203)">
	</image>
</g>
<g>
	<g>
		<path d="M-412.9,372.6L-412.9,372.6L-412.9,372.6L-412.9,372.6z"/>
	</g>
</g>
<g>
	<path d="M-465,478.2c-50.7,0-92-41.3-92-92s41.3-92,92-92c50.7,0,92,41.3,92,92S-414.3,478.2-465,478.2z M-465,300.1
		c-47.5,0-86.1,38.6-86.1,86.1c0,47.5,38.6,86.1,86.1,86.1s86.1-38.6,86.1-86.1C-378.9,338.7-417.5,300.1-465,300.1z"/>
</g>
<g>
	<path d="M-465.2,405.8c12,0,21.7-9.7,21.7-21.7c0-10.8-17.2-41.1-19.2-44.6c-0.5-0.9-1.5-1.5-2.6-1.5c-1.1,0-2,0.6-2.6,1.5
		c-2,3.4-19.2,33.7-19.2,44.6C-487,396.1-477.2,405.8-465.2,405.8z M-465.2,399.9c-8.7,0-15.8-7.1-15.8-15.8c0-6,7.9-22.6,15.8-37
		c7.9,14.4,15.8,31,15.8,37C-449.4,392.8-456.5,399.9-465.2,399.9z"/>
	<path d="M-465.2,421.2c18.3,0,31.7-5.9,31.7-14c0-1.9-0.8-4.8-4.6-7.6c-1.3-0.9-3.2-0.6-4.1,0.7c-0.5,0.6-0.7,1.4-0.5,2.2
		s0.5,1.5,1.2,1.9c1.3,1,2.1,2,2.1,2.8c0,2.7-9.1,8.1-25.7,8.1c-16.7,0-25.7-5.3-25.7-8.1c0-0.8,0.8-1.8,2.2-2.8
		c1.3-0.9,1.6-2.8,0.7-4.1c-0.9-1.3-2.8-1.6-4.1-0.7c-3.9,2.7-4.7,5.7-4.7,7.6C-496.9,415.3-483.6,421.2-465.2,421.2z"/>
	<path d="M-427,395.9c-0.4-0.2-0.9-0.3-1.3-0.3c-1.1,0-2.2,0.7-2.7,1.7c-0.7,1.5-0.1,3.3,1.4,4c6,3,9.5,6.8,9.5,10.2
		c0,9.2-21.1,17.2-45.2,17.2c-24.1,0-45.2-8-45.2-17.2c0-3.5,3.6-7.3,9.7-10.4c1.4-0.7,2.1-2.5,1.4-4c-0.5-1.1-1.5-1.8-2.7-1.8
		c-0.4,0-0.9,0.1-1.3,0.3c-8.6,4.2-13.1,9.7-13.1,15.8c0,13.3,22,23.3,51.1,23.3c29.1,0,51.1-10,51.1-23.3
		C-414.2,405.6-418.6,400.1-427,395.9z"/>
	<path d="M-465.7,389.4c-1.6,0-2.9-0.5-3.7-1.3c-1.7-1.9-1.5-5.2-1.5-5.2c0.1-0.7-0.2-1.4-0.6-1.9c-0.5-0.5-1.1-0.9-1.8-0.9
		c-1.5-0.1-2.7,0.9-2.9,2.4c0,0.6-0.4,5.7,2.8,9.2c1.9,2,4.4,3.1,7.6,3.1c1.4,0,2.6-1.2,2.6-2.6S-464.3,389.4-465.7,389.4z"/>
</g>
</svg>
