<?xml version="1.0" encoding="utf-8"?>
<!-- Generator: Adobe Illustrator 18.1.1, SVG Export Plug-In . SVG Version: 6.00 Build 0)  -->
<!DOCTYPE svg PUBLIC "-//W3C//DTD SVG 1.1//EN" "http://www.w3.org/Graphics/SVG/1.1/DTD/svg11.dtd">
<svg version="1.1" id="Layer_1" xmlns="http://www.w3.org/2000/svg" xmlns:xlink="http://www.w3.org/1999/xlink" x="0px" y="0px"
	 width="200px" height="200px" viewBox="-567 284.4 200 200" enable-background="new -567 284.4 200 200" xml:space="preserve">
<g id="lqx6j9.tif" display="none">
	
		<image display="inline" overflow="visible" enable-background="new    " width="401" height="301" id="Layer_0_1_" xlink:href="FB9B5A07284BD595.png"  transform="matrix(0.9972 0 0 0.9972 -71.1902 238.6203)">
	</image>
</g>
<g>
	<g>
		<path d="M-417.7,374.7L-417.7,374.7c-3.4-0.3-6.9-0.4-10.2-0.4c-10.9,0-20.3,3.1-26.2,5.5c0.6-1.6,0.9-3.3,0.9-5
			c0-3.5-1.5-7.9-3.9-11.4c1.6-2.6,2.6-5.6,2.6-7.5c0-3.2-2.6-5.9-6.4-7.3c0.5-6.5,6-11.6,12.6-11.6v-4.2c-8.6,0-15.8,6.5-16.8,14.9
			c-0.6-0.1-1.3-0.1-1.9-0.1c-0.7,0-1.6,0-2.3,0.1c-0.9-8.4-8.1-15-16.8-15v4.2c6.6,0,12.1,5.2,12.6,11.7c-3.7,1.4-6.1,4.1-6.1,7.2
			c0,2,1.1,4.8,2.6,7.5c-2.4,3.5-3.9,7.9-3.9,11.4c0,1.5,0.2,3,0.7,4.3c-5.9-2.3-14.8-4.8-24.7-4.8c-3.4,0-6.9,0.1-10.1,0.4h-0.1
			c-12.5,1.1-23.4,4.3-23.4,9.9c0,7.2,17.4,10.3,33.6,10.3c8.4,0,16-1.8,21.7-3.8c-3.2,5-3.1,12-3,20c0,1.5,0,3,0,4.4
			c0,17.5,8.3,31.2,19,31.2s19-13.7,19-31.2c0-1.8,0-3.7,0.1-5.4c0-2.1,0.1-4.1,0-6.1c0-0.3,0-0.5,0-0.8c0-0.2,0-0.4,0-0.6
			c0-0.3,0-0.5,0-0.8c0-0.8-0.1-1.7-0.2-2.4c0-0.4-0.1-0.7-0.1-1.2c0-0.3-0.1-0.7-0.2-1.1v-0.1c-0.1-0.3-0.1-0.6-0.2-0.9
			c0-0.2-0.1-0.5-0.2-0.7c0-0.2-0.1-0.4-0.2-0.6c0-0.2-0.1-0.4-0.2-0.6v-0.1c-0.1-0.2-0.2-0.5-0.3-0.7c-0.1-0.3-0.2-0.6-0.4-0.9
			c-0.1-0.3-0.3-0.6-0.5-0.8c-0.1-0.2-0.3-0.5-0.5-0.7c5.9,2.1,14,4.3,23.1,4.3c16.1,0,33.6-3.3,33.6-10.3
			C-394.3,379-405.1,375.9-417.7,374.7z M-534.2,384.7c0-1.4,6.2-4.3,18-5.6l7.7,5.5l-8.3,5.6C-528.2,388.9-534.2,386-534.2,384.7z
			 M-504.8,390.8c-1.8,0-3.6,0-5.2-0.1l8.9-6l-8.4-6.1c1.6-0.1,3.2-0.1,4.7-0.1c11.5,0,21.6,3.8,26.8,6.1
			C-483.2,387-493.3,390.8-504.8,390.8z M-469.1,442.5c-7.1-1.9-12.6-13.4-12.6-26.8c0-1.6,0-3.1,0-4.5c-0.1-8.3-0.2-15.4,3.5-19.2
			c1.9-2,5-3.1,9.3-3.3v53.8H-469.1z M-469.1,384.2c-0.7-0.1-1.4-0.4-2.1-0.7h-0.1l-1.1-0.6c0,0,0,0-0.1-0.1
			c-2.5-1.7-4.2-4.6-4.2-7.9c0-4.8,3.5-11.1,7.5-12.9v22.2H-469.1z M-473.9,360.2c-0.9-1.9-1.4-3.5-1.4-4.2c0-1.9,3.6-4.1,8.3-4.1
			c4.7,0,8.3,2.1,8.3,4.1c0,0.7-0.4,2.4-1.4,4.2c-2-1.7-4.3-2.8-7-2.8C-469.6,357.3-471.9,358.4-473.9,360.2z M-457.4,374.8
			c0,4.5-3.2,8.4-7.5,9.4v-22.2C-460.9,363.7-457.4,370-457.4,374.8z M-452.1,410.2c0,1.8-0.1,3.6-0.1,5.5
			c0,13.4-5.6,24.8-12.6,26.8v-53.8c0.3,0,0.6,0,0.8,0c0.5,0.1,1.1,0.1,1.5,0.2c0.2,0,0.5,0.1,0.7,0.1s0.4,0.1,0.6,0.1l0,0
			c0,0,0.1,0,0.2,0c0.2,0,0.3,0.1,0.5,0.1c0.2,0.1,0.4,0.1,0.6,0.2c0.4,0.1,0.8,0.2,1.2,0.4c0.2,0.1,0.4,0.1,0.5,0.2
			c0.1,0.1,0.3,0.1,0.4,0.2l0,0c0,0,0.1,0,0.1,0.1c0.2,0.1,0.3,0.2,0.4,0.2c0.1,0.1,0.3,0.2,0.4,0.2s0.2,0.2,0.3,0.2
			c0.2,0.1,0.3,0.2,0.5,0.4c0.2,0.1,0.3,0.2,0.4,0.4C-451.8,395.6-452,402.4-452.1,410.2z M-427.9,390.8c-11.5,0-21.6-3.8-26.8-6.1
			c5.2-2.3,15.3-6.1,26.8-6.1c1.7,0,3.3,0,4.7,0.1l-8.4,6.1l8.9,6C-424.3,390.7-426.1,390.8-427.9,390.8z M-415.9,390.2l-8.3-5.6
			l7.7-5.5c11.8,1.3,18,4.2,18,5.6C-398.5,386-404.5,388.9-415.9,390.2z"/>
	</g>
	<g>
		<path d="M-515.1,374.7L-515.1,374.7L-515.1,374.7L-515.1,374.7z"/>
	</g>
</g>
<g>
	<g>
		<path d="M-412.9,372.6L-412.9,372.6L-412.9,372.6L-412.9,372.6z"/>
	</g>
</g>
<g>
	<path d="M-466.3,478.2c-50.7,0-92-41.3-92-92s41.3-92,92-92c50.7,0,92,41.3,92,92S-415.5,478.2-466.3,478.2z M-466.3,300.1
		c-47.5,0-86.1,38.6-86.1,86.1c0,47.5,38.6,86.1,86.1,86.1c47.5,0,86.1-38.6,86.1-86.1C-380.1,338.7-418.8,300.1-466.3,300.1z"/>
</g>
</svg>
