<?xml version="1.0" encoding="utf-8"?>
<!-- Generator: Adobe Illustrator 18.1.1, SVG Export Plug-In . SVG Version: 6.00 Build 0)  -->
<!DOCTYPE svg PUBLIC "-//W3C//DTD SVG 1.1//EN" "http://www.w3.org/Graphics/SVG/1.1/DTD/svg11.dtd">
<svg version="1.1" id="Layer_1" xmlns="http://www.w3.org/2000/svg" xmlns:xlink="http://www.w3.org/1999/xlink" x="0px" y="0px"
	 width="200px" height="200px" viewBox="-567 284.4 200 200" enable-background="new -567 284.4 200 200" xml:space="preserve">
<g id="lqx6j9.tif" display="none">
	
		<image display="inline" overflow="visible" enable-background="new    " width="401" height="301" id="Layer_0_1_" xlink:href="FB9B5A07284BD595.png"  transform="matrix(0.9972 0 0 0.9972 -71.1902 238.6203)">
	</image>
</g>
<g>
	<g>
		<path d="M-412.9,372.6L-412.9,372.6L-412.9,372.6L-412.9,372.6z"/>
	</g>
</g>
<g>
	<path d="M-466.3,478.2c-50.7,0-92-41.3-92-92s41.3-92,92-92c50.7,0,92,41.3,92,92S-415.5,478.2-466.3,478.2z M-466.3,300.1
		c-47.5,0-86.1,38.6-86.1,86.1c0,47.5,38.6,86.1,86.1,86.1c47.5,0,86.1-38.6,86.1-86.1C-380.1,338.7-418.8,300.1-466.3,300.1z"/>
</g>
<path fill="#231F20" d="M-436.7,358.6C-436.7,358.6-436.7,358.6-436.7,358.6c-0.1-16.2-13.3-29.4-29.5-29.4c0,0,0,0,0,0s0,0,0,0
	c0,0,0,0,0,0c-12.2,0-22.7,7.4-27.2,18c0,0,0,0,0,0c-1.5,3.5-2.3,7.4-2.3,11.5v39.7c0,15.3,11.7,27.9,26.5,29.4v26.9
	c0,1.7,1.3,3,3,3s3-1.3,3-3v-26.9c14.9-1.5,26.5-14.1,26.5-29.4v-39.7C-436.7,358.7-436.7,358.6-436.7,358.6z M-489.8,358.7
	c0-1.8,0.2-3.5,0.6-5.2l20,15.5v14.7l-20.5-15.4V358.7z M-463.2,380.1l20.5-15.4v14.7l-20.5,15.4V380.1z M-442.8,357.3l-20.5,15.3
	v-37.2C-452.2,336.8-443.4,346-442.8,357.3z M-469.2,335.4v26l-17.8-13.8C-483.5,341.1-476.9,336.4-469.2,335.4z M-489.8,398.4
	v-22.6l20.5,15.4v30.6C-480.8,420.3-489.8,410.4-489.8,398.4z M-463.2,421.8v-19.5l20.5-15.4v11.5
	C-442.7,410.4-451.7,420.3-463.2,421.8z"/>
</svg>
