<?xml version="1.0" encoding="utf-8"?>
<!-- Generator: Adobe Illustrator 18.1.1, SVG Export Plug-In . SVG Version: 6.00 Build 0)  -->
<!DOCTYPE svg PUBLIC "-//W3C//DTD SVG 1.1//EN" "http://www.w3.org/Graphics/SVG/1.1/DTD/svg11.dtd">
<svg version="1.1" id="Layer_1" xmlns="http://www.w3.org/2000/svg" xmlns:xlink="http://www.w3.org/1999/xlink" x="0px" y="0px"
	 width="144px" height="179.3px" viewBox="0 -35.3 144 179.3" enable-background="new 0 -35.3 144 179.3" xml:space="preserve">
<g id="lqx6j9.tif" display="none">
	
		<image display="inline" overflow="visible" width="400" height="300" id="Layer_0_1_" xlink:href="FB9B5A07284BD595.png"  transform="matrix(1 0 0 1 467.75 -69)">
	</image>
</g>
<g>
	<g>
		<path fill="#1F2B33" d="M118.2,61.3C118.2,61.3,118.2,61.3,118.2,61.3c-3.2-0.3-6.5-0.4-9.7-0.4c-10.3,0-19.3,2.9-24.9,5.2
			c0.6-1.5,0.9-3.1,0.9-4.7c0-3.3-1.4-7.5-3.7-10.8c1.5-2.5,2.5-5.3,2.5-7.1c0-3-2.5-5.6-6.1-6.9c0.5-6.2,5.7-11,12-11v-4
			c-8.2,0-15,6.2-15.9,14.1c-0.6-0.1-1.2-0.1-1.8-0.1c-0.7,0-1.5,0-2.2,0.1c-0.9-8-7.7-14.2-15.9-14.2v4c6.3,0,11.5,4.9,12,11.1
			c-3.5,1.3-5.8,3.9-5.8,6.8c0,1.9,1,4.6,2.5,7.1c-2.3,3.3-3.7,7.5-3.7,10.8c0,1.4,0.2,2.8,0.7,4.1c-5.6-2.2-14-4.6-23.4-4.6
			c-3.2,0-6.5,0.1-9.6,0.4c0,0-0.1,0-0.1,0c-11.9,1-22.2,4.1-22.2,9.4c0,6.8,16.5,9.8,31.9,9.8c8,0,15.2-1.7,20.6-3.6
			c-3,4.7-2.9,11.4-2.8,19c0,1.4,0,2.8,0,4.2c0,16.6,7.9,29.6,18,29.6s18-13,18-29.6c0-1.7,0-3.5,0.1-5.1c0-2,0.1-3.9,0-5.8
			c0-0.3,0-0.5,0-0.8c0-0.2,0-0.4,0-0.6c0-0.3,0-0.5,0-0.8c0-0.8-0.1-1.6-0.2-2.3c0-0.4-0.1-0.7-0.1-1.1c0-0.3-0.1-0.7-0.2-1
			c0,0,0-0.1,0-0.1c-0.1-0.3-0.1-0.6-0.2-0.9c0-0.2-0.1-0.5-0.2-0.7c0-0.2-0.1-0.4-0.2-0.6c0-0.2-0.1-0.4-0.2-0.6c0,0,0-0.1,0-0.1
			c-0.1-0.2-0.2-0.5-0.3-0.7c-0.1-0.3-0.2-0.6-0.4-0.9c-0.1-0.3-0.3-0.6-0.5-0.8c-0.1-0.2-0.3-0.5-0.5-0.7c5.6,2,13.3,4.1,21.9,4.1
			c15.3,0,31.9-3.1,31.9-9.8C140.4,65.4,130.1,62.4,118.2,61.3z M7.6,70.8c0-1.3,5.9-4.1,17.1-5.3l7.3,5.2L24.1,76
			C13.3,74.8,7.6,72,7.6,70.8z M35.5,76.6c-1.7,0-3.4,0-4.9-0.1l8.4-5.7l-8-5.8c1.5-0.1,3-0.1,4.5-0.1c10.9,0,20.5,3.6,25.4,5.8
			C56,73,46.4,76.6,35.5,76.6z M69.4,125.6c-6.7-1.8-12-12.7-12-25.4c0-1.5,0-2.9,0-4.3c-0.1-7.9-0.2-14.6,3.3-18.2
			c1.8-1.9,4.7-2.9,8.8-3.1V125.6z M69.4,70.3c-0.7-0.1-1.3-0.4-2-0.7l-0.1,0l-1-0.6c0,0,0,0-0.1-0.1c-2.4-1.6-4-4.4-4-7.5
			c0-4.6,3.3-10.5,7.1-12.2V70.3z M64.8,47.5c-0.9-1.8-1.3-3.3-1.3-4c0-1.8,3.4-3.9,7.9-3.9s7.9,2,7.9,3.9c0,0.7-0.4,2.3-1.3,4
			c-1.9-1.6-4.1-2.7-6.6-2.7S66.7,45.8,64.8,47.5z M80.5,61.4c0,4.3-3,8-7.1,8.9V49.2C77.2,50.9,80.5,56.8,80.5,61.4z M85.5,95
			c0,1.7-0.1,3.4-0.1,5.2c0,12.7-5.3,23.5-12,25.4v-51c0.3,0,0.6,0,0.8,0c0.5,0.1,1,0.1,1.4,0.2c0.2,0,0.5,0.1,0.7,0.1
			c0.2,0,0.4,0.1,0.6,0.1h0c0,0,0.1,0,0.2,0c0.2,0,0.3,0.1,0.5,0.1c0.2,0.1,0.4,0.1,0.6,0.2c0.4,0.1,0.8,0.2,1.1,0.4
			c0.2,0.1,0.4,0.1,0.5,0.2c0.1,0.1,0.3,0.1,0.4,0.2c0,0,0,0,0,0c0,0,0.1,0,0.1,0.1c0.2,0.1,0.3,0.2,0.4,0.2
			c0.1,0.1,0.3,0.2,0.4,0.2s0.2,0.2,0.3,0.2c0.2,0.1,0.3,0.2,0.5,0.4c0.2,0.1,0.3,0.2,0.4,0.4C85.8,81.1,85.6,87.6,85.5,95z
			 M108.5,76.6c-10.9,0-20.5-3.6-25.4-5.8c4.9-2.2,14.5-5.8,25.4-5.8c1.6,0,3.1,0,4.5,0.1l-8,5.8l8.4,5.7
			C111.9,76.5,110.2,76.6,108.5,76.6z M119.9,76l-7.9-5.3l7.3-5.2c11.2,1.2,17.1,4,17.1,5.3C136.4,72,130.7,74.8,119.9,76z"/>
	</g>
	<g>
		<path fill="#1F2B33" d="M25.8,61.3C25.8,61.3,25.8,61.3,25.8,61.3L25.8,61.3L25.8,61.3z"/>
	</g>
</g>
<g>
	<g>
		<path fill="#1F2B33" d="M118.2,61.3C118.2,61.3,118.2,61.3,118.2,61.3L118.2,61.3L118.2,61.3z"/>
	</g>
</g>
</svg>
