<?xml version="1.0" encoding="utf-8"?>
<!-- Generator: Adobe Illustrator 18.1.1, SVG Export Plug-In . SVG Version: 6.00 Build 0)  -->
<!DOCTYPE svg PUBLIC "-//W3C//DTD SVG 1.1//EN" "http://www.w3.org/Graphics/SVG/1.1/DTD/svg11.dtd">
<svg version="1.1" id="Layer_1" xmlns="http://www.w3.org/2000/svg" xmlns:xlink="http://www.w3.org/1999/xlink" x="0px" y="0px"
	 width="144px" height="179.3px" viewBox="0 -17.3 144 179.3" enable-background="new 0 -17.3 144 179.3" xml:space="preserve">
<g id="lqx6j9.tif" display="none">
</g>
<path fill="none" stroke="#1F2B33" stroke-width="4" stroke-miterlimit="10" d="M87.2,22.2L87.2,22.2"/>
<g>
	<path fill="#1F2B33" d="M104.2,147.8L99,72h-8.8v-3h-4v3h-2.5v-5.5h-4V72h-5.2l-0.7,12.9H59.6v19.6H39.8v43.2h-5.7v4h75.8v-4H104.2
		z M59.5,147.8H43.8v-39.2h15.7V147.8z M78.3,76h17l0.2,3.3H78.1L78.3,76z M79.2,147.8H63.6V88.9h15.7V147.8z M95.7,147.8l-1.3-56.4
		l-4,0.1l1.3,56.2h-8.5V84.9h-5.5l0.1-1.5h17.9l4.3,64.4H95.7z"/>
</g>
<g>
	<rect x="46.4" y="112.8" fill="#1F2B33" width="4" height="3.8"/>
</g>
<g>
	<rect x="52.9" y="112.8" fill="#1F2B33" width="4" height="3.8"/>
</g>
<g>
	<g>
		<rect x="66.2" y="130.7" fill="#1F2B33" width="4" height="3.9"/>
	</g>
	<g>
		<rect x="72.6" y="139.6" fill="#1F2B33" width="4" height="3.9"/>
	</g>
</g>
<g>
	<g>
		<rect x="66.2" y="93.3" fill="#1F2B33" width="4" height="3.8"/>
	</g>
	<g>
		<rect x="72.6" y="102.3" fill="#1F2B33" width="4" height="3.8"/>
	</g>
</g>
<g>
	<g>
		<rect x="46.4" y="121.7" fill="#1F2B33" width="4" height="3.9"/>
	</g>
	<g>
		<rect x="52.9" y="121.7" fill="#1F2B33" width="4" height="3.9"/>
	</g>
</g>
<g>
	<g>
		<rect x="46.4" y="130.7" fill="#1F2B33" width="4" height="3.9"/>
	</g>
	<g>
		<rect x="52.9" y="130.7" fill="#1F2B33" width="4" height="3.9"/>
	</g>
</g>
<g>
	<g>
		<rect x="46.4" y="139.6" fill="#1F2B33" width="4" height="3.9"/>
	</g>
	<g>
		<rect x="52.9" y="139.6" fill="#1F2B33" width="4" height="3.9"/>
	</g>
</g>
<g>
	<path fill="#1F2B33" d="M85.8,65.8c-2.2,0-3.9-1.8-3.9-3.9v-1.2H56.2c-2.1,0-3.9-1.6-4.1-3.7c-0.1-1.1,0.3-2.2,1.1-3.1
		c0.8-0.8,1.7-1.2,2.8-1.2h25.8v-0.9h-1.4c-2.1,0-3.9-1.6-4.1-3.7c-0.1-1.1,0.3-2.2,1.1-3.1c0.8-0.8,1.8-1.2,2.8-1.2h25.2
		c2.1,0,3.9,1.6,4.1,3.7c0.1,1.1-0.3,2.2-1.1,3.1c-0.8,0.8-1.8,1.2-2.8,1.2H89.7v0.9h9.8c2.1,0,3.9,1.6,4.1,3.7
		c0.1,1.1-0.3,2.2-1.1,3.1c-0.8,0.8-1.7,1.2-2.8,1.2h-9.9v1.2C89.7,64.1,88,65.8,85.8,65.8z M56.1,55.8c-0.3,0-0.6,0.2-0.7,0.3
		c-0.1,0.1-0.3,0.4-0.3,0.7c0,0.5,0.5,0.9,1.1,0.9h28.6v4.2c0,0.5,0.4,0.9,0.9,0.9c0.5,0,0.9-0.4,0.9-0.9v-4.2h12.9
		c0.3,0,0.6-0.2,0.7-0.3c0.1-0.1,0.3-0.4,0.3-0.7c0-0.5-0.5-0.9-1.1-0.9H86.7v-6.9h18.9c0.3,0,0.6-0.2,0.7-0.3
		c0.1-0.1,0.3-0.4,0.3-0.7c0-0.5-0.5-0.9-1.1-0.9H80.3c-0.3,0-0.6,0.2-0.7,0.3c-0.1,0.1-0.3,0.4-0.3,0.7c0,0.5,0.5,0.9,1.1,0.9h4.4
		v6.9H56.1z"/>
</g>
</svg>
