<?xml version="1.0" encoding="utf-8"?>
<!-- Generator: Adobe Illustrator 18.1.1, SVG Export Plug-In . SVG Version: 6.00 Build 0)  -->
<!DOCTYPE svg PUBLIC "-//W3C//DTD SVG 1.1//EN" "http://www.w3.org/Graphics/SVG/1.1/DTD/svg11.dtd">
<svg version="1.1" id="Layer_1" xmlns="http://www.w3.org/2000/svg" xmlns:xlink="http://www.w3.org/1999/xlink" x="0px" y="0px"
	 width="641px" height="466px" viewBox="0 0 641 466" enable-background="new 0 0 641 466" xml:space="preserve">
<g>
	<path fill="#202B34" d="M62.4,414.6H42.1c-4.5,0-9,3.4-9,9s3.4,9,9,9h20.3c4.5,0,9-3.4,9-9S66.9,414.6,62.4,414.6z"/>
</g>
<g>
	<path fill="#202B34" d="M127.7,422.4v-64.2c4.5,3.4,9,6.8,14.7,10.1c3.4,2.3,7.9,1.1,11.3-1.1c2.3-2.3,2.3-4.5,2.3-6.8
		s-2.3-4.5-4.5-6.8c-4.5-3.4-9-5.6-12.4-9c-6.8-5.6-11.3-13.5-11.3-23.7c4.5,4.5,9,9,14.7,12.4c3.4,2.3,7.9,2.3,11.3-1.1
		c2.3-2.3,3.4-4.5,2.3-6.8c0-2.3-1.1-5.6-3.4-6.8c-6.8-4.5-13.5-10.1-19.2-16.9c-3.4-3.4-4.5-7.9-5.6-12.4
		c3.4,4.5,6.8,7.9,11.3,10.1c3.4,2.3,9,2.3,11.3-1.1c2.3-2.3,3.4-4.5,2.3-6.8c0-2.3-2.3-4.5-4.5-6.8c-10.1-6.8-19.2-24.8-22.5-31.6
		c-1.1-3.4-4.5-5.6-7.9-5.6s-6.8,2.3-7.9,5.6c-6.8,19.2-18,29.3-21.4,31.6c-2.3,1.1-3.4,3.4-3.4,5.6c0,2.3,0,4.5,1.1,6.8
		c2.3,3.4,7.9,5.6,11.3,2.3c1.1,0,5.6-3.4,11.3-11.3c-1.1,4.5-2.3,9-5.6,12.4c-5.6,6.8-11.3,12.4-18,16.9c-3.4,2.3-5.6,6.8-3.4,11.3
		c1.1,3.4,4.5,5.6,7.9,5.6c2.3,0,3.4,0,4.5-1.1c5.6-3.4,11.3-7.9,15.8-12.4c-1.1,7.9-4.5,14.7-10.1,20.3c-3.4,3.4-7.9,6.8-13.5,10.1
		c-2.3,1.1-3.4,3.4-4.5,5.6c-1.1,2.3,0,4.5,1.1,6.8c2.3,2.3,4.5,3.4,6.8,3.4s3.4,0,4.5-1.1c5.6-3.4,10.1-6.8,14.7-11.3v65.4"/>
</g>
<g>
	<path fill="#202B34" d="M230.9,176.9c-25.5,0-46.3-20.8-46.3-46.3s20.8-46.3,46.3-46.3s46.3,20.8,46.3,46.3
		S256.4,176.9,230.9,176.9z M230.9,97.7c-18.1,0-32.8,14.7-32.8,32.8s14.7,32.8,32.8,32.8s32.8-14.7,32.8-32.8S249,97.7,230.9,97.7z
		"/>
</g>
<g>
	<path fill="#202B34" d="M230.9,77.1c-3.9,0-7-3.1-7-7V50.4c0-3.9,3.1-7,7-7s7,3.1,7,7v19.8C237.9,74,234.8,77.1,230.9,77.1z"/>
</g>
<g>
	<path fill="#202B34" d="M230.9,215.6c-3.9,0-7-3.1-7-7v-19.8c0-3.9,3.1-7,7-7s7,3.1,7,7v19.8C237.9,212.5,234.8,215.6,230.9,215.6z
		"/>
</g>
<g>
	<path fill="#202B34" d="M171.6,136.5h-19.8c-3.9,0-7-3.1-7-7s3.1-7,7-7h19.8c3.9,0,7,3.1,7,7S175.4,136.5,171.6,136.5z"/>
</g>
<g>
	<path fill="#202B34" d="M310,136.5h-19.8c-3.9,0-7-3.1-7-7s3.1-7,7-7H310c3.9,0,7,3.1,7,7S313.9,136.5,310,136.5z"/>
</g>
<g>
	<path fill="#202B34" d="M175,192.4c-1.8,0-3.6-0.7-4.9-2.1c-2.7-2.7-2.7-7.2,0-9.9l14-14c2.7-2.7,7.2-2.7,9.9,0
		c2.7,2.7,2.7,7.2,0,9.9l-14,14C178.5,191.7,176.8,192.4,175,192.4z"/>
</g>
<g>
	<path fill="#202B34" d="M272.9,94.5c-1.8,0-3.6-0.7-4.9-2.1c-2.7-2.7-2.7-7.2,0-9.9l14-14c2.7-2.7,7.2-2.7,9.9,0
		c2.7,2.7,2.7,7.2,0,9.9l-14,14C276.5,93.8,274.7,94.5,272.9,94.5z"/>
</g>
<g>
	<path fill="#202B34" d="M230.9,215.6c-3.9,0-7-3.1-7-7v-19.8c0-3.9,3.1-7,7-7s7,3.1,7,7v19.8C237.9,212.5,234.8,215.6,230.9,215.6z
		"/>
</g>
<g>
	<path fill="#202B34" d="M230.9,77.1c-3.9,0-7-3.1-7-7V50.4c0-3.9,3.1-7,7-7s7,3.1,7,7v19.8C237.9,74,234.8,77.1,230.9,77.1z"/>
</g>
<g>
	<path fill="#202B34" d="M286.9,192.4c-1.8,0-3.6-0.7-4.9-2.1l-14-14c-2.7-2.7-2.7-7.2,0-9.9c2.7-2.7,7.2-2.7,9.9,0l14,14
		c2.7,2.7,2.7,7.2,0,9.9C290.4,191.7,288.7,192.4,286.9,192.4z"/>
</g>
<g>
	<path fill="#202B34" d="M189,94.5c-1.8,0-3.6-0.7-4.9-2.1l-14-14c-2.7-2.7-2.7-7.2,0-9.9c2.7-2.7,7.2-2.7,9.9,0l14,14
		c2.7,2.7,2.7,7.2,0,9.9C192.5,93.8,190.7,94.5,189,94.5z"/>
</g>
<g>
	<path fill="#202B34" d="M323.7,429.8c-4.1,0-7.5-3.4-7.5-7.5l0-142.2c0-1.9,0.7-3.7,2-5.1l100.4-110.1c1.4-1.6,3.4-2.4,5.5-2.4
		c0,0,0,0,0,0c2.1,0,4.1,0.9,5.5,2.4L531.2,275c1.3,1.4,2,3.2,2,5.1l0,140.9c0,4.1-3.4,7.5-7.5,7.5s-7.5-3.4-7.5-7.5l0-138
		L424,181.1L331.1,283l0,139.3C331.2,426.5,327.8,429.8,323.7,429.8L323.7,429.8z"/>
</g>
<g>
	<path fill="#202B34" d="M121,413.4l-6.8,0.6H210v-37.8c4.5,3.4,9,6.8,14.7,10.1c3.4,2.3,7.9,1.1,11.3-1.1c2.3-2.3,2.3-4.5,2.3-6.8
		s-2.3-4.5-4.5-6.8c-4.5-3.4-9-5.6-12.4-9c-6.8-5.6-11.3-13.5-11.3-23.7c4.5,4.5,9,9,14.7,12.4c3.4,2.3,7.9,2.3,11.3-1.1
		c2.3-2.3,3.4-4.5,2.3-6.8c0-2.3-1.1-5.6-3.4-6.8c-6.8-4.5-13.5-10.1-19.2-16.9c-3.4-3.4-4.5-7.9-5.6-12.4
		c3.4,4.5,6.8,7.9,11.3,10.1c3.4,2.3,9,2.3,11.3-1.1c2.3-2.3,3.4-4.5,2.3-6.8c0-2.3-2.3-4.5-4.5-6.8c-10.1-6.8-19.2-24.8-22.5-31.6
		c-1.1-3.4-4.5-5.6-7.9-5.6c-3.4,0-6.8,2.3-7.9,5.6c-6.8,19.2-18,29.3-21.4,31.6c-2.3,1.1-3.4,3.4-3.4,5.6s0,4.5,1.1,6.8
		c2.3,3.4,7.9,5.6,11.3,2.3c1.1,0,5.6-3.4,11.3-11.3c-1.1,4.5-2.3,9-5.6,12.4c-5.6,6.8-11.3,12.4-18,16.9c-3.4,2.3-5.6,6.8-3.4,11.3
		c1.1,3.4,4.5,5.6,7.9,5.6c2.3,0,3.4,0,4.5-1.1c5.6-3.4,11.3-7.9,15.8-12.4c-1.1,7.9-4.5,14.7-10.1,20.3c-3.4,3.4-7.9,6.8-13.5,10.1
		c-2.3,1.1-3.4,3.4-4.5,5.6s0,4.5,1.1,6.8c2.3,2.3,4.5,3.4,6.8,3.4c2.3,0,3.4,0,4.5-1.1c5.6-3.4,10.1-6.8,14.7-11.3v40.6H121z"/>
</g>
<g>
	<path fill="#202B34" d="M575,432.5H94c-5.2,0-9.5-4.3-9.5-9.5s4.3-9.5,9.5-9.5h481c5.2,0,9.5,4.3,9.5,9.5S580.2,432.5,575,432.5z"
		/>
</g>
<g>
	<path fill="#202B34" d="M307.7,302.2c-1.9,0-3.8-0.7-5.3-2.2c-2.9-2.9-2.9-7.7,0-10.6l30.7-30.7c2.9-2.9,7.7-2.9,10.6,0
		c2.9,2.9,2.9,7.7,0,10.6L313,300C311.5,301.4,309.6,302.2,307.7,302.2z"/>
</g>
<g>
	<path fill="#202B34" d="M541.3,302.2c-1.9,0-3.8-0.7-5.3-2.2l-30.7-30.7c-2.9-2.9-2.9-7.7,0-10.6c2.9-2.9,7.7-2.9,10.6,0l30.7,30.7
		c2.9,2.9,2.9,7.7,0,10.6C545.2,301.4,543.3,302.2,541.3,302.2z"/>
</g>
<g>
	<path fill="#202B34" d="M463.5,373.5H380c-3.9,0-7-3.1-7-7V283c0-3.9,3.1-7,7-7h83.5c3.9,0,7,3.1,7,7v83.5
		C470.5,370.4,467.4,373.5,463.5,373.5z M387,359.5h69.5V290H387V359.5z"/>
</g>
<g>
	<path fill="#202B34" d="M420.5,372.8c-3,0-5.5-2.5-5.5-5.5v-84c0-3,2.5-5.5,5.5-5.5s5.5,2.5,5.5,5.5v84
		C426,370.3,423.5,372.8,420.5,372.8z"/>
</g>
<g>
	<path fill="#202B34" d="M462.5,330.8h-84c-3,0-5.5-2.5-5.5-5.5s2.5-5.5,5.5-5.5h84c3,0,5.5,2.5,5.5,5.5S465.5,330.8,462.5,330.8z"
		/>
</g>
<g>
	<path fill="#202B34" d="M323,371c-2.4,0-4.7-1.3-5.8-3.6c-1.6-3.2-0.3-7.1,2.9-8.7l36.5-18.5c3.2-1.6,7.1-0.3,8.7,2.9
		c1.6,3.2,0.3,7.1-2.9,8.7l-36.5,18.5C325,370.8,324,371,323,371z"/>
</g>
<g>
	<path fill="#202B34" d="M327,394c-2.3,0-4.5-1.2-5.7-3.4c-1.7-3.1-0.6-7.1,2.6-8.8l21-11.5c3.1-1.7,7.1-0.6,8.8,2.6
		c1.7,3.1,0.6,7.1-2.6,8.8l-21,11.5C329.1,393.7,328.1,394,327,394z"/>
</g>
</svg>
