<?xml version="1.0" encoding="utf-8"?>
<!-- Generator: Adobe Illustrator 18.1.1, SVG Export Plug-In . SVG Version: 6.00 Build 0)  -->
<!DOCTYPE svg PUBLIC "-//W3C//DTD SVG 1.1//EN" "http://www.w3.org/Graphics/SVG/1.1/DTD/svg11.dtd">
<svg version="1.1" id="Layer_1" xmlns="http://www.w3.org/2000/svg" xmlns:xlink="http://www.w3.org/1999/xlink" x="0px" y="0px"
	 width="175.8px" height="168.1px" viewBox="0 0 175.8 168.1" enable-background="new 0 0 175.8 168.1" xml:space="preserve">
<path d="M114.7,77.8h-7.2c-0.3-4.8-2.4-9.1-5.5-12.3l1.2-2.3c0.3-0.5,0.2-1.2-0.3-1.5c-0.4-0.4-1.1-0.4-1.6,0l-2.1,1.6
	c-2.9-2.1-6.4-3.4-10.1-3.6v-7.4c0-0.7-0.6-1.2-1.2-1.2s-1.2,0.6-1.2,1.2v7.4C76.9,60.2,69,68,68.3,77.8h-7.2
	c-0.7,0-1.2,0.6-1.2,1.2s0.6,1.2,1.2,1.2h7.2c0.3,4.9,2.3,9.3,5.5,12.6l-1.3,2.3c-0.3,0.5-0.2,1.2,0.3,1.5c0.2,0.2,0.5,0.3,0.8,0.3
	c0.3,0,0.5-0.1,0.8-0.2l2.1-1.6c2.9,2.1,6.4,3.4,10.1,3.6v7.1c0,0.7,0.6,1.2,1.2,1.2s1.2-0.6,1.2-1.2v-7.1
	c9.9-0.6,17.8-8.6,18.3-18.5h7.2c0.7,0,1.2-0.6,1.2-1.2S115.4,77.8,114.7,77.8z M88.8,74.4l9.4-7.2l-5.7,10.4
	C91.9,76,90.5,74.7,88.8,74.4z M90.3,79.2c0,1.3-1.1,2.4-2.4,2.4s-2.4-1.1-2.4-2.4s1.1-2.4,2.4-2.4S90.3,77.9,90.3,79.2z M75.1,90.6
	c-2.7-3-4.4-7-4.4-11.4c0-9.4,7.7-17.1,17.1-17.1c3.4,0,6.6,1,9.3,2.8L83.7,75.2c-0.1,0.1-0.2,0.2-0.3,0.4L75.1,90.6z M83.3,80.8
	c0.6,1.6,2,2.9,3.7,3.2l-9.4,7.2L83.3,80.8z M87.9,96.3c-3.4,0-6.6-1-9.3-2.8l13.5-10.4c0.1-0.1,0.2-0.2,0.3-0.4l8.2-15
	c2.7,3,4.4,7,4.4,11.4C105.1,88.6,97.4,96.3,87.9,96.3z M114.7,77.8h-7.2c-0.3-4.8-2.4-9.1-5.5-12.3l1.2-2.3
	c0.3-0.5,0.2-1.2-0.3-1.5c-0.4-0.4-1.1-0.4-1.6,0l-2.1,1.6c-2.9-2.1-6.4-3.4-10.1-3.6v-7.4c0-0.7-0.6-1.2-1.2-1.2s-1.2,0.6-1.2,1.2
	v7.4C76.9,60.2,69,68,68.3,77.8h-7.2c-0.7,0-1.2,0.6-1.2,1.2s0.6,1.2,1.2,1.2h7.2c0.3,4.9,2.3,9.3,5.5,12.6l-1.3,2.3
	c-0.3,0.5-0.2,1.2,0.3,1.5c0.2,0.2,0.5,0.3,0.8,0.3c0.3,0,0.5-0.1,0.8-0.2l2.1-1.6c2.9,2.1,6.4,3.4,10.1,3.6v7.1
	c0,0.7,0.6,1.2,1.2,1.2s1.2-0.6,1.2-1.2v-7.1c9.9-0.6,17.8-8.6,18.3-18.5h7.2c0.7,0,1.2-0.6,1.2-1.2S115.4,77.8,114.7,77.8z
	 M88.8,74.4l9.4-7.2l-5.7,10.4C91.9,76,90.5,74.7,88.8,74.4z M90.3,79.2c0,1.3-1.1,2.4-2.4,2.4s-2.4-1.1-2.4-2.4s1.1-2.4,2.4-2.4
	S90.3,77.9,90.3,79.2z M75.1,90.6c-2.7-3-4.4-7-4.4-11.4c0-9.4,7.7-17.1,17.1-17.1c3.4,0,6.6,1,9.3,2.8L83.7,75.2
	c-0.1,0.1-0.2,0.2-0.3,0.4L75.1,90.6z M83.3,80.8c0.6,1.6,2,2.9,3.7,3.2l-9.4,7.2L83.3,80.8z M87.9,96.3c-3.4,0-6.6-1-9.3-2.8
	l13.5-10.4c0.1-0.1,0.2-0.2,0.3-0.4l8.2-15c2.7,3,4.4,7,4.4,11.4C105.1,88.6,97.4,96.3,87.9,96.3z M114.7,77.8h-7.2
	c-0.3-4.8-2.4-9.1-5.5-12.3l1.2-2.3c0.3-0.5,0.2-1.2-0.3-1.5c-0.4-0.4-1.1-0.4-1.6,0l-2.1,1.6c-2.9-2.1-6.4-3.4-10.1-3.6v-7.4
	c0-0.7-0.6-1.2-1.2-1.2s-1.2,0.6-1.2,1.2v7.4C76.9,60.2,69,68,68.3,77.8h-7.2c-0.7,0-1.2,0.6-1.2,1.2s0.6,1.2,1.2,1.2h7.2
	c0.3,4.9,2.3,9.3,5.5,12.6l-1.3,2.3c-0.3,0.5-0.2,1.2,0.3,1.5c0.2,0.2,0.5,0.3,0.8,0.3c0.3,0,0.5-0.1,0.8-0.2l2.1-1.6
	c2.9,2.1,6.4,3.4,10.1,3.6v7.1c0,0.7,0.6,1.2,1.2,1.2s1.2-0.6,1.2-1.2v-7.1c9.9-0.6,17.8-8.6,18.3-18.5h7.2c0.7,0,1.2-0.6,1.2-1.2
	S115.4,77.8,114.7,77.8z M88.8,74.4l9.4-7.2l-5.7,10.4C91.9,76,90.5,74.7,88.8,74.4z M90.3,79.2c0,1.3-1.1,2.4-2.4,2.4
	s-2.4-1.1-2.4-2.4s1.1-2.4,2.4-2.4S90.3,77.9,90.3,79.2z M75.1,90.6c-2.7-3-4.4-7-4.4-11.4c0-9.4,7.7-17.1,17.1-17.1
	c3.4,0,6.6,1,9.3,2.8L83.7,75.2c-0.1,0.1-0.2,0.2-0.3,0.4L75.1,90.6z M83.3,80.8c0.6,1.6,2,2.9,3.7,3.2l-9.4,7.2L83.3,80.8z
	 M87.9,96.3c-3.4,0-6.6-1-9.3-2.8l13.5-10.4c0.1-0.1,0.2-0.2,0.3-0.4l8.2-15c2.7,3,4.4,7,4.4,11.4C105.1,88.6,97.4,96.3,87.9,96.3z
	 M114.7,77.8h-7.2c-0.3-4.8-2.4-9.1-5.5-12.3l1.2-2.3c0.3-0.5,0.2-1.2-0.3-1.5c-0.4-0.4-1.1-0.4-1.6,0l-2.1,1.6
	c-2.9-2.1-6.4-3.4-10.1-3.6v-7.4c0-0.7-0.6-1.2-1.2-1.2s-1.2,0.6-1.2,1.2v7.4C76.9,60.2,69,68,68.3,77.8h-7.2
	c-0.7,0-1.2,0.6-1.2,1.2s0.6,1.2,1.2,1.2h7.2c0.3,4.9,2.3,9.3,5.5,12.6l-1.3,2.3c-0.3,0.5-0.2,1.2,0.3,1.5c0.2,0.2,0.5,0.3,0.8,0.3
	c0.3,0,0.5-0.1,0.8-0.2l2.1-1.6c2.9,2.1,6.4,3.4,10.1,3.6v7.1c0,0.7,0.6,1.2,1.2,1.2s1.2-0.6,1.2-1.2v-7.1
	c9.9-0.6,17.8-8.6,18.3-18.5h7.2c0.7,0,1.2-0.6,1.2-1.2S115.4,77.8,114.7,77.8z M88.8,74.4l9.4-7.2l-5.7,10.4
	C91.9,76,90.5,74.7,88.8,74.4z M90.3,79.2c0,1.3-1.1,2.4-2.4,2.4s-2.4-1.1-2.4-2.4s1.1-2.4,2.4-2.4S90.3,77.9,90.3,79.2z M75.1,90.6
	c-2.7-3-4.4-7-4.4-11.4c0-9.4,7.7-17.1,17.1-17.1c3.4,0,6.6,1,9.3,2.8L83.7,75.2c-0.1,0.1-0.2,0.2-0.3,0.4L75.1,90.6z M83.3,80.8
	c0.6,1.6,2,2.9,3.7,3.2l-9.4,7.2L83.3,80.8z M87.9,96.3c-3.4,0-6.6-1-9.3-2.8l13.5-10.4c0.1-0.1,0.2-0.2,0.3-0.4l8.2-15
	c2.7,3,4.4,7,4.4,11.4C105.1,88.6,97.4,96.3,87.9,96.3z M114.7,77.8h-7.2c-0.3-4.8-2.4-9.1-5.5-12.3l1.2-2.3
	c0.3-0.5,0.2-1.2-0.3-1.5c-0.4-0.4-1.1-0.4-1.6,0l-2.1,1.6c-2.9-2.1-6.4-3.4-10.1-3.6v-7.4c0-0.7-0.6-1.2-1.2-1.2s-1.2,0.6-1.2,1.2
	v7.4C76.9,60.2,69,68,68.3,77.8h-7.2c-0.7,0-1.2,0.6-1.2,1.2s0.6,1.2,1.2,1.2h7.2c0.3,4.9,2.3,9.3,5.5,12.6l-1.3,2.3
	c-0.3,0.5-0.2,1.2,0.3,1.5c0.2,0.2,0.5,0.3,0.8,0.3c0.3,0,0.5-0.1,0.8-0.2l2.1-1.6c2.9,2.1,6.4,3.4,10.1,3.6v7.1
	c0,0.7,0.6,1.2,1.2,1.2s1.2-0.6,1.2-1.2v-7.1c9.9-0.6,17.8-8.6,18.3-18.5h7.2c0.7,0,1.2-0.6,1.2-1.2S115.4,77.8,114.7,77.8z
	 M88.8,74.4l9.4-7.2l-5.7,10.4C91.9,76,90.5,74.7,88.8,74.4z M90.3,79.2c0,1.3-1.1,2.4-2.4,2.4s-2.4-1.1-2.4-2.4s1.1-2.4,2.4-2.4
	S90.3,77.9,90.3,79.2z M75.1,90.6c-2.7-3-4.4-7-4.4-11.4c0-9.4,7.7-17.1,17.1-17.1c3.4,0,6.6,1,9.3,2.8L83.7,75.2
	c-0.1,0.1-0.2,0.2-0.3,0.4L75.1,90.6z M83.3,80.8c0.6,1.6,2,2.9,3.7,3.2l-9.4,7.2L83.3,80.8z M87.9,96.3c-3.4,0-6.6-1-9.3-2.8
	l13.5-10.4c0.1-0.1,0.2-0.2,0.3-0.4l8.2-15c2.7,3,4.4,7,4.4,11.4C105.1,88.6,97.4,96.3,87.9,96.3z M114.7,77.8h-7.2
	c-0.3-4.8-2.4-9.1-5.5-12.3l1.2-2.3c0.3-0.5,0.2-1.2-0.3-1.5c-0.4-0.4-1.1-0.4-1.6,0l-2.1,1.6c-2.9-2.1-6.4-3.4-10.1-3.6v-7.4
	c0-0.7-0.6-1.2-1.2-1.2s-1.2,0.6-1.2,1.2v7.4C76.9,60.2,69,68,68.3,77.8h-7.2c-0.7,0-1.2,0.6-1.2,1.2s0.6,1.2,1.2,1.2h7.2
	c0.3,4.9,2.3,9.3,5.5,12.6l-1.3,2.3c-0.3,0.5-0.2,1.2,0.3,1.5c0.2,0.2,0.5,0.3,0.8,0.3c0.3,0,0.5-0.1,0.8-0.2l2.1-1.6
	c2.9,2.1,6.4,3.4,10.1,3.6v7.1c0,0.7,0.6,1.2,1.2,1.2s1.2-0.6,1.2-1.2v-7.1c9.9-0.6,17.8-8.6,18.3-18.5h7.2c0.7,0,1.2-0.6,1.2-1.2
	S115.4,77.8,114.7,77.8z M88.8,74.4l9.4-7.2l-5.7,10.4C91.9,76,90.5,74.7,88.8,74.4z M90.3,79.2c0,1.3-1.1,2.4-2.4,2.4
	s-2.4-1.1-2.4-2.4s1.1-2.4,2.4-2.4S90.3,77.9,90.3,79.2z M75.1,90.6c-2.7-3-4.4-7-4.4-11.4c0-9.4,7.7-17.1,17.1-17.1
	c3.4,0,6.6,1,9.3,2.8L83.7,75.2c-0.1,0.1-0.2,0.2-0.3,0.4L75.1,90.6z M83.3,80.8c0.6,1.6,2,2.9,3.7,3.2l-9.4,7.2L83.3,80.8z
	 M87.9,96.3c-3.4,0-6.6-1-9.3-2.8l13.5-10.4c0.1-0.1,0.2-0.2,0.3-0.4l8.2-15c2.7,3,4.4,7,4.4,11.4C105.1,88.6,97.4,96.3,87.9,96.3z
	 M114.7,77.8h-7.2c-0.3-4.8-2.4-9.1-5.5-12.3l1.2-2.3c0.3-0.5,0.2-1.2-0.3-1.5c-0.4-0.4-1.1-0.4-1.6,0l-2.1,1.6
	c-2.9-2.1-6.4-3.4-10.1-3.6v-7.4c0-0.7-0.6-1.2-1.2-1.2s-1.2,0.6-1.2,1.2v7.4C76.9,60.2,69,68,68.3,77.8h-7.2
	c-0.7,0-1.2,0.6-1.2,1.2s0.6,1.2,1.2,1.2h7.2c0.3,4.9,2.3,9.3,5.5,12.6l-1.3,2.3c-0.3,0.5-0.2,1.2,0.3,1.5c0.2,0.2,0.5,0.3,0.8,0.3
	c0.3,0,0.5-0.1,0.8-0.2l2.1-1.6c2.9,2.1,6.4,3.4,10.1,3.6v7.1c0,0.7,0.6,1.2,1.2,1.2s1.2-0.6,1.2-1.2v-7.1
	c9.9-0.6,17.8-8.6,18.3-18.5h7.2c0.7,0,1.2-0.6,1.2-1.2S115.4,77.8,114.7,77.8z M88.8,74.4l9.4-7.2l-5.7,10.4
	C91.9,76,90.5,74.7,88.8,74.4z M90.3,79.2c0,1.3-1.1,2.4-2.4,2.4s-2.4-1.1-2.4-2.4s1.1-2.4,2.4-2.4S90.3,77.9,90.3,79.2z M75.1,90.6
	c-2.7-3-4.4-7-4.4-11.4c0-9.4,7.7-17.1,17.1-17.1c3.4,0,6.6,1,9.3,2.8L83.7,75.2c-0.1,0.1-0.2,0.2-0.3,0.4L75.1,90.6z M83.3,80.8
	c0.6,1.6,2,2.9,3.7,3.2l-9.4,7.2L83.3,80.8z M87.9,96.3c-3.4,0-6.6-1-9.3-2.8l13.5-10.4c0.1-0.1,0.2-0.2,0.3-0.4l8.2-15
	c2.7,3,4.4,7,4.4,11.4C105.1,88.6,97.4,96.3,87.9,96.3z M114.7,77.8h-7.2c-0.3-4.8-2.4-9.1-5.5-12.3l1.2-2.3
	c0.3-0.5,0.2-1.2-0.3-1.5c-0.4-0.4-1.1-0.4-1.6,0l-2.1,1.6c-2.9-2.1-6.4-3.4-10.1-3.6v-7.4c0-0.7-0.6-1.2-1.2-1.2s-1.2,0.6-1.2,1.2
	v7.4C76.9,60.2,69,68,68.3,77.8h-7.2c-0.7,0-1.2,0.6-1.2,1.2s0.6,1.2,1.2,1.2h7.2c0.3,4.9,2.3,9.3,5.5,12.6l-1.3,2.3
	c-0.3,0.5-0.2,1.2,0.3,1.5c0.2,0.2,0.5,0.3,0.8,0.3c0.3,0,0.5-0.1,0.8-0.2l2.1-1.6c2.9,2.1,6.4,3.4,10.1,3.6v7.1
	c0,0.7,0.6,1.2,1.2,1.2s1.2-0.6,1.2-1.2v-7.1c9.9-0.6,17.8-8.6,18.3-18.5h7.2c0.7,0,1.2-0.6,1.2-1.2S115.4,77.8,114.7,77.8z
	 M88.8,74.4l9.4-7.2l-5.7,10.4C91.9,76,90.5,74.7,88.8,74.4z M90.3,79.2c0,1.3-1.1,2.4-2.4,2.4s-2.4-1.1-2.4-2.4s1.1-2.4,2.4-2.4
	S90.3,77.9,90.3,79.2z M75.1,90.6c-2.7-3-4.4-7-4.4-11.4c0-9.4,7.7-17.1,17.1-17.1c3.4,0,6.6,1,9.3,2.8L83.7,75.2
	c-0.1,0.1-0.2,0.2-0.3,0.4L75.1,90.6z M83.3,80.8c0.6,1.6,2,2.9,3.7,3.2l-9.4,7.2L83.3,80.8z M87.9,96.3c-3.4,0-6.6-1-9.3-2.8
	l13.5-10.4c0.1-0.1,0.2-0.2,0.3-0.4l8.2-15c2.7,3,4.4,7,4.4,11.4C105.1,88.6,97.4,96.3,87.9,96.3z M114.7,77.8h-7.2
	c-0.3-4.8-2.4-9.1-5.5-12.3l1.2-2.3c0.3-0.5,0.2-1.2-0.3-1.5c-0.4-0.4-1.1-0.4-1.6,0l-2.1,1.6c-2.9-2.1-6.4-3.4-10.1-3.6v-7.4
	c0-0.7-0.6-1.2-1.2-1.2s-1.2,0.6-1.2,1.2v7.4C76.9,60.2,69,68,68.3,77.8h-7.2c-0.7,0-1.2,0.6-1.2,1.2s0.6,1.2,1.2,1.2h7.2
	c0.3,4.9,2.3,9.3,5.5,12.6l-1.3,2.3c-0.3,0.5-0.2,1.2,0.3,1.5c0.2,0.2,0.5,0.3,0.8,0.3c0.3,0,0.5-0.1,0.8-0.2l2.1-1.6
	c2.9,2.1,6.4,3.4,10.1,3.6v7.1c0,0.7,0.6,1.2,1.2,1.2s1.2-0.6,1.2-1.2v-7.1c9.9-0.6,17.8-8.6,18.3-18.5h7.2c0.7,0,1.2-0.6,1.2-1.2
	S115.4,77.8,114.7,77.8z M88.8,74.4l9.4-7.2l-5.7,10.4C91.9,76,90.5,74.7,88.8,74.4z M90.3,79.2c0,1.3-1.1,2.4-2.4,2.4
	s-2.4-1.1-2.4-2.4s1.1-2.4,2.4-2.4S90.3,77.9,90.3,79.2z M75.1,90.6c-2.7-3-4.4-7-4.4-11.4c0-9.4,7.7-17.1,17.1-17.1
	c3.4,0,6.6,1,9.3,2.8L83.7,75.2c-0.1,0.1-0.2,0.2-0.3,0.4L75.1,90.6z M83.3,80.8c0.6,1.6,2,2.9,3.7,3.2l-9.4,7.2L83.3,80.8z
	 M87.9,96.3c-3.4,0-6.6-1-9.3-2.8l13.5-10.4c0.1-0.1,0.2-0.2,0.3-0.4l8.2-15c2.7,3,4.4,7,4.4,11.4C105.1,88.6,97.4,96.3,87.9,96.3z
	 M114.7,77.8h-7.2c-0.3-4.8-2.4-9.1-5.5-12.3l1.2-2.3c0.3-0.5,0.2-1.2-0.3-1.5c-0.4-0.4-1.1-0.4-1.6,0l-2.1,1.6
	c-2.9-2.1-6.4-3.4-10.1-3.6v-7.4c0-0.7-0.6-1.2-1.2-1.2s-1.2,0.6-1.2,1.2v7.4C76.9,60.2,69,68,68.3,77.8h-7.2
	c-0.7,0-1.2,0.6-1.2,1.2s0.6,1.2,1.2,1.2h7.2c0.3,4.9,2.3,9.3,5.5,12.6l-1.3,2.3c-0.3,0.5-0.2,1.2,0.3,1.5c0.2,0.2,0.5,0.3,0.8,0.3
	c0.3,0,0.5-0.1,0.8-0.2l2.1-1.6c2.9,2.1,6.4,3.4,10.1,3.6v7.1c0,0.7,0.6,1.2,1.2,1.2s1.2-0.6,1.2-1.2v-7.1
	c9.9-0.6,17.8-8.6,18.3-18.5h7.2c0.7,0,1.2-0.6,1.2-1.2S115.4,77.8,114.7,77.8z M88.8,74.4l9.4-7.2l-5.7,10.4
	C91.9,76,90.5,74.7,88.8,74.4z M90.3,79.2c0,1.3-1.1,2.4-2.4,2.4s-2.4-1.1-2.4-2.4s1.1-2.4,2.4-2.4S90.3,77.9,90.3,79.2z M75.1,90.6
	c-2.7-3-4.4-7-4.4-11.4c0-9.4,7.7-17.1,17.1-17.1c3.4,0,6.6,1,9.3,2.8L83.7,75.2c-0.1,0.1-0.2,0.2-0.3,0.4L75.1,90.6z M83.3,80.8
	c0.6,1.6,2,2.9,3.7,3.2l-9.4,7.2L83.3,80.8z M87.9,96.3c-3.4,0-6.6-1-9.3-2.8l13.5-10.4c0.1-0.1,0.2-0.2,0.3-0.4l8.2-15
	c2.7,3,4.4,7,4.4,11.4C105.1,88.6,97.4,96.3,87.9,96.3z M114.7,77.8h-7.2c-0.3-4.8-2.4-9.1-5.5-12.3l1.2-2.3
	c0.3-0.5,0.2-1.2-0.3-1.5c-0.4-0.4-1.1-0.4-1.6,0l-2.1,1.6c-2.9-2.1-6.4-3.4-10.1-3.6v-7.4c0-0.7-0.6-1.2-1.2-1.2s-1.2,0.6-1.2,1.2
	v7.4C76.9,60.2,69,68,68.3,77.8h-7.2c-0.7,0-1.2,0.6-1.2,1.2s0.6,1.2,1.2,1.2h7.2c0.3,4.9,2.3,9.3,5.5,12.6l-1.3,2.3
	c-0.3,0.5-0.2,1.2,0.3,1.5c0.2,0.2,0.5,0.3,0.8,0.3c0.3,0,0.5-0.1,0.8-0.2l2.1-1.6c2.9,2.1,6.4,3.4,10.1,3.6v7.1
	c0,0.7,0.6,1.2,1.2,1.2s1.2-0.6,1.2-1.2v-7.1c9.9-0.6,17.8-8.6,18.3-18.5h7.2c0.7,0,1.2-0.6,1.2-1.2S115.4,77.8,114.7,77.8z
	 M88.8,74.4l9.4-7.2l-5.7,10.4C91.9,76,90.5,74.7,88.8,74.4z M90.3,79.2c0,1.3-1.1,2.4-2.4,2.4s-2.4-1.1-2.4-2.4s1.1-2.4,2.4-2.4
	S90.3,77.9,90.3,79.2z M75.1,90.6c-2.7-3-4.4-7-4.4-11.4c0-9.4,7.7-17.1,17.1-17.1c3.4,0,6.6,1,9.3,2.8L83.7,75.2
	c-0.1,0.1-0.2,0.2-0.3,0.4L75.1,90.6z M83.3,80.8c0.6,1.6,2,2.9,3.7,3.2l-9.4,7.2L83.3,80.8z M87.9,96.3c-3.4,0-6.6-1-9.3-2.8
	l13.5-10.4c0.1-0.1,0.2-0.2,0.3-0.4l8.2-15c2.7,3,4.4,7,4.4,11.4C105.1,88.6,97.4,96.3,87.9,96.3z M114.7,77.8h-7.2
	c-0.3-4.8-2.4-9.1-5.5-12.3l1.2-2.3c0.3-0.5,0.2-1.2-0.3-1.5c-0.4-0.4-1.1-0.4-1.6,0l-2.1,1.6c-2.9-2.1-6.4-3.4-10.1-3.6v-7.4
	c0-0.7-0.6-1.2-1.2-1.2s-1.2,0.6-1.2,1.2v7.4C76.9,60.2,69,68,68.3,77.8h-7.2c-0.7,0-1.2,0.6-1.2,1.2s0.6,1.2,1.2,1.2h7.2
	c0.3,4.9,2.3,9.3,5.5,12.6l-1.3,2.3c-0.3,0.5-0.2,1.2,0.3,1.5c0.2,0.2,0.5,0.3,0.8,0.3c0.3,0,0.5-0.1,0.8-0.2l2.1-1.6
	c2.9,2.1,6.4,3.4,10.1,3.6v7.1c0,0.7,0.6,1.2,1.2,1.2s1.2-0.6,1.2-1.2v-7.1c9.9-0.6,17.8-8.6,18.3-18.5h7.2c0.7,0,1.2-0.6,1.2-1.2
	S115.4,77.8,114.7,77.8z M88.8,74.4l9.4-7.2l-5.7,10.4C91.9,76,90.5,74.7,88.8,74.4z M90.3,79.2c0,1.3-1.1,2.4-2.4,2.4
	s-2.4-1.1-2.4-2.4s1.1-2.4,2.4-2.4S90.3,77.9,90.3,79.2z M75.1,90.6c-2.7-3-4.4-7-4.4-11.4c0-9.4,7.7-17.1,17.1-17.1
	c3.4,0,6.6,1,9.3,2.8L83.7,75.2c-0.1,0.1-0.2,0.2-0.3,0.4L75.1,90.6z M83.3,80.8c0.6,1.6,2,2.9,3.7,3.2l-9.4,7.2L83.3,80.8z
	 M87.9,96.3c-3.4,0-6.6-1-9.3-2.8l13.5-10.4c0.1-0.1,0.2-0.2,0.3-0.4l8.2-15c2.7,3,4.4,7,4.4,11.4C105.1,88.6,97.4,96.3,87.9,96.3z
	 M114.7,77.8h-7.2c-0.3-4.8-2.4-9.1-5.5-12.3l1.2-2.3c0.3-0.5,0.2-1.2-0.3-1.5c-0.4-0.4-1.1-0.4-1.6,0l-2.1,1.6
	c-2.9-2.1-6.4-3.4-10.1-3.6v-7.4c0-0.7-0.6-1.2-1.2-1.2s-1.2,0.6-1.2,1.2v7.4C76.9,60.2,69,68,68.3,77.8h-7.2
	c-0.7,0-1.2,0.6-1.2,1.2s0.6,1.2,1.2,1.2h7.2c0.3,4.9,2.3,9.3,5.5,12.6l-1.3,2.3c-0.3,0.5-0.2,1.2,0.3,1.5c0.2,0.2,0.5,0.3,0.8,0.3
	c0.3,0,0.5-0.1,0.8-0.2l2.1-1.6c2.9,2.1,6.4,3.4,10.1,3.6v7.1c0,0.7,0.6,1.2,1.2,1.2s1.2-0.6,1.2-1.2v-7.1
	c9.9-0.6,17.8-8.6,18.3-18.5h7.2c0.7,0,1.2-0.6,1.2-1.2S115.4,77.8,114.7,77.8z M88.8,74.4l9.4-7.2l-5.7,10.4
	C91.9,76,90.5,74.7,88.8,74.4z M90.3,79.2c0,1.3-1.1,2.4-2.4,2.4s-2.4-1.1-2.4-2.4s1.1-2.4,2.4-2.4S90.3,77.9,90.3,79.2z M75.1,90.6
	c-2.7-3-4.4-7-4.4-11.4c0-9.4,7.7-17.1,17.1-17.1c3.4,0,6.6,1,9.3,2.8L83.7,75.2c-0.1,0.1-0.2,0.2-0.3,0.4L75.1,90.6z M83.3,80.8
	c0.6,1.6,2,2.9,3.7,3.2l-9.4,7.2L83.3,80.8z M87.9,96.3c-3.4,0-6.6-1-9.3-2.8l13.5-10.4c0.1-0.1,0.2-0.2,0.3-0.4l8.2-15
	c2.7,3,4.4,7,4.4,11.4C105.1,88.6,97.4,96.3,87.9,96.3z M114.7,77.8h-7.2c-0.3-4.8-2.4-9.1-5.5-12.3l1.2-2.3
	c0.3-0.5,0.2-1.2-0.3-1.5c-0.4-0.4-1.1-0.4-1.6,0l-2.1,1.6c-2.9-2.1-6.4-3.4-10.1-3.6v-7.4c0-0.7-0.6-1.2-1.2-1.2s-1.2,0.6-1.2,1.2
	v7.4C76.9,60.2,69,68,68.3,77.8h-7.2c-0.7,0-1.2,0.6-1.2,1.2s0.6,1.2,1.2,1.2h7.2c0.3,4.9,2.3,9.3,5.5,12.6l-1.3,2.3
	c-0.3,0.5-0.2,1.2,0.3,1.5c0.2,0.2,0.5,0.3,0.8,0.3c0.3,0,0.5-0.1,0.8-0.2l2.1-1.6c2.9,2.1,6.4,3.4,10.1,3.6v7.1
	c0,0.7,0.6,1.2,1.2,1.2s1.2-0.6,1.2-1.2v-7.1c9.9-0.6,17.8-8.6,18.3-18.5h7.2c0.7,0,1.2-0.6,1.2-1.2S115.4,77.8,114.7,77.8z
	 M88.8,74.4l9.4-7.2l-5.7,10.4C91.9,76,90.5,74.7,88.8,74.4z M90.3,79.2c0,1.3-1.1,2.4-2.4,2.4s-2.4-1.1-2.4-2.4s1.1-2.4,2.4-2.4
	S90.3,77.9,90.3,79.2z M75.1,90.6c-2.7-3-4.4-7-4.4-11.4c0-9.4,7.7-17.1,17.1-17.1c3.4,0,6.6,1,9.3,2.8L83.7,75.2
	c-0.1,0.1-0.2,0.2-0.3,0.4L75.1,90.6z M83.3,80.8c0.6,1.6,2,2.9,3.7,3.2l-9.4,7.2L83.3,80.8z M87.9,96.3c-3.4,0-6.6-1-9.3-2.8
	l13.5-10.4c0.1-0.1,0.2-0.2,0.3-0.4l8.2-15c2.7,3,4.4,7,4.4,11.4C105.1,88.6,97.4,96.3,87.9,96.3z M114.7,77.8h-7.2
	c-0.3-4.8-2.4-9.1-5.5-12.3l1.2-2.3c0.3-0.5,0.2-1.2-0.3-1.5c-0.4-0.4-1.1-0.4-1.6,0l-2.1,1.6c-2.9-2.1-6.4-3.4-10.1-3.6v-7.4
	c0-0.7-0.6-1.2-1.2-1.2s-1.2,0.6-1.2,1.2v7.4C76.9,60.2,69,68,68.3,77.8h-7.2c-0.7,0-1.2,0.6-1.2,1.2s0.6,1.2,1.2,1.2h7.2
	c0.3,4.9,2.3,9.3,5.5,12.6l-1.3,2.3c-0.3,0.5-0.2,1.2,0.3,1.5c0.2,0.2,0.5,0.3,0.8,0.3c0.3,0,0.5-0.1,0.8-0.2l2.1-1.6
	c2.9,2.1,6.4,3.4,10.1,3.6v7.1c0,0.7,0.6,1.2,1.2,1.2s1.2-0.6,1.2-1.2v-7.1c9.9-0.6,17.8-8.6,18.3-18.5h7.2c0.7,0,1.2-0.6,1.2-1.2
	S115.4,77.8,114.7,77.8z M88.8,74.4l9.4-7.2l-5.7,10.4C91.9,76,90.5,74.7,88.8,74.4z M90.3,79.2c0,1.3-1.1,2.4-2.4,2.4
	s-2.4-1.1-2.4-2.4s1.1-2.4,2.4-2.4S90.3,77.9,90.3,79.2z M75.1,90.6c-2.7-3-4.4-7-4.4-11.4c0-9.4,7.7-17.1,17.1-17.1
	c3.4,0,6.6,1,9.3,2.8L83.7,75.2c-0.1,0.1-0.2,0.2-0.3,0.4L75.1,90.6z M83.3,80.8c0.6,1.6,2,2.9,3.7,3.2l-9.4,7.2L83.3,80.8z
	 M87.9,96.3c-3.4,0-6.6-1-9.3-2.8l13.5-10.4c0.1-0.1,0.2-0.2,0.3-0.4l8.2-15c2.7,3,4.4,7,4.4,11.4C105.1,88.6,97.4,96.3,87.9,96.3z
	 M114.7,77.8h-7.2c-0.3-4.8-2.4-9.1-5.5-12.3l1.2-2.3c0.3-0.5,0.2-1.2-0.3-1.5c-0.4-0.4-1.1-0.4-1.6,0l-2.1,1.6
	c-2.9-2.1-6.4-3.4-10.1-3.6v-7.4c0-0.7-0.6-1.2-1.2-1.2s-1.2,0.6-1.2,1.2v7.4C76.9,60.2,69,68,68.3,77.8h-7.2
	c-0.7,0-1.2,0.6-1.2,1.2s0.6,1.2,1.2,1.2h7.2c0.3,4.9,2.3,9.3,5.5,12.6l-1.3,2.3c-0.3,0.5-0.2,1.2,0.3,1.5c0.2,0.2,0.5,0.3,0.8,0.3
	c0.3,0,0.5-0.1,0.8-0.2l2.1-1.6c2.9,2.1,6.4,3.4,10.1,3.6v7.1c0,0.7,0.6,1.2,1.2,1.2s1.2-0.6,1.2-1.2v-7.1
	c9.9-0.6,17.8-8.6,18.3-18.5h7.2c0.7,0,1.2-0.6,1.2-1.2S115.4,77.8,114.7,77.8z M88.8,74.4l9.4-7.2l-5.7,10.4
	C91.9,76,90.5,74.7,88.8,74.4z M90.3,79.2c0,1.3-1.1,2.4-2.4,2.4s-2.4-1.1-2.4-2.4s1.1-2.4,2.4-2.4S90.3,77.9,90.3,79.2z M75.1,90.6
	c-2.7-3-4.4-7-4.4-11.4c0-9.4,7.7-17.1,17.1-17.1c3.4,0,6.6,1,9.3,2.8L83.7,75.2c-0.1,0.1-0.2,0.2-0.3,0.4L75.1,90.6z M83.3,80.8
	c0.6,1.6,2,2.9,3.7,3.2l-9.4,7.2L83.3,80.8z M87.9,96.3c-3.4,0-6.6-1-9.3-2.8l13.5-10.4c0.1-0.1,0.2-0.2,0.3-0.4l8.2-15
	c2.7,3,4.4,7,4.4,11.4C105.1,88.6,97.4,96.3,87.9,96.3z M114.7,77.8h-7.2c-0.3-4.8-2.4-9.1-5.5-12.3l1.2-2.3
	c0.3-0.5,0.2-1.2-0.3-1.5c-0.4-0.4-1.1-0.4-1.6,0l-2.1,1.6c-2.9-2.1-6.4-3.4-10.1-3.6v-7.4c0-0.7-0.6-1.2-1.2-1.2s-1.2,0.6-1.2,1.2
	v7.4C76.9,60.2,69,68,68.3,77.8h-7.2c-0.7,0-1.2,0.6-1.2,1.2s0.6,1.2,1.2,1.2h7.2c0.3,4.9,2.3,9.3,5.5,12.6l-1.3,2.3
	c-0.3,0.5-0.2,1.2,0.3,1.5c0.2,0.2,0.5,0.3,0.8,0.3c0.3,0,0.5-0.1,0.8-0.2l2.1-1.6c2.9,2.1,6.4,3.4,10.1,3.6v7.1
	c0,0.7,0.6,1.2,1.2,1.2s1.2-0.6,1.2-1.2v-7.1c9.9-0.6,17.8-8.6,18.3-18.5h7.2c0.7,0,1.2-0.6,1.2-1.2S115.4,77.8,114.7,77.8z
	 M88.8,74.4l9.4-7.2l-5.7,10.4C91.9,76,90.5,74.7,88.8,74.4z M90.3,79.2c0,1.3-1.1,2.4-2.4,2.4s-2.4-1.1-2.4-2.4s1.1-2.4,2.4-2.4
	S90.3,77.9,90.3,79.2z M75.1,90.6c-2.7-3-4.4-7-4.4-11.4c0-9.4,7.7-17.1,17.1-17.1c3.4,0,6.6,1,9.3,2.8L83.7,75.2
	c-0.1,0.1-0.2,0.2-0.3,0.4L75.1,90.6z M83.3,80.8c0.6,1.6,2,2.9,3.7,3.2l-9.4,7.2L83.3,80.8z M87.9,96.3c-3.4,0-6.6-1-9.3-2.8
	l13.5-10.4c0.1-0.1,0.2-0.2,0.3-0.4l8.2-15c2.7,3,4.4,7,4.4,11.4C105.1,88.6,97.4,96.3,87.9,96.3z M114.7,77.8h-7.2
	c-0.3-4.8-2.4-9.1-5.5-12.3l1.2-2.3c0.3-0.5,0.2-1.2-0.3-1.5c-0.4-0.4-1.1-0.4-1.6,0l-2.1,1.6c-2.9-2.1-6.4-3.4-10.1-3.6v-7.4
	c0-0.7-0.6-1.2-1.2-1.2s-1.2,0.6-1.2,1.2v7.4C76.9,60.2,69,68,68.3,77.8h-7.2c-0.7,0-1.2,0.6-1.2,1.2s0.6,1.2,1.2,1.2h7.2
	c0.3,4.9,2.3,9.3,5.5,12.6l-1.3,2.3c-0.3,0.5-0.2,1.2,0.3,1.5c0.2,0.2,0.5,0.3,0.8,0.3c0.3,0,0.5-0.1,0.8-0.2l2.1-1.6
	c2.9,2.1,6.4,3.4,10.1,3.6v7.1c0,0.7,0.6,1.2,1.2,1.2s1.2-0.6,1.2-1.2v-7.1c9.9-0.6,17.8-8.6,18.3-18.5h7.2c0.7,0,1.2-0.6,1.2-1.2
	S115.4,77.8,114.7,77.8z M88.8,74.4l9.4-7.2l-5.7,10.4C91.9,76,90.5,74.7,88.8,74.4z M90.3,79.2c0,1.3-1.1,2.4-2.4,2.4
	s-2.4-1.1-2.4-2.4s1.1-2.4,2.4-2.4S90.3,77.9,90.3,79.2z M75.1,90.6c-2.7-3-4.4-7-4.4-11.4c0-9.4,7.7-17.1,17.1-17.1
	c3.4,0,6.6,1,9.3,2.8L83.7,75.2c-0.1,0.1-0.2,0.2-0.3,0.4L75.1,90.6z M83.3,80.8c0.6,1.6,2,2.9,3.7,3.2l-9.4,7.2L83.3,80.8z
	 M87.9,96.3c-3.4,0-6.6-1-9.3-2.8l13.5-10.4c0.1-0.1,0.2-0.2,0.3-0.4l8.2-15c2.7,3,4.4,7,4.4,11.4C105.1,88.6,97.4,96.3,87.9,96.3z
	 M114.7,77.8h-7.2c-0.3-4.8-2.4-9.1-5.5-12.3l1.2-2.3c0.3-0.5,0.2-1.2-0.3-1.5c-0.4-0.4-1.1-0.4-1.6,0l-2.1,1.6
	c-2.9-2.1-6.4-3.4-10.1-3.6v-7.4c0-0.7-0.6-1.2-1.2-1.2s-1.2,0.6-1.2,1.2v7.4C76.9,60.2,69,68,68.3,77.8h-7.2
	c-0.7,0-1.2,0.6-1.2,1.2s0.6,1.2,1.2,1.2h7.2c0.3,4.9,2.3,9.3,5.5,12.6l-1.3,2.3c-0.3,0.5-0.2,1.2,0.3,1.5c0.2,0.2,0.5,0.3,0.8,0.3
	c0.3,0,0.5-0.1,0.8-0.2l2.1-1.6c2.9,2.1,6.4,3.4,10.1,3.6v7.1c0,0.7,0.6,1.2,1.2,1.2s1.2-0.6,1.2-1.2v-7.1
	c9.9-0.6,17.8-8.6,18.3-18.5h7.2c0.7,0,1.2-0.6,1.2-1.2S115.4,77.8,114.7,77.8z M88.8,74.4l9.4-7.2l-5.7,10.4
	C91.9,76,90.5,74.7,88.8,74.4z M90.3,79.2c0,1.3-1.1,2.4-2.4,2.4s-2.4-1.1-2.4-2.4s1.1-2.4,2.4-2.4S90.3,77.9,90.3,79.2z M75.1,90.6
	c-2.7-3-4.4-7-4.4-11.4c0-9.4,7.7-17.1,17.1-17.1c3.4,0,6.6,1,9.3,2.8L83.7,75.2c-0.1,0.1-0.2,0.2-0.3,0.4L75.1,90.6z M83.3,80.8
	c0.6,1.6,2,2.9,3.7,3.2l-9.4,7.2L83.3,80.8z M87.9,96.3c-3.4,0-6.6-1-9.3-2.8l13.5-10.4c0.1-0.1,0.2-0.2,0.3-0.4l8.2-15
	c2.7,3,4.4,7,4.4,11.4C105.1,88.6,97.4,96.3,87.9,96.3z M114.7,77.8h-7.2c-0.3-4.8-2.4-9.1-5.5-12.3l1.2-2.3
	c0.3-0.5,0.2-1.2-0.3-1.5c-0.4-0.4-1.1-0.4-1.6,0l-2.1,1.6c-2.9-2.1-6.4-3.4-10.1-3.6v-7.4c0-0.7-0.6-1.2-1.2-1.2s-1.2,0.6-1.2,1.2
	v7.4C76.9,60.2,69,68,68.3,77.8h-7.2c-0.7,0-1.2,0.6-1.2,1.2s0.6,1.2,1.2,1.2h7.2c0.3,4.9,2.3,9.3,5.5,12.6l-1.3,2.3
	c-0.3,0.5-0.2,1.2,0.3,1.5c0.2,0.2,0.5,0.3,0.8,0.3c0.3,0,0.5-0.1,0.8-0.2l2.1-1.6c2.9,2.1,6.4,3.4,10.1,3.6v7.1
	c0,0.7,0.6,1.2,1.2,1.2s1.2-0.6,1.2-1.2v-7.1c9.9-0.6,17.8-8.6,18.3-18.5h7.2c0.7,0,1.2-0.6,1.2-1.2S115.4,77.8,114.7,77.8z
	 M88.8,74.4l9.4-7.2l-5.7,10.4C91.9,76,90.5,74.7,88.8,74.4z M90.3,79.2c0,1.3-1.1,2.4-2.4,2.4s-2.4-1.1-2.4-2.4s1.1-2.4,2.4-2.4
	S90.3,77.9,90.3,79.2z M75.1,90.6c-2.7-3-4.4-7-4.4-11.4c0-9.4,7.7-17.1,17.1-17.1c3.4,0,6.6,1,9.3,2.8L83.7,75.2
	c-0.1,0.1-0.2,0.2-0.3,0.4L75.1,90.6z M83.3,80.8c0.6,1.6,2,2.9,3.7,3.2l-9.4,7.2L83.3,80.8z M87.9,96.3c-3.4,0-6.6-1-9.3-2.8
	l13.5-10.4c0.1-0.1,0.2-0.2,0.3-0.4l8.2-15c2.7,3,4.4,7,4.4,11.4C105.1,88.6,97.4,96.3,87.9,96.3z M114.7,77.8h-7.2
	c-0.3-4.8-2.4-9.1-5.5-12.3l1.2-2.3c0.3-0.5,0.2-1.2-0.3-1.5c-0.4-0.4-1.1-0.4-1.6,0l-2.1,1.6c-2.9-2.1-6.4-3.4-10.1-3.6v-7.4
	c0-0.7-0.6-1.2-1.2-1.2s-1.2,0.6-1.2,1.2v7.4C76.9,60.2,69,68,68.3,77.8h-7.2c-0.7,0-1.2,0.6-1.2,1.2s0.6,1.2,1.2,1.2h7.2
	c0.3,4.9,2.3,9.3,5.5,12.6l-1.3,2.3c-0.3,0.5-0.2,1.2,0.3,1.5c0.2,0.2,0.5,0.3,0.8,0.3c0.3,0,0.5-0.1,0.8-0.2l2.1-1.6
	c2.9,2.1,6.4,3.4,10.1,3.6v7.1c0,0.7,0.6,1.2,1.2,1.2s1.2-0.6,1.2-1.2v-7.1c9.9-0.6,17.8-8.6,18.3-18.5h7.2c0.7,0,1.2-0.6,1.2-1.2
	S115.4,77.8,114.7,77.8z M88.8,74.4l9.4-7.2l-5.7,10.4C91.9,76,90.5,74.7,88.8,74.4z M90.3,79.2c0,1.3-1.1,2.4-2.4,2.4
	s-2.4-1.1-2.4-2.4s1.1-2.4,2.4-2.4S90.3,77.9,90.3,79.2z M75.1,90.6c-2.7-3-4.4-7-4.4-11.4c0-9.4,7.7-17.1,17.1-17.1
	c3.4,0,6.6,1,9.3,2.8L83.7,75.2c-0.1,0.1-0.2,0.2-0.3,0.4L75.1,90.6z M83.3,80.8c0.6,1.6,2,2.9,3.7,3.2l-9.4,7.2L83.3,80.8z
	 M87.9,96.3c-3.4,0-6.6-1-9.3-2.8l13.5-10.4c0.1-0.1,0.2-0.2,0.3-0.4l8.2-15c2.7,3,4.4,7,4.4,11.4C105.1,88.6,97.4,96.3,87.9,96.3z
	 M114.7,77.8h-7.2c-0.3-4.8-2.4-9.1-5.5-12.3l1.2-2.3c0.3-0.5,0.2-1.2-0.3-1.5c-0.4-0.4-1.1-0.4-1.6,0l-2.1,1.6
	c-2.9-2.1-6.4-3.4-10.1-3.6v-7.4c0-0.7-0.6-1.2-1.2-1.2s-1.2,0.6-1.2,1.2v7.4C76.9,60.2,69,68,68.3,77.8h-7.2
	c-0.7,0-1.2,0.6-1.2,1.2s0.6,1.2,1.2,1.2h7.2c0.3,4.9,2.3,9.3,5.5,12.6l-1.3,2.3c-0.3,0.5-0.2,1.2,0.3,1.5c0.2,0.2,0.5,0.3,0.8,0.3
	c0.3,0,0.5-0.1,0.8-0.2l2.1-1.6c2.9,2.1,6.4,3.4,10.1,3.6v7.1c0,0.7,0.6,1.2,1.2,1.2s1.2-0.6,1.2-1.2v-7.1
	c9.9-0.6,17.8-8.6,18.3-18.5h7.2c0.7,0,1.2-0.6,1.2-1.2S115.4,77.8,114.7,77.8z M88.8,74.4l9.4-7.2l-5.7,10.4
	C91.9,76,90.5,74.7,88.8,74.4z M90.3,79.2c0,1.3-1.1,2.4-2.4,2.4s-2.4-1.1-2.4-2.4s1.1-2.4,2.4-2.4S90.3,77.9,90.3,79.2z M75.1,90.6
	c-2.7-3-4.4-7-4.4-11.4c0-9.4,7.7-17.1,17.1-17.1c3.4,0,6.6,1,9.3,2.8L83.7,75.2c-0.1,0.1-0.2,0.2-0.3,0.4L75.1,90.6z M83.3,80.8
	c0.6,1.6,2,2.9,3.7,3.2l-9.4,7.2L83.3,80.8z M87.9,96.3c-3.4,0-6.6-1-9.3-2.8l13.5-10.4c0.1-0.1,0.2-0.2,0.3-0.4l8.2-15
	c2.7,3,4.4,7,4.4,11.4C105.1,88.6,97.4,96.3,87.9,96.3z M114.7,77.8h-7.2c-0.3-4.8-2.4-9.1-5.5-12.3l1.2-2.3
	c0.3-0.5,0.2-1.2-0.3-1.5c-0.4-0.4-1.1-0.4-1.6,0l-2.1,1.6c-2.9-2.1-6.4-3.4-10.1-3.6v-7.4c0-0.7-0.6-1.2-1.2-1.2s-1.2,0.6-1.2,1.2
	v7.4C76.9,60.2,69,68,68.3,77.8h-7.2c-0.7,0-1.2,0.6-1.2,1.2s0.6,1.2,1.2,1.2h7.2c0.3,4.9,2.3,9.3,5.5,12.6l-1.3,2.3
	c-0.3,0.5-0.2,1.2,0.3,1.5c0.2,0.2,0.5,0.3,0.8,0.3c0.3,0,0.5-0.1,0.8-0.2l2.1-1.6c2.9,2.1,6.4,3.4,10.1,3.6v7.1
	c0,0.7,0.6,1.2,1.2,1.2s1.2-0.6,1.2-1.2v-7.1c9.9-0.6,17.8-8.6,18.3-18.5h7.2c0.7,0,1.2-0.6,1.2-1.2S115.4,77.8,114.7,77.8z
	 M88.8,74.4l9.4-7.2l-5.7,10.4C91.9,76,90.5,74.7,88.8,74.4z M90.3,79.2c0,1.3-1.1,2.4-2.4,2.4s-2.4-1.1-2.4-2.4s1.1-2.4,2.4-2.4
	S90.3,77.9,90.3,79.2z M75.1,90.6c-2.7-3-4.4-7-4.4-11.4c0-9.4,7.7-17.1,17.1-17.1c3.4,0,6.6,1,9.3,2.8L83.7,75.2
	c-0.1,0.1-0.2,0.2-0.3,0.4L75.1,90.6z M83.3,80.8c0.6,1.6,2,2.9,3.7,3.2l-9.4,7.2L83.3,80.8z M87.9,96.3c-3.4,0-6.6-1-9.3-2.8
	l13.5-10.4c0.1-0.1,0.2-0.2,0.3-0.4l8.2-15c2.7,3,4.4,7,4.4,11.4C105.1,88.6,97.4,96.3,87.9,96.3z M114.7,77.8h-7.2
	c-0.3-4.8-2.4-9.1-5.5-12.3l1.2-2.3c0.3-0.5,0.2-1.2-0.3-1.5c-0.4-0.4-1.1-0.4-1.6,0l-2.1,1.6c-2.9-2.1-6.4-3.4-10.1-3.6v-7.4
	c0-0.7-0.6-1.2-1.2-1.2s-1.2,0.6-1.2,1.2v7.4C76.9,60.2,69,68,68.3,77.8h-7.2c-0.7,0-1.2,0.6-1.2,1.2s0.6,1.2,1.2,1.2h7.2
	c0.3,4.9,2.3,9.3,5.5,12.6l-1.3,2.3c-0.3,0.5-0.2,1.2,0.3,1.5c0.2,0.2,0.5,0.3,0.8,0.3c0.3,0,0.5-0.1,0.8-0.2l2.1-1.6
	c2.9,2.1,6.4,3.4,10.1,3.6v7.1c0,0.7,0.6,1.2,1.2,1.2s1.2-0.6,1.2-1.2v-7.1c9.9-0.6,17.8-8.6,18.3-18.5h7.2c0.7,0,1.2-0.6,1.2-1.2
	S115.4,77.8,114.7,77.8z M88.8,74.4l9.4-7.2l-5.7,10.4C91.9,76,90.5,74.7,88.8,74.4z M90.3,79.2c0,1.3-1.1,2.4-2.4,2.4
	s-2.4-1.1-2.4-2.4s1.1-2.4,2.4-2.4S90.3,77.9,90.3,79.2z M75.1,90.6c-2.7-3-4.4-7-4.4-11.4c0-9.4,7.7-17.1,17.1-17.1
	c3.4,0,6.6,1,9.3,2.8L83.7,75.2c-0.1,0.1-0.2,0.2-0.3,0.4L75.1,90.6z M83.3,80.8c0.6,1.6,2,2.9,3.7,3.2l-9.4,7.2L83.3,80.8z
	 M87.9,96.3c-3.4,0-6.6-1-9.3-2.8l13.5-10.4c0.1-0.1,0.2-0.2,0.3-0.4l8.2-15c2.7,3,4.4,7,4.4,11.4C105.1,88.6,97.4,96.3,87.9,96.3z
	 M114.7,77.8h-7.2c-0.3-4.8-2.4-9.1-5.5-12.3l1.2-2.3c0.3-0.5,0.2-1.2-0.3-1.5c-0.4-0.4-1.1-0.4-1.6,0l-2.1,1.6
	c-2.9-2.1-6.4-3.4-10.1-3.6v-7.4c0-0.7-0.6-1.2-1.2-1.2s-1.2,0.6-1.2,1.2v7.4C76.9,60.2,69,68,68.3,77.8h-7.2
	c-0.7,0-1.2,0.6-1.2,1.2s0.6,1.2,1.2,1.2h7.2c0.3,4.9,2.3,9.3,5.5,12.6l-1.3,2.3c-0.3,0.5-0.2,1.2,0.3,1.5c0.2,0.2,0.5,0.3,0.8,0.3
	c0.3,0,0.5-0.1,0.8-0.2l2.1-1.6c2.9,2.1,6.4,3.4,10.1,3.6v7.1c0,0.7,0.6,1.2,1.2,1.2s1.2-0.6,1.2-1.2v-7.1
	c9.9-0.6,17.8-8.6,18.3-18.5h7.2c0.7,0,1.2-0.6,1.2-1.2S115.4,77.8,114.7,77.8z M88.8,74.4l9.4-7.2l-5.7,10.4
	C91.9,76,90.5,74.7,88.8,74.4z M90.3,79.2c0,1.3-1.1,2.4-2.4,2.4s-2.4-1.1-2.4-2.4s1.1-2.4,2.4-2.4S90.3,77.9,90.3,79.2z M75.1,90.6
	c-2.7-3-4.4-7-4.4-11.4c0-9.4,7.7-17.1,17.1-17.1c3.4,0,6.6,1,9.3,2.8L83.7,75.2c-0.1,0.1-0.2,0.2-0.3,0.4L75.1,90.6z M83.3,80.8
	c0.6,1.6,2,2.9,3.7,3.2l-9.4,7.2L83.3,80.8z M87.9,96.3c-3.4,0-6.6-1-9.3-2.8l13.5-10.4c0.1-0.1,0.2-0.2,0.3-0.4l8.2-15
	c2.7,3,4.4,7,4.4,11.4C105.1,88.6,97.4,96.3,87.9,96.3z M114.7,77.8h-7.2c-0.3-4.8-2.4-9.1-5.5-12.3l1.2-2.3
	c0.3-0.5,0.2-1.2-0.3-1.5c-0.4-0.4-1.1-0.4-1.6,0l-2.1,1.6c-2.9-2.1-6.4-3.4-10.1-3.6v-7.4c0-0.7-0.6-1.2-1.2-1.2s-1.2,0.6-1.2,1.2
	v7.4C76.9,60.2,69,68,68.3,77.8h-7.2c-0.7,0-1.2,0.6-1.2,1.2s0.6,1.2,1.2,1.2h7.2c0.3,4.9,2.3,9.3,5.5,12.6l-1.3,2.3
	c-0.3,0.5-0.2,1.2,0.3,1.5c0.2,0.2,0.5,0.3,0.8,0.3c0.3,0,0.5-0.1,0.8-0.2l2.1-1.6c2.9,2.1,6.4,3.4,10.1,3.6v7.1
	c0,0.7,0.6,1.2,1.2,1.2s1.2-0.6,1.2-1.2v-7.1c9.9-0.6,17.8-8.6,18.3-18.5h7.2c0.7,0,1.2-0.6,1.2-1.2S115.4,77.8,114.7,77.8z
	 M88.8,74.4l9.4-7.2l-5.7,10.4C91.9,76,90.5,74.7,88.8,74.4z M90.3,79.2c0,1.3-1.1,2.4-2.4,2.4s-2.4-1.1-2.4-2.4s1.1-2.4,2.4-2.4
	S90.3,77.9,90.3,79.2z M75.1,90.6c-2.7-3-4.4-7-4.4-11.4c0-9.4,7.7-17.1,17.1-17.1c3.4,0,6.6,1,9.3,2.8L83.7,75.2
	c-0.1,0.1-0.2,0.2-0.3,0.4L75.1,90.6z M83.3,80.8c0.6,1.6,2,2.9,3.7,3.2l-9.4,7.2L83.3,80.8z M87.9,96.3c-3.4,0-6.6-1-9.3-2.8
	l13.5-10.4c0.1-0.1,0.2-0.2,0.3-0.4l8.2-15c2.7,3,4.4,7,4.4,11.4C105.1,88.6,97.4,96.3,87.9,96.3z M114.7,77.8h-7.2
	c-0.3-4.8-2.4-9.1-5.5-12.3l1.2-2.3c0.3-0.5,0.2-1.2-0.3-1.5c-0.4-0.4-1.1-0.4-1.6,0l-2.1,1.6c-2.9-2.1-6.4-3.4-10.1-3.6v-7.4
	c0-0.7-0.6-1.2-1.2-1.2s-1.2,0.6-1.2,1.2v7.4C76.9,60.2,69,68,68.3,77.8h-7.2c-0.7,0-1.2,0.6-1.2,1.2s0.6,1.2,1.2,1.2h7.2
	c0.3,4.9,2.3,9.3,5.5,12.6l-1.3,2.3c-0.3,0.5-0.2,1.2,0.3,1.5c0.2,0.2,0.5,0.3,0.8,0.3c0.3,0,0.5-0.1,0.8-0.2l2.1-1.6
	c2.9,2.1,6.4,3.4,10.1,3.6v7.1c0,0.7,0.6,1.2,1.2,1.2s1.2-0.6,1.2-1.2v-7.1c9.9-0.6,17.8-8.6,18.3-18.5h7.2c0.7,0,1.2-0.6,1.2-1.2
	S115.4,77.8,114.7,77.8z M88.8,74.4l9.4-7.2l-5.7,10.4C91.9,76,90.5,74.7,88.8,74.4z M90.3,79.2c0,1.3-1.1,2.4-2.4,2.4
	s-2.4-1.1-2.4-2.4s1.1-2.4,2.4-2.4S90.3,77.9,90.3,79.2z M75.1,90.6c-2.7-3-4.4-7-4.4-11.4c0-9.4,7.7-17.1,17.1-17.1
	c3.4,0,6.6,1,9.3,2.8L83.7,75.2c-0.1,0.1-0.2,0.2-0.3,0.4L75.1,90.6z M83.3,80.8c0.6,1.6,2,2.9,3.7,3.2l-9.4,7.2L83.3,80.8z
	 M87.9,96.3c-3.4,0-6.6-1-9.3-2.8l13.5-10.4c0.1-0.1,0.2-0.2,0.3-0.4l8.2-15c2.7,3,4.4,7,4.4,11.4C105.1,88.6,97.4,96.3,87.9,96.3z
	 M128.8,62.3C128.8,62.3,128.8,62.3,128.8,62.3C128.8,62.3,128.8,62.3,128.8,62.3c-2.3-5.4-5.5-10.2-9.5-14.3c0,0,0-0.1-0.1-0.1
	c0,0-0.1,0-0.1-0.1c-4-4-8.9-7.3-14.2-9.5c0,0,0,0,0,0c0,0,0,0,0,0C99.6,36.2,93.9,35,87.9,35S76.2,36.2,71,38.3c0,0,0,0,0,0
	c0,0,0,0,0,0c-5.3,2.2-10.2,5.5-14.2,9.5c0,0-0.1,0-0.1,0.1c0,0,0,0.1-0.1,0.1c-4,4-7.3,8.9-9.5,14.2c0,0,0,0,0,0c0,0,0,0,0,0
	c-2.2,5.2-3.4,10.9-3.4,16.9c0,6,1.2,11.7,3.4,16.9c0,0,0,0,0,0c0,0,0,0,0,0c2.2,5.4,5.5,10.2,9.5,14.2c0,0,0,0.1,0.1,0.1
	c0,0,0.1,0,0.1,0.1c4,4,8.9,7.3,14.2,9.5c0,0,0,0,0,0h0c5.2,2.2,10.9,3.4,16.9,3.4s11.7-1.2,16.9-3.4h0c0,0,0,0,0,0
	c5.3-2.2,10.2-5.5,14.2-9.5c0,0,0.1,0,0.1-0.1c0,0,0-0.1,0.1-0.1c4-4,7.3-8.9,9.5-14.2c0,0,0,0,0,0c0,0,0,0,0,0
	c2.2-5.2,3.4-10.9,3.4-16.9C132.1,73.2,130.9,67.5,128.8,62.3z M129.6,77.9h-7.2c-0.1-3.8-0.9-7.4-2.1-10.8l6.6-2.8
	C128.5,68.6,129.5,73.2,129.6,77.9z M125.9,62.1l-6.6,2.8c-1.5-3.4-3.6-6.5-6.1-9.1l5.1-5.1C121.4,54,124,57.8,125.9,62.1z
	 M105,41.2c4.2,1.9,8.1,4.5,11.5,7.7l-5.1,5.1c-2.7-2.5-5.8-4.6-9.1-6.1L105,41.2z M89.2,37.5c4.8,0.1,9.3,1.1,13.5,2.7l-2.8,6.7
	c-3.4-1.3-7-2-10.8-2.1V37.5z M86.7,37.5v7.2c-3.8,0.1-7.4,0.9-10.8,2.1l-2.8-6.7C77.3,38.6,81.9,37.6,86.7,37.5z M70.8,41.2
	l2.8,6.7c-3.4,1.5-6.5,3.6-9.2,6.1l-5.1-5.1C62.7,45.7,66.6,43.1,70.8,41.2z M57.6,50.6l5.1,5.1c-2.5,2.7-4.6,5.8-6.1,9.1l-6.6-2.8
	C51.8,57.8,54.4,54,57.6,50.6z M48.9,64.4l6.7,2.8c-1.3,3.4-2,7-2.1,10.8h-7.2C46.4,73.2,47.3,68.6,48.9,64.4z M46.2,80.4h7.2
	c0.1,3.8,0.9,7.4,2.1,10.8L48.9,94C47.3,89.8,46.4,85.2,46.2,80.4z M49.9,96.3l6.6-2.8c1.5,3.4,3.6,6.5,6.1,9.1l-5.1,5.1
	C54.4,104.4,51.8,100.5,49.9,96.3z M70.8,117.2c-4.2-1.9-8.1-4.5-11.5-7.7l5.1-5.1c2.7,2.5,5.8,4.6,9.2,6.1L70.8,117.2z M86.7,120.9
	c-4.8-0.1-9.3-1.1-13.5-2.7l2.8-6.6c3.4,1.3,7,2,10.8,2.1V120.9z M55.9,79.2c0-17.7,14.4-32,32-32c17.7,0,32,14.4,32,32
	c0,17.7-14.4,32-32,32C70.3,111.2,55.9,96.9,55.9,79.2z M89.2,120.9v-7.2c3.8-0.1,7.4-0.9,10.8-2.1l2.8,6.6
	C98.5,119.8,93.9,120.7,89.2,120.9z M105,117.2l-2.8-6.7c3.4-1.5,6.5-3.6,9.1-6.1l5.1,5.1C113.1,112.7,109.3,115.3,105,117.2z
	 M118.3,107.8l-5.1-5.1c2.5-2.7,4.6-5.8,6.1-9.1l6.6,2.8C124,100.5,121.4,104.4,118.3,107.8z M126.9,94l-6.6-2.8
	c1.3-3.4,2-7,2.1-10.8h7.2C129.5,85.2,128.5,89.8,126.9,94z M116,79c0-0.7-0.6-1.2-1.2-1.2h-7.2c-0.3-4.8-2.4-9.1-5.5-12.3l1.2-2.3
	c0.3-0.5,0.2-1.2-0.3-1.5c-0.4-0.4-1.1-0.4-1.6,0l-2.1,1.6c-2.9-2.1-6.4-3.4-10.1-3.6v-7.4c0-0.7-0.6-1.2-1.2-1.2s-1.2,0.6-1.2,1.2
	v7.4C76.9,60.2,69,68,68.3,77.8h-7.2c-0.7,0-1.2,0.6-1.2,1.2s0.6,1.2,1.2,1.2h7.2c0.3,4.9,2.3,9.3,5.5,12.6l-1.3,2.3
	c-0.3,0.5-0.2,1.2,0.3,1.5c0.2,0.2,0.5,0.3,0.8,0.3c0.3,0,0.5-0.1,0.8-0.2l2.1-1.6c2.9,2.1,6.4,3.4,10.1,3.6v7.1
	c0,0.7,0.6,1.2,1.2,1.2s1.2-0.6,1.2-1.2v-7.1c9.9-0.6,17.8-8.6,18.3-18.5h7.2C115.4,80.3,116,79.7,116,79z M88.8,74.4l9.4-7.2
	l-5.7,10.4C91.9,76,90.5,74.7,88.8,74.4z M90.3,79.2c0,1.3-1.1,2.4-2.4,2.4s-2.4-1.1-2.4-2.4s1.1-2.4,2.4-2.4S90.3,77.9,90.3,79.2z
	 M75.1,90.6c-2.7-3-4.4-7-4.4-11.4c0-9.4,7.7-17.1,17.1-17.1c3.4,0,6.6,1,9.3,2.8L83.7,75.2c-0.1,0.1-0.2,0.2-0.3,0.4L75.1,90.6z
	 M83.3,80.8c0.6,1.6,2,2.9,3.7,3.2l-9.4,7.2L83.3,80.8z M87.9,96.3c-3.4,0-6.6-1-9.3-2.8l13.5-10.4c0.1-0.1,0.2-0.2,0.3-0.4l8.2-15
	c2.7,3,4.4,7,4.4,11.4C105.1,88.6,97.4,96.3,87.9,96.3z M114.7,77.8h-7.2c-0.3-4.8-2.4-9.1-5.5-12.3l1.2-2.3
	c0.3-0.5,0.2-1.2-0.3-1.5c-0.4-0.4-1.1-0.4-1.6,0l-2.1,1.6c-2.9-2.1-6.4-3.4-10.1-3.6v-7.4c0-0.7-0.6-1.2-1.2-1.2s-1.2,0.6-1.2,1.2
	v7.4C76.9,60.2,69,68,68.3,77.8h-7.2c-0.7,0-1.2,0.6-1.2,1.2s0.6,1.2,1.2,1.2h7.2c0.3,4.9,2.3,9.3,5.5,12.6l-1.3,2.3
	c-0.3,0.5-0.2,1.2,0.3,1.5c0.2,0.2,0.5,0.3,0.8,0.3c0.3,0,0.5-0.1,0.8-0.2l2.1-1.6c2.9,2.1,6.4,3.4,10.1,3.6v7.1
	c0,0.7,0.6,1.2,1.2,1.2s1.2-0.6,1.2-1.2v-7.1c9.9-0.6,17.8-8.6,18.3-18.5h7.2c0.7,0,1.2-0.6,1.2-1.2S115.4,77.8,114.7,77.8z
	 M88.8,74.4l9.4-7.2l-5.7,10.4C91.9,76,90.5,74.7,88.8,74.4z M90.3,79.2c0,1.3-1.1,2.4-2.4,2.4s-2.4-1.1-2.4-2.4s1.1-2.4,2.4-2.4
	S90.3,77.9,90.3,79.2z M75.1,90.6c-2.7-3-4.4-7-4.4-11.4c0-9.4,7.7-17.1,17.1-17.1c3.4,0,6.6,1,9.3,2.8L83.7,75.2
	c-0.1,0.1-0.2,0.2-0.3,0.4L75.1,90.6z M83.3,80.8c0.6,1.6,2,2.9,3.7,3.2l-9.4,7.2L83.3,80.8z M87.9,96.3c-3.4,0-6.6-1-9.3-2.8
	l13.5-10.4c0.1-0.1,0.2-0.2,0.3-0.4l8.2-15c2.7,3,4.4,7,4.4,11.4C105.1,88.6,97.4,96.3,87.9,96.3z M114.7,77.8h-7.2
	c-0.3-4.8-2.4-9.1-5.5-12.3l1.2-2.3c0.3-0.5,0.2-1.2-0.3-1.5c-0.4-0.4-1.1-0.4-1.6,0l-2.1,1.6c-2.9-2.1-6.4-3.4-10.1-3.6v-7.4
	c0-0.7-0.6-1.2-1.2-1.2s-1.2,0.6-1.2,1.2v7.4C76.9,60.2,69,68,68.3,77.8h-7.2c-0.7,0-1.2,0.6-1.2,1.2s0.6,1.2,1.2,1.2h7.2
	c0.3,4.9,2.3,9.3,5.5,12.6l-1.3,2.3c-0.3,0.5-0.2,1.2,0.3,1.5c0.2,0.2,0.5,0.3,0.8,0.3c0.3,0,0.5-0.1,0.8-0.2l2.1-1.6
	c2.9,2.1,6.4,3.4,10.1,3.6v7.1c0,0.7,0.6,1.2,1.2,1.2s1.2-0.6,1.2-1.2v-7.1c9.9-0.6,17.8-8.6,18.3-18.5h7.2c0.7,0,1.2-0.6,1.2-1.2
	S115.4,77.8,114.7,77.8z M88.8,74.4l9.4-7.2l-5.7,10.4C91.9,76,90.5,74.7,88.8,74.4z M90.3,79.2c0,1.3-1.1,2.4-2.4,2.4
	s-2.4-1.1-2.4-2.4s1.1-2.4,2.4-2.4S90.3,77.9,90.3,79.2z M75.1,90.6c-2.7-3-4.4-7-4.4-11.4c0-9.4,7.7-17.1,17.1-17.1
	c3.4,0,6.6,1,9.3,2.8L83.7,75.2c-0.1,0.1-0.2,0.2-0.3,0.4L75.1,90.6z M83.3,80.8c0.6,1.6,2,2.9,3.7,3.2l-9.4,7.2L83.3,80.8z
	 M87.9,96.3c-3.4,0-6.6-1-9.3-2.8l13.5-10.4c0.1-0.1,0.2-0.2,0.3-0.4l8.2-15c2.7,3,4.4,7,4.4,11.4C105.1,88.6,97.4,96.3,87.9,96.3z
	 M114.7,77.8h-7.2c-0.3-4.8-2.4-9.1-5.5-12.3l1.2-2.3c0.3-0.5,0.2-1.2-0.3-1.5c-0.4-0.4-1.1-0.4-1.6,0l-2.1,1.6
	c-2.9-2.1-6.4-3.4-10.1-3.6v-7.4c0-0.7-0.6-1.2-1.2-1.2s-1.2,0.6-1.2,1.2v7.4C76.9,60.2,69,68,68.3,77.8h-7.2
	c-0.7,0-1.2,0.6-1.2,1.2s0.6,1.2,1.2,1.2h7.2c0.3,4.9,2.3,9.3,5.5,12.6l-1.3,2.3c-0.3,0.5-0.2,1.2,0.3,1.5c0.2,0.2,0.5,0.3,0.8,0.3
	c0.3,0,0.5-0.1,0.8-0.2l2.1-1.6c2.9,2.1,6.4,3.4,10.1,3.6v7.1c0,0.7,0.6,1.2,1.2,1.2s1.2-0.6,1.2-1.2v-7.1
	c9.9-0.6,17.8-8.6,18.3-18.5h7.2c0.7,0,1.2-0.6,1.2-1.2S115.4,77.8,114.7,77.8z M88.8,74.4l9.4-7.2l-5.7,10.4
	C91.9,76,90.5,74.7,88.8,74.4z M90.3,79.2c0,1.3-1.1,2.4-2.4,2.4s-2.4-1.1-2.4-2.4s1.1-2.4,2.4-2.4S90.3,77.9,90.3,79.2z M75.1,90.6
	c-2.7-3-4.4-7-4.4-11.4c0-9.4,7.7-17.1,17.1-17.1c3.4,0,6.6,1,9.3,2.8L83.7,75.2c-0.1,0.1-0.2,0.2-0.3,0.4L75.1,90.6z M83.3,80.8
	c0.6,1.6,2,2.9,3.7,3.2l-9.4,7.2L83.3,80.8z M87.9,96.3c-3.4,0-6.6-1-9.3-2.8l13.5-10.4c0.1-0.1,0.2-0.2,0.3-0.4l8.2-15
	c2.7,3,4.4,7,4.4,11.4C105.1,88.6,97.4,96.3,87.9,96.3z M114.7,77.8h-7.2c-0.3-4.8-2.4-9.1-5.5-12.3l1.2-2.3
	c0.3-0.5,0.2-1.2-0.3-1.5c-0.4-0.4-1.1-0.4-1.6,0l-2.1,1.6c-2.9-2.1-6.4-3.4-10.1-3.6v-7.4c0-0.7-0.6-1.2-1.2-1.2s-1.2,0.6-1.2,1.2
	v7.4C76.9,60.2,69,68,68.3,77.8h-7.2c-0.7,0-1.2,0.6-1.2,1.2s0.6,1.2,1.2,1.2h7.2c0.3,4.9,2.3,9.3,5.5,12.6l-1.3,2.3
	c-0.3,0.5-0.2,1.2,0.3,1.5c0.2,0.2,0.5,0.3,0.8,0.3c0.3,0,0.5-0.1,0.8-0.2l2.1-1.6c2.9,2.1,6.4,3.4,10.1,3.6v7.1
	c0,0.7,0.6,1.2,1.2,1.2s1.2-0.6,1.2-1.2v-7.1c9.9-0.6,17.8-8.6,18.3-18.5h7.2c0.7,0,1.2-0.6,1.2-1.2S115.4,77.8,114.7,77.8z
	 M88.8,74.4l9.4-7.2l-5.7,10.4C91.9,76,90.5,74.7,88.8,74.4z M90.3,79.2c0,1.3-1.1,2.4-2.4,2.4s-2.4-1.1-2.4-2.4s1.1-2.4,2.4-2.4
	S90.3,77.9,90.3,79.2z M75.1,90.6c-2.7-3-4.4-7-4.4-11.4c0-9.4,7.7-17.1,17.1-17.1c3.4,0,6.6,1,9.3,2.8L83.7,75.2
	c-0.1,0.1-0.2,0.2-0.3,0.4L75.1,90.6z M83.3,80.8c0.6,1.6,2,2.9,3.7,3.2l-9.4,7.2L83.3,80.8z M87.9,96.3c-3.4,0-6.6-1-9.3-2.8
	l13.5-10.4c0.1-0.1,0.2-0.2,0.3-0.4l8.2-15c2.7,3,4.4,7,4.4,11.4C105.1,88.6,97.4,96.3,87.9,96.3z M114.7,77.8h-7.2
	c-0.3-4.8-2.4-9.1-5.5-12.3l1.2-2.3c0.3-0.5,0.2-1.2-0.3-1.5c-0.4-0.4-1.1-0.4-1.6,0l-2.1,1.6c-2.9-2.1-6.4-3.4-10.1-3.6v-7.4
	c0-0.7-0.6-1.2-1.2-1.2s-1.2,0.6-1.2,1.2v7.4C76.9,60.2,69,68,68.3,77.8h-7.2c-0.7,0-1.2,0.6-1.2,1.2s0.6,1.2,1.2,1.2h7.2
	c0.3,4.9,2.3,9.3,5.5,12.6l-1.3,2.3c-0.3,0.5-0.2,1.2,0.3,1.5c0.2,0.2,0.5,0.3,0.8,0.3c0.3,0,0.5-0.1,0.8-0.2l2.1-1.6
	c2.9,2.1,6.4,3.4,10.1,3.6v7.1c0,0.7,0.6,1.2,1.2,1.2s1.2-0.6,1.2-1.2v-7.1c9.9-0.6,17.8-8.6,18.3-18.5h7.2c0.7,0,1.2-0.6,1.2-1.2
	S115.4,77.8,114.7,77.8z M88.8,74.4l9.4-7.2l-5.7,10.4C91.9,76,90.5,74.7,88.8,74.4z M90.3,79.2c0,1.3-1.1,2.4-2.4,2.4
	s-2.4-1.1-2.4-2.4s1.1-2.4,2.4-2.4S90.3,77.9,90.3,79.2z M75.1,90.6c-2.7-3-4.4-7-4.4-11.4c0-9.4,7.7-17.1,17.1-17.1
	c3.4,0,6.6,1,9.3,2.8L83.7,75.2c-0.1,0.1-0.2,0.2-0.3,0.4L75.1,90.6z M83.3,80.8c0.6,1.6,2,2.9,3.7,3.2l-9.4,7.2L83.3,80.8z
	 M87.9,96.3c-3.4,0-6.6-1-9.3-2.8l13.5-10.4c0.1-0.1,0.2-0.2,0.3-0.4l8.2-15c2.7,3,4.4,7,4.4,11.4C105.1,88.6,97.4,96.3,87.9,96.3z
	 M114.7,77.8h-7.2c-0.3-4.8-2.4-9.1-5.5-12.3l1.2-2.3c0.3-0.5,0.2-1.2-0.3-1.5c-0.4-0.4-1.1-0.4-1.6,0l-2.1,1.6
	c-2.9-2.1-6.4-3.4-10.1-3.6v-7.4c0-0.7-0.6-1.2-1.2-1.2s-1.2,0.6-1.2,1.2v7.4C76.9,60.2,69,68,68.3,77.8h-7.2
	c-0.7,0-1.2,0.6-1.2,1.2s0.6,1.2,1.2,1.2h7.2c0.3,4.9,2.3,9.3,5.5,12.6l-1.3,2.3c-0.3,0.5-0.2,1.2,0.3,1.5c0.2,0.2,0.5,0.3,0.8,0.3
	c0.3,0,0.5-0.1,0.8-0.2l2.1-1.6c2.9,2.1,6.4,3.4,10.1,3.6v7.1c0,0.7,0.6,1.2,1.2,1.2s1.2-0.6,1.2-1.2v-7.1
	c9.9-0.6,17.8-8.6,18.3-18.5h7.2c0.7,0,1.2-0.6,1.2-1.2S115.4,77.8,114.7,77.8z M88.8,74.4l9.4-7.2l-5.7,10.4
	C91.9,76,90.5,74.7,88.8,74.4z M90.3,79.2c0,1.3-1.1,2.4-2.4,2.4s-2.4-1.1-2.4-2.4s1.1-2.4,2.4-2.4S90.3,77.9,90.3,79.2z M75.1,90.6
	c-2.7-3-4.4-7-4.4-11.4c0-9.4,7.7-17.1,17.1-17.1c3.4,0,6.6,1,9.3,2.8L83.7,75.2c-0.1,0.1-0.2,0.2-0.3,0.4L75.1,90.6z M83.3,80.8
	c0.6,1.6,2,2.9,3.7,3.2l-9.4,7.2L83.3,80.8z M87.9,96.3c-3.4,0-6.6-1-9.3-2.8l13.5-10.4c0.1-0.1,0.2-0.2,0.3-0.4l8.2-15
	c2.7,3,4.4,7,4.4,11.4C105.1,88.6,97.4,96.3,87.9,96.3z M114.7,77.8h-7.2c-0.3-4.8-2.4-9.1-5.5-12.3l1.2-2.3
	c0.3-0.5,0.2-1.2-0.3-1.5c-0.4-0.4-1.1-0.4-1.6,0l-2.1,1.6c-2.9-2.1-6.4-3.4-10.1-3.6v-7.4c0-0.7-0.6-1.2-1.2-1.2s-1.2,0.6-1.2,1.2
	v7.4C76.9,60.2,69,68,68.3,77.8h-7.2c-0.7,0-1.2,0.6-1.2,1.2s0.6,1.2,1.2,1.2h7.2c0.3,4.9,2.3,9.3,5.5,12.6l-1.3,2.3
	c-0.3,0.5-0.2,1.2,0.3,1.5c0.2,0.2,0.5,0.3,0.8,0.3c0.3,0,0.5-0.1,0.8-0.2l2.1-1.6c2.9,2.1,6.4,3.4,10.1,3.6v7.1
	c0,0.7,0.6,1.2,1.2,1.2s1.2-0.6,1.2-1.2v-7.1c9.9-0.6,17.8-8.6,18.3-18.5h7.2c0.7,0,1.2-0.6,1.2-1.2S115.4,77.8,114.7,77.8z
	 M88.8,74.4l9.4-7.2l-5.7,10.4C91.9,76,90.5,74.7,88.8,74.4z M90.3,79.2c0,1.3-1.1,2.4-2.4,2.4s-2.4-1.1-2.4-2.4s1.1-2.4,2.4-2.4
	S90.3,77.9,90.3,79.2z M75.1,90.6c-2.7-3-4.4-7-4.4-11.4c0-9.4,7.7-17.1,17.1-17.1c3.4,0,6.6,1,9.3,2.8L83.7,75.2
	c-0.1,0.1-0.2,0.2-0.3,0.4L75.1,90.6z M83.3,80.8c0.6,1.6,2,2.9,3.7,3.2l-9.4,7.2L83.3,80.8z M87.9,96.3c-3.4,0-6.6-1-9.3-2.8
	l13.5-10.4c0.1-0.1,0.2-0.2,0.3-0.4l8.2-15c2.7,3,4.4,7,4.4,11.4C105.1,88.6,97.4,96.3,87.9,96.3z M114.7,77.8h-7.2
	c-0.3-4.8-2.4-9.1-5.5-12.3l1.2-2.3c0.3-0.5,0.2-1.2-0.3-1.5c-0.4-0.4-1.1-0.4-1.6,0l-2.1,1.6c-2.9-2.1-6.4-3.4-10.1-3.6v-7.4
	c0-0.7-0.6-1.2-1.2-1.2s-1.2,0.6-1.2,1.2v7.4C76.9,60.2,69,68,68.3,77.8h-7.2c-0.7,0-1.2,0.6-1.2,1.2s0.6,1.2,1.2,1.2h7.2
	c0.3,4.9,2.3,9.3,5.5,12.6l-1.3,2.3c-0.3,0.5-0.2,1.2,0.3,1.5c0.2,0.2,0.5,0.3,0.8,0.3c0.3,0,0.5-0.1,0.8-0.2l2.1-1.6
	c2.9,2.1,6.4,3.4,10.1,3.6v7.1c0,0.7,0.6,1.2,1.2,1.2s1.2-0.6,1.2-1.2v-7.1c9.9-0.6,17.8-8.6,18.3-18.5h7.2c0.7,0,1.2-0.6,1.2-1.2
	S115.4,77.8,114.7,77.8z M88.8,74.4l9.4-7.2l-5.7,10.4C91.9,76,90.5,74.7,88.8,74.4z M90.3,79.2c0,1.3-1.1,2.4-2.4,2.4
	s-2.4-1.1-2.4-2.4s1.1-2.4,2.4-2.4S90.3,77.9,90.3,79.2z M75.1,90.6c-2.7-3-4.4-7-4.4-11.4c0-9.4,7.7-17.1,17.1-17.1
	c3.4,0,6.6,1,9.3,2.8L83.7,75.2c-0.1,0.1-0.2,0.2-0.3,0.4L75.1,90.6z M83.3,80.8c0.6,1.6,2,2.9,3.7,3.2l-9.4,7.2L83.3,80.8z
	 M87.9,96.3c-3.4,0-6.6-1-9.3-2.8l13.5-10.4c0.1-0.1,0.2-0.2,0.3-0.4l8.2-15c2.7,3,4.4,7,4.4,11.4C105.1,88.6,97.4,96.3,87.9,96.3z
	 M114.7,77.8h-7.2c-0.3-4.8-2.4-9.1-5.5-12.3l1.2-2.3c0.3-0.5,0.2-1.2-0.3-1.5c-0.4-0.4-1.1-0.4-1.6,0l-2.1,1.6
	c-2.9-2.1-6.4-3.4-10.1-3.6v-7.4c0-0.7-0.6-1.2-1.2-1.2s-1.2,0.6-1.2,1.2v7.4C76.9,60.2,69,68,68.3,77.8h-7.2
	c-0.7,0-1.2,0.6-1.2,1.2s0.6,1.2,1.2,1.2h7.2c0.3,4.9,2.3,9.3,5.5,12.6l-1.3,2.3c-0.3,0.5-0.2,1.2,0.3,1.5c0.2,0.2,0.5,0.3,0.8,0.3
	c0.3,0,0.5-0.1,0.8-0.2l2.1-1.6c2.9,2.1,6.4,3.4,10.1,3.6v7.1c0,0.7,0.6,1.2,1.2,1.2s1.2-0.6,1.2-1.2v-7.1
	c9.9-0.6,17.8-8.6,18.3-18.5h7.2c0.7,0,1.2-0.6,1.2-1.2S115.4,77.8,114.7,77.8z M88.8,74.4l9.4-7.2l-5.7,10.4
	C91.9,76,90.5,74.7,88.8,74.4z M90.3,79.2c0,1.3-1.1,2.4-2.4,2.4s-2.4-1.1-2.4-2.4s1.1-2.4,2.4-2.4S90.3,77.9,90.3,79.2z M75.1,90.6
	c-2.7-3-4.4-7-4.4-11.4c0-9.4,7.7-17.1,17.1-17.1c3.4,0,6.6,1,9.3,2.8L83.7,75.2c-0.1,0.1-0.2,0.2-0.3,0.4L75.1,90.6z M83.3,80.8
	c0.6,1.6,2,2.9,3.7,3.2l-9.4,7.2L83.3,80.8z M87.9,96.3c-3.4,0-6.6-1-9.3-2.8l13.5-10.4c0.1-0.1,0.2-0.2,0.3-0.4l8.2-15
	c2.7,3,4.4,7,4.4,11.4C105.1,88.6,97.4,96.3,87.9,96.3z M114.7,77.8h-7.2c-0.3-4.8-2.4-9.1-5.5-12.3l1.2-2.3
	c0.3-0.5,0.2-1.2-0.3-1.5c-0.4-0.4-1.1-0.4-1.6,0l-2.1,1.6c-2.9-2.1-6.4-3.4-10.1-3.6v-7.4c0-0.7-0.6-1.2-1.2-1.2s-1.2,0.6-1.2,1.2
	v7.4C76.9,60.2,69,68,68.3,77.8h-7.2c-0.7,0-1.2,0.6-1.2,1.2s0.6,1.2,1.2,1.2h7.2c0.3,4.9,2.3,9.3,5.5,12.6l-1.3,2.3
	c-0.3,0.5-0.2,1.2,0.3,1.5c0.2,0.2,0.5,0.3,0.8,0.3c0.3,0,0.5-0.1,0.8-0.2l2.1-1.6c2.9,2.1,6.4,3.4,10.1,3.6v7.1
	c0,0.7,0.6,1.2,1.2,1.2s1.2-0.6,1.2-1.2v-7.1c9.9-0.6,17.8-8.6,18.3-18.5h7.2c0.7,0,1.2-0.6,1.2-1.2S115.4,77.8,114.7,77.8z
	 M88.8,74.4l9.4-7.2l-5.7,10.4C91.9,76,90.5,74.7,88.8,74.4z M90.3,79.2c0,1.3-1.1,2.4-2.4,2.4s-2.4-1.1-2.4-2.4s1.1-2.4,2.4-2.4
	S90.3,77.9,90.3,79.2z M75.1,90.6c-2.7-3-4.4-7-4.4-11.4c0-9.4,7.7-17.1,17.1-17.1c3.4,0,6.6,1,9.3,2.8L83.7,75.2
	c-0.1,0.1-0.2,0.2-0.3,0.4L75.1,90.6z M83.3,80.8c0.6,1.6,2,2.9,3.7,3.2l-9.4,7.2L83.3,80.8z M87.9,96.3c-3.4,0-6.6-1-9.3-2.8
	l13.5-10.4c0.1-0.1,0.2-0.2,0.3-0.4l8.2-15c2.7,3,4.4,7,4.4,11.4C105.1,88.6,97.4,96.3,87.9,96.3z M114.7,77.8h-7.2
	c-0.3-4.8-2.4-9.1-5.5-12.3l1.2-2.3c0.3-0.5,0.2-1.2-0.3-1.5c-0.4-0.4-1.1-0.4-1.6,0l-2.1,1.6c-2.9-2.1-6.4-3.4-10.1-3.6v-7.4
	c0-0.7-0.6-1.2-1.2-1.2s-1.2,0.6-1.2,1.2v7.4C76.9,60.2,69,68,68.3,77.8h-7.2c-0.7,0-1.2,0.6-1.2,1.2s0.6,1.2,1.2,1.2h7.2
	c0.3,4.9,2.3,9.3,5.5,12.6l-1.3,2.3c-0.3,0.5-0.2,1.2,0.3,1.5c0.2,0.2,0.5,0.3,0.8,0.3c0.3,0,0.5-0.1,0.8-0.2l2.1-1.6
	c2.9,2.1,6.4,3.4,10.1,3.6v7.1c0,0.7,0.6,1.2,1.2,1.2s1.2-0.6,1.2-1.2v-7.1c9.9-0.6,17.8-8.6,18.3-18.5h7.2c0.7,0,1.2-0.6,1.2-1.2
	S115.4,77.8,114.7,77.8z M88.8,74.4l9.4-7.2l-5.7,10.4C91.9,76,90.5,74.7,88.8,74.4z M90.3,79.2c0,1.3-1.1,2.4-2.4,2.4
	s-2.4-1.1-2.4-2.4s1.1-2.4,2.4-2.4S90.3,77.9,90.3,79.2z M75.1,90.6c-2.7-3-4.4-7-4.4-11.4c0-9.4,7.7-17.1,17.1-17.1
	c3.4,0,6.6,1,9.3,2.8L83.7,75.2c-0.1,0.1-0.2,0.2-0.3,0.4L75.1,90.6z M83.3,80.8c0.6,1.6,2,2.9,3.7,3.2l-9.4,7.2L83.3,80.8z
	 M87.9,96.3c-3.4,0-6.6-1-9.3-2.8l13.5-10.4c0.1-0.1,0.2-0.2,0.3-0.4l8.2-15c2.7,3,4.4,7,4.4,11.4C105.1,88.6,97.4,96.3,87.9,96.3z
	 M114.7,77.8h-7.2c-0.3-4.8-2.4-9.1-5.5-12.3l1.2-2.3c0.3-0.5,0.2-1.2-0.3-1.5c-0.4-0.4-1.1-0.4-1.6,0l-2.1,1.6
	c-2.9-2.1-6.4-3.4-10.1-3.6v-7.4c0-0.7-0.6-1.2-1.2-1.2s-1.2,0.6-1.2,1.2v7.4C76.9,60.2,69,68,68.3,77.8h-7.2
	c-0.7,0-1.2,0.6-1.2,1.2s0.6,1.2,1.2,1.2h7.2c0.3,4.9,2.3,9.3,5.5,12.6l-1.3,2.3c-0.3,0.5-0.2,1.2,0.3,1.5c0.2,0.2,0.5,0.3,0.8,0.3
	c0.3,0,0.5-0.1,0.8-0.2l2.1-1.6c2.9,2.1,6.4,3.4,10.1,3.6v7.1c0,0.7,0.6,1.2,1.2,1.2s1.2-0.6,1.2-1.2v-7.1
	c9.9-0.6,17.8-8.6,18.3-18.5h7.2c0.7,0,1.2-0.6,1.2-1.2S115.4,77.8,114.7,77.8z M88.8,74.4l9.4-7.2l-5.7,10.4
	C91.9,76,90.5,74.7,88.8,74.4z M90.3,79.2c0,1.3-1.1,2.4-2.4,2.4s-2.4-1.1-2.4-2.4s1.1-2.4,2.4-2.4S90.3,77.9,90.3,79.2z M75.1,90.6
	c-2.7-3-4.4-7-4.4-11.4c0-9.4,7.7-17.1,17.1-17.1c3.4,0,6.6,1,9.3,2.8L83.7,75.2c-0.1,0.1-0.2,0.2-0.3,0.4L75.1,90.6z M83.3,80.8
	c0.6,1.6,2,2.9,3.7,3.2l-9.4,7.2L83.3,80.8z M87.9,96.3c-3.4,0-6.6-1-9.3-2.8l13.5-10.4c0.1-0.1,0.2-0.2,0.3-0.4l8.2-15
	c2.7,3,4.4,7,4.4,11.4C105.1,88.6,97.4,96.3,87.9,96.3z M114.7,77.8h-7.2c-0.3-4.8-2.4-9.1-5.5-12.3l1.2-2.3
	c0.3-0.5,0.2-1.2-0.3-1.5c-0.4-0.4-1.1-0.4-1.6,0l-2.1,1.6c-2.9-2.1-6.4-3.4-10.1-3.6v-7.4c0-0.7-0.6-1.2-1.2-1.2s-1.2,0.6-1.2,1.2
	v7.4C76.9,60.2,69,68,68.3,77.8h-7.2c-0.7,0-1.2,0.6-1.2,1.2s0.6,1.2,1.2,1.2h7.2c0.3,4.9,2.3,9.3,5.5,12.6l-1.3,2.3
	c-0.3,0.5-0.2,1.2,0.3,1.5c0.2,0.2,0.5,0.3,0.8,0.3c0.3,0,0.5-0.1,0.8-0.2l2.1-1.6c2.9,2.1,6.4,3.4,10.1,3.6v7.1
	c0,0.7,0.6,1.2,1.2,1.2s1.2-0.6,1.2-1.2v-7.1c9.9-0.6,17.8-8.6,18.3-18.5h7.2c0.7,0,1.2-0.6,1.2-1.2S115.4,77.8,114.7,77.8z
	 M88.8,74.4l9.4-7.2l-5.7,10.4C91.9,76,90.5,74.7,88.8,74.4z M90.3,79.2c0,1.3-1.1,2.4-2.4,2.4s-2.4-1.1-2.4-2.4s1.1-2.4,2.4-2.4
	S90.3,77.9,90.3,79.2z M75.1,90.6c-2.7-3-4.4-7-4.4-11.4c0-9.4,7.7-17.1,17.1-17.1c3.4,0,6.6,1,9.3,2.8L83.7,75.2
	c-0.1,0.1-0.2,0.2-0.3,0.4L75.1,90.6z M83.3,80.8c0.6,1.6,2,2.9,3.7,3.2l-9.4,7.2L83.3,80.8z M87.9,96.3c-3.4,0-6.6-1-9.3-2.8
	l13.5-10.4c0.1-0.1,0.2-0.2,0.3-0.4l8.2-15c2.7,3,4.4,7,4.4,11.4C105.1,88.6,97.4,96.3,87.9,96.3z M114.7,77.8h-7.2
	c-0.3-4.8-2.4-9.1-5.5-12.3l1.2-2.3c0.3-0.5,0.2-1.2-0.3-1.5c-0.4-0.4-1.1-0.4-1.6,0l-2.1,1.6c-2.9-2.1-6.4-3.4-10.1-3.6v-7.4
	c0-0.7-0.6-1.2-1.2-1.2s-1.2,0.6-1.2,1.2v7.4C76.9,60.2,69,68,68.3,77.8h-7.2c-0.7,0-1.2,0.6-1.2,1.2s0.6,1.2,1.2,1.2h7.2
	c0.3,4.9,2.3,9.3,5.5,12.6l-1.3,2.3c-0.3,0.5-0.2,1.2,0.3,1.5c0.2,0.2,0.5,0.3,0.8,0.3c0.3,0,0.5-0.1,0.8-0.2l2.1-1.6
	c2.9,2.1,6.4,3.4,10.1,3.6v7.1c0,0.7,0.6,1.2,1.2,1.2s1.2-0.6,1.2-1.2v-7.1c9.9-0.6,17.8-8.6,18.3-18.5h7.2c0.7,0,1.2-0.6,1.2-1.2
	S115.4,77.8,114.7,77.8z M88.8,74.4l9.4-7.2l-5.7,10.4C91.9,76,90.5,74.7,88.8,74.4z M90.3,79.2c0,1.3-1.1,2.4-2.4,2.4
	s-2.4-1.1-2.4-2.4s1.1-2.4,2.4-2.4S90.3,77.9,90.3,79.2z M75.1,90.6c-2.7-3-4.4-7-4.4-11.4c0-9.4,7.7-17.1,17.1-17.1
	c3.4,0,6.6,1,9.3,2.8L83.7,75.2c-0.1,0.1-0.2,0.2-0.3,0.4L75.1,90.6z M83.3,80.8c0.6,1.6,2,2.9,3.7,3.2l-9.4,7.2L83.3,80.8z
	 M87.9,96.3c-3.4,0-6.6-1-9.3-2.8l13.5-10.4c0.1-0.1,0.2-0.2,0.3-0.4l8.2-15c2.7,3,4.4,7,4.4,11.4C105.1,88.6,97.4,96.3,87.9,96.3z
	 M114.7,77.8h-7.2c-0.3-4.8-2.4-9.1-5.5-12.3l1.2-2.3c0.3-0.5,0.2-1.2-0.3-1.5c-0.4-0.4-1.1-0.4-1.6,0l-2.1,1.6
	c-2.9-2.1-6.4-3.4-10.1-3.6v-7.4c0-0.7-0.6-1.2-1.2-1.2s-1.2,0.6-1.2,1.2v7.4C76.9,60.2,69,68,68.3,77.8h-7.2
	c-0.7,0-1.2,0.6-1.2,1.2s0.6,1.2,1.2,1.2h7.2c0.3,4.9,2.3,9.3,5.5,12.6l-1.3,2.3c-0.3,0.5-0.2,1.2,0.3,1.5c0.2,0.2,0.5,0.3,0.8,0.3
	c0.3,0,0.5-0.1,0.8-0.2l2.1-1.6c2.9,2.1,6.4,3.4,10.1,3.6v7.1c0,0.7,0.6,1.2,1.2,1.2s1.2-0.6,1.2-1.2v-7.1
	c9.9-0.6,17.8-8.6,18.3-18.5h7.2c0.7,0,1.2-0.6,1.2-1.2S115.4,77.8,114.7,77.8z M88.8,74.4l9.4-7.2l-5.7,10.4
	C91.9,76,90.5,74.7,88.8,74.4z M90.3,79.2c0,1.3-1.1,2.4-2.4,2.4s-2.4-1.1-2.4-2.4s1.1-2.4,2.4-2.4S90.3,77.9,90.3,79.2z M75.1,90.6
	c-2.7-3-4.4-7-4.4-11.4c0-9.4,7.7-17.1,17.1-17.1c3.4,0,6.6,1,9.3,2.8L83.7,75.2c-0.1,0.1-0.2,0.2-0.3,0.4L75.1,90.6z M83.3,80.8
	c0.6,1.6,2,2.9,3.7,3.2l-9.4,7.2L83.3,80.8z M87.9,96.3c-3.4,0-6.6-1-9.3-2.8l13.5-10.4c0.1-0.1,0.2-0.2,0.3-0.4l8.2-15
	c2.7,3,4.4,7,4.4,11.4C105.1,88.6,97.4,96.3,87.9,96.3z M114.7,77.8h-7.2c-0.3-4.8-2.4-9.1-5.5-12.3l1.2-2.3
	c0.3-0.5,0.2-1.2-0.3-1.5c-0.4-0.4-1.1-0.4-1.6,0l-2.1,1.6c-2.9-2.1-6.4-3.4-10.1-3.6v-7.4c0-0.7-0.6-1.2-1.2-1.2s-1.2,0.6-1.2,1.2
	v7.4C76.9,60.2,69,68,68.3,77.8h-7.2c-0.7,0-1.2,0.6-1.2,1.2s0.6,1.2,1.2,1.2h7.2c0.3,4.9,2.3,9.3,5.5,12.6l-1.3,2.3
	c-0.3,0.5-0.2,1.2,0.3,1.5c0.2,0.2,0.5,0.3,0.8,0.3c0.3,0,0.5-0.1,0.8-0.2l2.1-1.6c2.9,2.1,6.4,3.4,10.1,3.6v7.1
	c0,0.7,0.6,1.2,1.2,1.2s1.2-0.6,1.2-1.2v-7.1c9.9-0.6,17.8-8.6,18.3-18.5h7.2c0.7,0,1.2-0.6,1.2-1.2S115.4,77.8,114.7,77.8z
	 M88.8,74.4l9.4-7.2l-5.7,10.4C91.9,76,90.5,74.7,88.8,74.4z M90.3,79.2c0,1.3-1.1,2.4-2.4,2.4s-2.4-1.1-2.4-2.4s1.1-2.4,2.4-2.4
	S90.3,77.9,90.3,79.2z M75.1,90.6c-2.7-3-4.4-7-4.4-11.4c0-9.4,7.7-17.1,17.1-17.1c3.4,0,6.6,1,9.3,2.8L83.7,75.2
	c-0.1,0.1-0.2,0.2-0.3,0.4L75.1,90.6z M83.3,80.8c0.6,1.6,2,2.9,3.7,3.2l-9.4,7.2L83.3,80.8z M87.9,96.3c-3.4,0-6.6-1-9.3-2.8
	l13.5-10.4c0.1-0.1,0.2-0.2,0.3-0.4l8.2-15c2.7,3,4.4,7,4.4,11.4C105.1,88.6,97.4,96.3,87.9,96.3z M114.7,77.8h-7.2
	c-0.3-4.8-2.4-9.1-5.5-12.3l1.2-2.3c0.3-0.5,0.2-1.2-0.3-1.5c-0.4-0.4-1.1-0.4-1.6,0l-2.1,1.6c-2.9-2.1-6.4-3.4-10.1-3.6v-7.4
	c0-0.7-0.6-1.2-1.2-1.2s-1.2,0.6-1.2,1.2v7.4C76.9,60.2,69,68,68.3,77.8h-7.2c-0.7,0-1.2,0.6-1.2,1.2s0.6,1.2,1.2,1.2h7.2
	c0.3,4.9,2.3,9.3,5.5,12.6l-1.3,2.3c-0.3,0.5-0.2,1.2,0.3,1.5c0.2,0.2,0.5,0.3,0.8,0.3c0.3,0,0.5-0.1,0.8-0.2l2.1-1.6
	c2.9,2.1,6.4,3.4,10.1,3.6v7.1c0,0.7,0.6,1.2,1.2,1.2s1.2-0.6,1.2-1.2v-7.1c9.9-0.6,17.8-8.6,18.3-18.5h7.2c0.7,0,1.2-0.6,1.2-1.2
	S115.4,77.8,114.7,77.8z M88.8,74.4l9.4-7.2l-5.7,10.4C91.9,76,90.5,74.7,88.8,74.4z M90.3,79.2c0,1.3-1.1,2.4-2.4,2.4
	s-2.4-1.1-2.4-2.4s1.1-2.4,2.4-2.4S90.3,77.9,90.3,79.2z M75.1,90.6c-2.7-3-4.4-7-4.4-11.4c0-9.4,7.7-17.1,17.1-17.1
	c3.4,0,6.6,1,9.3,2.8L83.7,75.2c-0.1,0.1-0.2,0.2-0.3,0.4L75.1,90.6z M83.3,80.8c0.6,1.6,2,2.9,3.7,3.2l-9.4,7.2L83.3,80.8z
	 M87.9,96.3c-3.4,0-6.6-1-9.3-2.8l13.5-10.4c0.1-0.1,0.2-0.2,0.3-0.4l8.2-15c2.7,3,4.4,7,4.4,11.4C105.1,88.6,97.4,96.3,87.9,96.3z
	 M114.7,77.8h-7.2c-0.3-4.8-2.4-9.1-5.5-12.3l1.2-2.3c0.3-0.5,0.2-1.2-0.3-1.5c-0.4-0.4-1.1-0.4-1.6,0l-2.1,1.6
	c-2.9-2.1-6.4-3.4-10.1-3.6v-7.4c0-0.7-0.6-1.2-1.2-1.2s-1.2,0.6-1.2,1.2v7.4C76.9,60.2,69,68,68.3,77.8h-7.2
	c-0.7,0-1.2,0.6-1.2,1.2s0.6,1.2,1.2,1.2h7.2c0.3,4.9,2.3,9.3,5.5,12.6l-1.3,2.3c-0.3,0.5-0.2,1.2,0.3,1.5c0.2,0.2,0.5,0.3,0.8,0.3
	c0.3,0,0.5-0.1,0.8-0.2l2.1-1.6c2.9,2.1,6.4,3.4,10.1,3.6v7.1c0,0.7,0.6,1.2,1.2,1.2s1.2-0.6,1.2-1.2v-7.1
	c9.9-0.6,17.8-8.6,18.3-18.5h7.2c0.7,0,1.2-0.6,1.2-1.2S115.4,77.8,114.7,77.8z M88.8,74.4l9.4-7.2l-5.7,10.4
	C91.9,76,90.5,74.7,88.8,74.4z M90.3,79.2c0,1.3-1.1,2.4-2.4,2.4s-2.4-1.1-2.4-2.4s1.1-2.4,2.4-2.4S90.3,77.9,90.3,79.2z M75.1,90.6
	c-2.7-3-4.4-7-4.4-11.4c0-9.4,7.7-17.1,17.1-17.1c3.4,0,6.6,1,9.3,2.8L83.7,75.2c-0.1,0.1-0.2,0.2-0.3,0.4L75.1,90.6z M83.3,80.8
	c0.6,1.6,2,2.9,3.7,3.2l-9.4,7.2L83.3,80.8z M87.9,96.3c-3.4,0-6.6-1-9.3-2.8l13.5-10.4c0.1-0.1,0.2-0.2,0.3-0.4l8.2-15
	c2.7,3,4.4,7,4.4,11.4C105.1,88.6,97.4,96.3,87.9,96.3z M114.7,77.8h-7.2c-0.3-4.8-2.4-9.1-5.5-12.3l1.2-2.3
	c0.3-0.5,0.2-1.2-0.3-1.5c-0.4-0.4-1.1-0.4-1.6,0l-2.1,1.6c-2.9-2.1-6.4-3.4-10.1-3.6v-7.4c0-0.7-0.6-1.2-1.2-1.2s-1.2,0.6-1.2,1.2
	v7.4C76.9,60.2,69,68,68.3,77.8h-7.2c-0.7,0-1.2,0.6-1.2,1.2s0.6,1.2,1.2,1.2h7.2c0.3,4.9,2.3,9.3,5.5,12.6l-1.3,2.3
	c-0.3,0.5-0.2,1.2,0.3,1.5c0.2,0.2,0.5,0.3,0.8,0.3c0.3,0,0.5-0.1,0.8-0.2l2.1-1.6c2.9,2.1,6.4,3.4,10.1,3.6v7.1
	c0,0.7,0.6,1.2,1.2,1.2s1.2-0.6,1.2-1.2v-7.1c9.9-0.6,17.8-8.6,18.3-18.5h7.2c0.7,0,1.2-0.6,1.2-1.2S115.4,77.8,114.7,77.8z
	 M88.8,74.4l9.4-7.2l-5.7,10.4C91.9,76,90.5,74.7,88.8,74.4z M90.3,79.2c0,1.3-1.1,2.4-2.4,2.4s-2.4-1.1-2.4-2.4s1.1-2.4,2.4-2.4
	S90.3,77.9,90.3,79.2z M75.1,90.6c-2.7-3-4.4-7-4.4-11.4c0-9.4,7.7-17.1,17.1-17.1c3.4,0,6.6,1,9.3,2.8L83.7,75.2
	c-0.1,0.1-0.2,0.2-0.3,0.4L75.1,90.6z M83.3,80.8c0.6,1.6,2,2.9,3.7,3.2l-9.4,7.2L83.3,80.8z M87.9,96.3c-3.4,0-6.6-1-9.3-2.8
	l13.5-10.4c0.1-0.1,0.2-0.2,0.3-0.4l8.2-15c2.7,3,4.4,7,4.4,11.4C105.1,88.6,97.4,96.3,87.9,96.3z M114.7,77.8h-7.2
	c-0.3-4.8-2.4-9.1-5.5-12.3l1.2-2.3c0.3-0.5,0.2-1.2-0.3-1.5c-0.4-0.4-1.1-0.4-1.6,0l-2.1,1.6c-2.9-2.1-6.4-3.4-10.1-3.6v-7.4
	c0-0.7-0.6-1.2-1.2-1.2s-1.2,0.6-1.2,1.2v7.4C76.9,60.2,69,68,68.3,77.8h-7.2c-0.7,0-1.2,0.6-1.2,1.2s0.6,1.2,1.2,1.2h7.2
	c0.3,4.9,2.3,9.3,5.5,12.6l-1.3,2.3c-0.3,0.5-0.2,1.2,0.3,1.5c0.2,0.2,0.5,0.3,0.8,0.3c0.3,0,0.5-0.1,0.8-0.2l2.1-1.6
	c2.9,2.1,6.4,3.4,10.1,3.6v7.1c0,0.7,0.6,1.2,1.2,1.2s1.2-0.6,1.2-1.2v-7.1c9.9-0.6,17.8-8.6,18.3-18.5h7.2c0.7,0,1.2-0.6,1.2-1.2
	S115.4,77.8,114.7,77.8z M88.8,74.4l9.4-7.2l-5.7,10.4C91.9,76,90.5,74.7,88.8,74.4z M90.3,79.2c0,1.3-1.1,2.4-2.4,2.4
	s-2.4-1.1-2.4-2.4s1.1-2.4,2.4-2.4S90.3,77.9,90.3,79.2z M75.1,90.6c-2.7-3-4.4-7-4.4-11.4c0-9.4,7.7-17.1,17.1-17.1
	c3.4,0,6.6,1,9.3,2.8L83.7,75.2c-0.1,0.1-0.2,0.2-0.3,0.4L75.1,90.6z M83.3,80.8c0.6,1.6,2,2.9,3.7,3.2l-9.4,7.2L83.3,80.8z
	 M87.9,96.3c-3.4,0-6.6-1-9.3-2.8l13.5-10.4c0.1-0.1,0.2-0.2,0.3-0.4l8.2-15c2.7,3,4.4,7,4.4,11.4C105.1,88.6,97.4,96.3,87.9,96.3z
	 M114.7,77.8h-7.2c-0.3-4.8-2.4-9.1-5.5-12.3l1.2-2.3c0.3-0.5,0.2-1.2-0.3-1.5c-0.4-0.4-1.1-0.4-1.6,0l-2.1,1.6
	c-2.9-2.1-6.4-3.4-10.1-3.6v-7.4c0-0.7-0.6-1.2-1.2-1.2s-1.2,0.6-1.2,1.2v7.4C76.9,60.2,69,68,68.3,77.8h-7.2
	c-0.7,0-1.2,0.6-1.2,1.2s0.6,1.2,1.2,1.2h7.2c0.3,4.9,2.3,9.3,5.5,12.6l-1.3,2.3c-0.3,0.5-0.2,1.2,0.3,1.5c0.2,0.2,0.5,0.3,0.8,0.3
	c0.3,0,0.5-0.1,0.8-0.2l2.1-1.6c2.9,2.1,6.4,3.4,10.1,3.6v7.1c0,0.7,0.6,1.2,1.2,1.2s1.2-0.6,1.2-1.2v-7.1
	c9.9-0.6,17.8-8.6,18.3-18.5h7.2c0.7,0,1.2-0.6,1.2-1.2S115.4,77.8,114.7,77.8z M88.8,74.4l9.4-7.2l-5.7,10.4
	C91.9,76,90.5,74.7,88.8,74.4z M90.3,79.2c0,1.3-1.1,2.4-2.4,2.4s-2.4-1.1-2.4-2.4s1.1-2.4,2.4-2.4S90.3,77.9,90.3,79.2z M75.1,90.6
	c-2.7-3-4.4-7-4.4-11.4c0-9.4,7.7-17.1,17.1-17.1c3.4,0,6.6,1,9.3,2.8L83.7,75.2c-0.1,0.1-0.2,0.2-0.3,0.4L75.1,90.6z M83.3,80.8
	c0.6,1.6,2,2.9,3.7,3.2l-9.4,7.2L83.3,80.8z M87.9,96.3c-3.4,0-6.6-1-9.3-2.8l13.5-10.4c0.1-0.1,0.2-0.2,0.3-0.4l8.2-15
	c2.7,3,4.4,7,4.4,11.4C105.1,88.6,97.4,96.3,87.9,96.3z M114.7,77.8h-7.2c-0.3-4.8-2.4-9.1-5.5-12.3l1.2-2.3
	c0.3-0.5,0.2-1.2-0.3-1.5c-0.4-0.4-1.1-0.4-1.6,0l-2.1,1.6c-2.9-2.1-6.4-3.4-10.1-3.6v-7.4c0-0.7-0.6-1.2-1.2-1.2s-1.2,0.6-1.2,1.2
	v7.4C76.9,60.2,69,68,68.3,77.8h-7.2c-0.7,0-1.2,0.6-1.2,1.2s0.6,1.2,1.2,1.2h7.2c0.3,4.9,2.3,9.3,5.5,12.6l-1.3,2.3
	c-0.3,0.5-0.2,1.2,0.3,1.5c0.2,0.2,0.5,0.3,0.8,0.3c0.3,0,0.5-0.1,0.8-0.2l2.1-1.6c2.9,2.1,6.4,3.4,10.1,3.6v7.1
	c0,0.7,0.6,1.2,1.2,1.2s1.2-0.6,1.2-1.2v-7.1c9.9-0.6,17.8-8.6,18.3-18.5h7.2c0.7,0,1.2-0.6,1.2-1.2S115.4,77.8,114.7,77.8z
	 M88.8,74.4l9.4-7.2l-5.7,10.4C91.9,76,90.5,74.7,88.8,74.4z M90.3,79.2c0,1.3-1.1,2.4-2.4,2.4s-2.4-1.1-2.4-2.4s1.1-2.4,2.4-2.4
	S90.3,77.9,90.3,79.2z M75.1,90.6c-2.7-3-4.4-7-4.4-11.4c0-9.4,7.7-17.1,17.1-17.1c3.4,0,6.6,1,9.3,2.8L83.7,75.2
	c-0.1,0.1-0.2,0.2-0.3,0.4L75.1,90.6z M83.3,80.8c0.6,1.6,2,2.9,3.7,3.2l-9.4,7.2L83.3,80.8z M87.9,96.3c-3.4,0-6.6-1-9.3-2.8
	l13.5-10.4c0.1-0.1,0.2-0.2,0.3-0.4l8.2-15c2.7,3,4.4,7,4.4,11.4C105.1,88.6,97.4,96.3,87.9,96.3z M114.7,77.8h-7.2
	c-0.3-4.8-2.4-9.1-5.5-12.3l1.2-2.3c0.3-0.5,0.2-1.2-0.3-1.5c-0.4-0.4-1.1-0.4-1.6,0l-2.1,1.6c-2.9-2.1-6.4-3.4-10.1-3.6v-7.4
	c0-0.7-0.6-1.2-1.2-1.2s-1.2,0.6-1.2,1.2v7.4C76.9,60.2,69,68,68.3,77.8h-7.2c-0.7,0-1.2,0.6-1.2,1.2s0.6,1.2,1.2,1.2h7.2
	c0.3,4.9,2.3,9.3,5.5,12.6l-1.3,2.3c-0.3,0.5-0.2,1.2,0.3,1.5c0.2,0.2,0.5,0.3,0.8,0.3c0.3,0,0.5-0.1,0.8-0.2l2.1-1.6
	c2.9,2.1,6.4,3.4,10.1,3.6v7.1c0,0.7,0.6,1.2,1.2,1.2s1.2-0.6,1.2-1.2v-7.1c9.9-0.6,17.8-8.6,18.3-18.5h7.2c0.7,0,1.2-0.6,1.2-1.2
	S115.4,77.8,114.7,77.8z M88.8,74.4l9.4-7.2l-5.7,10.4C91.9,76,90.5,74.7,88.8,74.4z M90.3,79.2c0,1.3-1.1,2.4-2.4,2.4
	s-2.4-1.1-2.4-2.4s1.1-2.4,2.4-2.4S90.3,77.9,90.3,79.2z M75.1,90.6c-2.7-3-4.4-7-4.4-11.4c0-9.4,7.7-17.1,17.1-17.1
	c3.4,0,6.6,1,9.3,2.8L83.7,75.2c-0.1,0.1-0.2,0.2-0.3,0.4L75.1,90.6z M83.3,80.8c0.6,1.6,2,2.9,3.7,3.2l-9.4,7.2L83.3,80.8z
	 M87.9,96.3c-3.4,0-6.6-1-9.3-2.8l13.5-10.4c0.1-0.1,0.2-0.2,0.3-0.4l8.2-15c2.7,3,4.4,7,4.4,11.4C105.1,88.6,97.4,96.3,87.9,96.3z"
	/>
</svg>
