<?xml version="1.0" encoding="utf-8"?>
<!-- Generator: Adobe Illustrator 18.1.1, SVG Export Plug-In . SVG Version: 6.00 Build 0)  -->
<!DOCTYPE svg PUBLIC "-//W3C//DTD SVG 1.1//EN" "http://www.w3.org/Graphics/SVG/1.1/DTD/svg11.dtd">
<svg version="1.1" id="Layer_1" xmlns="http://www.w3.org/2000/svg" xmlns:xlink="http://www.w3.org/1999/xlink" x="0px" y="0px"
	 width="200px" height="200px" viewBox="0 0 200 200" enable-background="new 0 0 200 200" xml:space="preserve">
<g>
	<path fill="#231F20" d="M100,178.8c-43.4,0-78.8-35.3-78.8-78.8S56.6,21.2,100,21.2s78.8,35.3,78.8,78.8S143.4,178.8,100,178.8z
		 M100,26.2c-40.7,0-73.8,33.1-73.8,73.8s33.1,73.8,73.8,73.8s73.8-33.1,73.8-73.8S140.7,26.2,100,26.2z"/>
</g>
<g>
	<path fill="#231F20" d="M138.6,87.8V77.2c0-0.2-0.1-0.4-0.2-0.5l-9.1-9.7c-0.1-0.2-0.3-0.2-0.5-0.2h-14.5c-6.2-5.3-11-9.3-11-9.3
		c-1.8-1.6-4.8-1.6-6.5,0c0,0-4.8,4-11,9.3c0,0,0,0,0,0H62.1c-0.4,0-0.8,0.3-0.8,0.8v20.4c-4.2,3.8-4.4,4.2-4.4,5.3v46.4
		c0,2.4,2,4.4,4.4,4.4h77.2c2.4,0,4.4-2,4.4-4.4V93.1C143,92.1,142.8,91.7,138.6,87.8z M92.4,66.7c4.2-3.6,7.1-6,7.2-6.1
		c0.2-0.2,0.6-0.2,0.9,0c0,0,2.9,2.5,7.1,6H92.4z M129,76.4v-4l3.5,4L129,76.4z M138.6,96.8v40.9L104,116.3L138.6,96.8z M95.7,116.2
		l-34.4,21.2V96.8L95.7,116.2z M125.4,80.8l8.9,0v13.5L100,113.6L65.7,94.3V71h58.9v9C124.7,80.4,125,80.8,125.4,80.8z M66.1,139.6
		l33.7-20.7l33.7,20.7H66.1z"/>
	<path fill="#231F20" d="M73.8,85.4v0.3c0,1,0.7,1.9,1.6,1.9h49.4c0.9,0,1.6-0.8,1.6-1.9v-0.3c0-1-0.7-1.9-1.6-1.9H75.4
		C74.5,83.5,73.8,84.4,73.8,85.4z"/>
	<path fill="#231F20" d="M124.8,91.7H75.4c-0.9,0-1.6,0.8-1.6,1.9v0.3c0,1,0.7,1.9,1.6,1.9h49.4c0.9,0,1.6-0.8,1.6-1.9v-0.3
		C126.5,92.5,125.7,91.7,124.8,91.7z"/>
</g>
</svg>
