<?xml version="1.0" encoding="utf-8"?>
<!-- Generator: Adobe Illustrator 18.1.1, SVG Export Plug-In . SVG Version: 6.00 Build 0)  -->
<!DOCTYPE svg PUBLIC "-//W3C//DTD SVG 1.1//EN" "http://www.w3.org/Graphics/SVG/1.1/DTD/svg11.dtd">
<svg version="1.1" id="Layer_1" xmlns="http://www.w3.org/2000/svg" xmlns:xlink="http://www.w3.org/1999/xlink" x="0px" y="0px"
	 width="200px" height="200px" viewBox="0 0 200 200" enable-background="new 0 0 200 200" xml:space="preserve">
<g>
	<path fill="#231F20" d="M100,178.8c-43.4,0-78.8-35.3-78.8-78.8S56.6,21.2,100,21.2s78.8,35.3,78.8,78.8S143.4,178.8,100,178.8z
		 M100,26.2c-40.7,0-73.8,33.1-73.8,73.8s33.1,73.8,73.8,73.8s73.8-33.1,73.8-73.8S140.7,26.2,100,26.2z"/>
</g>
<g>
	<path fill="#231F20" d="M89.5,96.4c-1.3,0-2.2,0.6-3,1.4l-5.9,5.9c-0.9,0.9-1.2,1.3-1.4,1.9c-0.3,0.8,0,1.7,0.7,2.5
		c0.8,0.7,1.7,1,2.5,0.7c0.6-0.2,1-0.5,1.9-1.4l2.5-2.5v18.6c0,1.4,0.1,1.9,0.4,2.5c0.4,0.8,1.3,1.3,2.4,1.3c1.1,0,2-0.5,2.4-1.3
		c0.3-0.6,0.4-1.1,0.4-2.5V100c0-1.1-0.1-2.1-0.8-2.8C91.1,96.7,90.3,96.4,89.5,96.4z"/>
	<path fill="#231F20" d="M119.2,117.9c-0.5-0.3-1-0.3-2.3-0.3h-0.8V115c0-1.4-0.1-1.9-0.4-2.5c-0.4-0.8-1.3-1.3-2.4-1.3
		c-1.1,0-2,0.5-2.4,1.3c-0.3,0.6-0.4,1.1-0.4,2.5v2.6h-5.4l8.3-16.6c0.6-1.1,0.7-1.6,0.7-2.2c0-1.4-1.4-2.5-2.7-2.5
		c-0.5,0-0.9,0.1-1.3,0.4c-0.5,0.4-0.8,0.8-1.3,1.9l-9.4,18.8c-0.5,0.9-0.8,1.7-0.8,2.3c0,0.8,0.3,1.6,0.9,2.1
		c0.7,0.6,1.6,0.7,3,0.7h8v0.9c0,1.4,0.1,1.9,0.4,2.5c0.4,0.8,1.3,1.3,2.4,1.3c1.1,0,2-0.5,2.4-1.3c0.3-0.6,0.4-1.1,0.4-2.5v-0.9
		h0.8c1.3,0,1.8,0,2.3-0.3c0.7-0.4,1.2-1.2,1.2-2.2C120.5,119.1,120,118.3,119.2,117.9z"/>
	<path fill="#231F20" d="M132.4,62.3h-8.8v-4.3c0-1.4-1.2-2.6-2.6-2.6s-2.6,1.2-2.6,2.6v4.3H82.2v-4.3c0-1.4-1.2-2.6-2.6-2.6
		S77,56.5,77,57.9v4.3h-9.4c-4.8,0-8.8,3.9-8.8,8.8v64.8c0,4.8,3.9,8.8,8.8,8.8h52.5c0.3,0,0.7-0.1,1.2-0.1c0.3,0,0.7-0.1,1-0.2
		c16.2-7.2,18.8-17.7,18.8-20.3h0c0.1-0.3,0.1-0.6,0.1-1V71.1C141.2,66.2,137.3,62.3,132.4,62.3z M77,69.2c-1.7,0.9-2.7,2.7-2.7,4.6
		c0,2.9,2.4,5.3,5.3,5.3s5.3-2.4,5.3-5.3c0-1.9-1-3.7-2.7-4.6v-1.7h36.2v1.7c-1.7,0.9-2.7,2.7-2.7,4.6c0,2.9,2.4,5.3,5.3,5.3
		s5.3-2.4,5.3-5.3c0-1.9-1-3.7-2.7-4.6v-1.7h8.8c2,0,3.5,1.6,3.5,3.6V83H64V71.1c0-2,1.6-3.6,3.6-3.6H77V69.2z M120.4,133.8
		c0,1.2,0.1,4.7-0.5,5.6H67.6c-2,0-3.6-1.6-3.6-3.6V88.6H136v34.2c-0.3,0.1-1.2,0.5-4.3,0.5c-0.3,0-0.7,0-1,0l-1.5,0
		c-4.8,0-8.8,3.9-8.8,8.8L120.4,133.8z M125.6,133.8l0-1.7c0-2,1.6-3.5,3.5-3.6l1.2,0c0.4,0,0.8,0,1.3,0c0.6,0,1.5,0,2.5-0.1
		c-1.4,2.3-4,5.2-8.6,8.1C125.7,135.6,125.7,134.6,125.6,133.8z"/>
</g>
</svg>
