<?xml version="1.0" encoding="utf-8"?>
<!-- Generator: Adobe Illustrator 18.1.1, SVG Export Plug-In . SVG Version: 6.00 Build 0)  -->
<!DOCTYPE svg PUBLIC "-//W3C//DTD SVG 1.1//EN" "http://www.w3.org/Graphics/SVG/1.1/DTD/svg11.dtd">
<svg version="1.1" id="Layer_1" xmlns="http://www.w3.org/2000/svg" xmlns:xlink="http://www.w3.org/1999/xlink" x="0px" y="0px"
	 width="200px" height="200px" viewBox="0 0 200 200" enable-background="new 0 0 200 200" xml:space="preserve">
<g>
	<path fill="#231F20" d="M100,180.3c-43.4,0-78.8-35.3-78.8-78.7S56.6,22.8,100,22.8s78.8,35.3,78.8,78.8S143.4,180.3,100,180.3z
		 M100,27.8c-40.7,0-73.8,33.1-73.8,73.8s33.1,73.7,73.8,73.7s73.8-33.1,73.8-73.7S140.7,27.8,100,27.8z"/>
</g>
<g>
	<path fill="#231F20" d="M143.1,66.2H56.9c-3.6,0-6.5,2.9-6.5,6.5v50.1c0,3.6,2.9,6.5,6.5,6.5h34.6v8.1h-9.6c-1.5,0-2.8,1.2-2.8,2.8
		s1.2,2.8,2.8,2.8h36.2c1.5,0,2.8-1.2,2.8-2.8s-1.2-2.8-2.8-2.8h-10v-8.1h35c3.6,0,6.5-2.9,6.5-6.5V72.7
		C149.6,69.1,146.7,66.2,143.1,66.2z M56.9,71.7h86.2c0.6,0,1,0.5,1,1v35.7H55.9V72.7C55.9,72.1,56.3,71.7,56.9,71.7z M103,137.5
		h-6.5v-8.1h6.5V137.5z M143.1,123.9H56.9c-0.6,0-1-0.5-1-1v-8.9h88.2v8.9C144.1,123.4,143.7,123.9,143.1,123.9z"/>
	<circle fill="#231F20" cx="99.8" cy="118.8" r="3.1"/>
</g>
</svg>
