<?xml version="1.0" encoding="utf-8"?>
<!-- Generator: Adobe Illustrator 18.0.0, SVG Export Plug-In . SVG Version: 6.00 Build 0)  -->
<!DOCTYPE svg PUBLIC "-//W3C//DTD SVG 1.1//EN" "http://www.w3.org/Graphics/SVG/1.1/DTD/svg11.dtd">
<svg version="1.1" id="Layer_1" xmlns="http://www.w3.org/2000/svg" xmlns:xlink="http://www.w3.org/1999/xlink" x="0px" y="0px"
	 viewBox="0 0 111.5 80.2" enable-background="new 0 0 111.5 80.2" xml:space="preserve">
<path fill="#1E2A33" d="M57.5,1.3c-21.4,0-38.9,17.4-38.9,38.9s17.4,38.9,38.9,38.9s38.9-17.4,38.9-38.9S78.9,1.3,57.5,1.3z
	 M93.2,40.2c0,19.6-16,35.6-35.6,35.6c-6.8,0-13.1-1.9-18.5-5.2l-0.6-0.4c-10.3-6.6-16.4-17.8-16.4-30c0-19.7,16-35.7,35.7-35.7
	c0.6,0,1.1,0,1.6,0C78.2,5.6,93.2,21.2,93.2,40.2z"/>
<g>
	<path fill="#1E2A33" d="M66.6,39.3h-5.9c-2.2,0-4,1.8-4,4c0,0,0,0.1,0,0.1h-11c-2.1,0-3.8,1.7-3.8,3.8c0,0.4,0.1,0.9,0.2,1.3h-0.1
		c-2.1,0-3.7,1.7-3.7,3.7s1.7,3.7,3.7,3.7h0.6c-0.1,0.4-0.2,0.8-0.2,1.3c0,2.1,1.7,3.8,3.8,3.8h1.5c-0.1,0.4-0.2,0.8-0.2,1.2
		c0,2,1.7,3.7,3.7,3.7h15.4c7.3,0,13.3-5.9,13.3-13.3S73.9,39.3,66.6,39.3z M66.6,63.3H51.2c-0.7,0-1.2-0.5-1.2-1.2s0.5-1.2,1.2-1.2
		h0.1h5.6c0.7,0,1.2-0.6,1.2-1.2s-0.6-1.2-1.2-1.2h-5.6h-0.1h-5c-0.7,0-1.3-0.6-1.3-1.3s0.6-1.3,1.3-1.3h5.6h4
		c0.7,0,1.2-0.6,1.2-1.2s-0.6-1.2-1.2-1.2h-4h-5.6h-4.1c-0.7,0-1.2-0.5-1.2-1.2s0.6-1.2,1.2-1.2h3.6h6.1h4.6c0.7,0,1.2-0.6,1.2-1.2
		s-0.6-1.2-1.2-1.2h-4.6h-6.1c-0.7,0-1.3-0.6-1.3-1.3c0-0.7,0.6-1.3,1.3-1.3h12c0.7,0.9,1.8,1.4,3,1.4h4v5.4c0,0.7,0.6,1.2,1.2,1.2
		s1.2-0.6,1.2-1.2v-6.6c0-0.7-0.6-1.2-1.2-1.2h-5.2c-0.8,0-1.5-0.7-1.5-1.5s0.7-1.5,1.5-1.5h5.9c5.9,0,10.8,4.8,10.8,10.8
		C77.3,58.5,72.5,63.3,66.6,63.3z"/>
	<path fill="#1E2A33" d="M62.6,51.1c0.3-0.6,0.1-1.3-0.4-1.6c-0.6-0.3-1.3-0.1-1.6,0.4c-0.1,0.2-2.6,4.7,0.1,9.7
		c0.2,0.4,0.6,0.6,1,0.6c0.2,0,0.4,0,0.5-0.1c0.6-0.3,0.8-1,0.5-1.6C60.6,54.8,62.5,51.3,62.6,51.1z"/>
	<path fill="#1E2A33" d="M49.3,40.3c6.4,0,11.7-5.2,11.7-11.7C61,22.3,55.7,17,49.3,17s-11.7,5.2-11.7,11.7
		C37.7,35.1,42.9,40.3,49.3,40.3z M49.3,19.5c5,0,9.2,4.1,9.2,9.2s-4.1,9.2-9.2,9.2s-9.2-4.1-9.2-9.2S44.3,19.5,49.3,19.5z"/>
	<path fill="#1E2A33" d="M49.3,36.5c4.3,0,7.8-3.5,7.8-7.8s-3.5-7.8-7.8-7.8s-7.8,3.5-7.8,7.8S45,36.5,49.3,36.5z M49.3,22.9
		c3.2,0,5.8,2.6,5.8,5.8s-2.6,5.8-5.8,5.8s-5.8-2.6-5.8-5.8S46.1,22.9,49.3,22.9z"/>
	<path fill="#1E2A33" d="M48.7,29.3v1.8H48c-0.3,0-0.6,0.3-0.6,0.6s0.3,0.6,0.6,0.6h0.7v0.6c0,0.3,0.3,0.6,0.6,0.6s0.6-0.3,0.6-0.6
		v-0.6c1-0.1,1.8-1,1.8-2s-0.8-1.9-1.8-2v-1.9h0.5c0.3,0,0.6-0.3,0.6-0.6s-0.3-0.6-0.6-0.6h-0.5v-0.6c0-0.3-0.3-0.6-0.6-0.6
		s-0.6,0.3-0.6,0.6v0.6c-1,0.2-1.8,1-1.8,2.1S47.7,29.2,48.7,29.3z M50.5,30.2c0,0.4-0.3,0.7-0.6,0.8v-1.6
		C50.2,29.5,50.5,29.8,50.5,30.2z M48.7,26.4v1.7c-0.3-0.1-0.6-0.5-0.6-0.9C48.1,26.8,48.4,26.5,48.7,26.4z"/>
</g>
</svg>
