<?xml version="1.0" encoding="utf-8"?>
<!-- Generator: Adobe Illustrator 18.1.1, SVG Export Plug-In . SVG Version: 6.00 Build 0)  -->
<!DOCTYPE svg PUBLIC "-//W3C//DTD SVG 1.1//EN" "http://www.w3.org/Graphics/SVG/1.1/DTD/svg11.dtd">
<svg version="1.1" id="Layer_1" xmlns="http://www.w3.org/2000/svg" xmlns:xlink="http://www.w3.org/1999/xlink" x="0px" y="0px"
	 width="144px" height="179.3px" viewBox="0 -17.3 144 179.3" enable-background="new 0 -17.3 144 179.3" xml:space="preserve">
<g id="lqx6j9.tif" display="none">
	
		<image display="inline" overflow="visible" enable-background="new    " width="401" height="301" id="Layer_0_1_" xlink:href="56198BBFD40A2ADC.png"  transform="matrix(0.9972 0 0 0.9972 467.8098 -86.3798)">
	</image>
</g>
<g>
	<path fill="#1F2B33" d="M107.2,108.7c-0.1-3.3-0.7-6.7-1.9-10.1c-1.7-4.9-4.2-9.1-6.5-12.7c-2.2-3.6-4.1-6.6-4.3-9.1
		C94,71.4,93.9,67,95,62.9l1.5-5.1L92,60.7c-2.9,1.9-5.4,4.2-7.5,6.8c-0.4-7.3-3.2-14.4-8.1-20l-4.9-5.7l1.5,7.4
		c0.2,0.8,0.2,1.7,0.2,2.8c0.3,11.6-7.5,19.5-12.2,23.2c-0.1,0-0.1,0.1-0.2,0.2c-2.7-4-6.2-7.4-10.6-10l-4.3-2.6l1.4,4.9
		c0.7,2.6,1.1,5.3,1.1,8.1c0,2.2-0.2,4.4-0.7,6.7c-0.5,2.1-1,3.4-1.8,5.2c-2.6,3-4.8,6-5.9,8.1c-2.1,3.9-3.1,8.3-3.1,13
		c0,7.6,2.5,14.6,6.7,19.8c5.4,7.8,15.3,12.9,27.1,13.8c0.9,0.1,1.9,0.1,2.8,0.1c14.8,0,27.8-9.4,32.3-23.4
		C106.7,115.8,107.3,112.2,107.2,108.7z M52,71.7c2,1.7,3.8,3.6,5.2,5.8c-1.7,1-3.6,2.5-5.5,4.2c0.3-2,0.5-3.9,0.5-5.9
		C52.3,74.4,52.2,73,52,71.7z M46.7,126.5c-0.5-0.6-1-1.3-1.5-2c-2.9-4.3-4.5-9.7-4.5-15.5c0-4.1,0.9-7.8,2.7-11.2
		c1-2,3.1-4.8,5.6-7.5c0,0,0-0.1,0.1-0.1c0,0,0,0,0,0c3.5-3.8,7.7-7.7,10.9-9.5c1.2-0.7,2.2-1.4,3.3-2.1l0.1-0.1
		c4.8-3.8,12.6-11.6,13.6-23.1c2.3,4.2,3.5,9,3.5,13.8c0,2.1-0.2,4.1-0.7,6.1c0,0,0,0,0,0c-0.2,0.4-0.4,0.8-0.5,1.2l-0.1,0.3
		c0,0.2-0.1,0.4-0.2,0.6c-0.1,0.3-0.2,0.6-0.2,0.8c-0.5,1.6-1,3.1-1.8,4.6C77,83,77,83.1,76.9,83.2c-0.6,1.1-1.2,2.1-1.9,3.1
		c-1.5,2.1-13.1,13.4-14.2,14.3l-0.1,0.1c-6.6,5.5-10.4,13.6-10.4,22.1l0,1.3c0,1.9,0,3.9,0.2,5.9C49,129,47.7,127.8,46.7,126.5z
		 M54.8,132.1c-0.6-2.3-0.6-5.2-0.6-7.9l0-1.3c0-7.4,3.3-14.3,9-19.1c1.4-1.1,9.8-9.2,13.5-13.4c4.9,4.5,7.6,10.9,7.6,17.7
		c0,13.5-11,24.4-24.4,24.4C58,132.6,56.3,132.5,54.8,132.1z M101.7,118c-4,12.4-15.4,20.7-28.5,20.7c-0.7,0-1.6,0-2.3-0.1
		c-3.5-0.3-6.8-1-9.9-2c15.2-0.6,27.3-13.1,27.3-28.4c0-8-3.3-15.5-9.1-20.9c0,0,0,0,0,0c0.5-0.7,0.9-1.4,1.2-2.1
		c1.2-2.1,2.1-4.3,2.7-6.6l0-0.2c0-0.2,0.1-0.4,0.2-0.6c0.1-0.3,0.2-0.6,0.2-0.8c0-0.2,0.1-0.3,0.1-0.5c1.6-3.6,3.8-6.8,6.6-9.4
		c-0.3,3.3,0,6.8,0.3,10C90.9,80.6,93,84,95.4,88c2.1,3.5,4.6,7.4,6.1,11.9c1,3,1.6,6,1.7,8.9C103.3,111.8,102.8,115,101.7,118z"/>
</g>
<g>
	<path fill="#1F2B33" d="M49,90.1c0,0,0,0.1,0,0.1L49,90.1C49,90.1,49,90.1,49,90.1z"/>
</g>
<g>
	<path fill="#1F2B33" d="M60,62.2c-2,0-3.7-1.7-3.7-3.7c0-2,1.7-3.7,3.7-3.7s3.7,1.7,3.7,3.7C63.7,60.6,62,62.2,60,62.2z M60,57.8
		c-0.4,0-0.7,0.3-0.7,0.7c0,0.4,0.3,0.7,0.7,0.7s0.7-0.3,0.7-0.7C60.7,58.1,60.4,57.8,60,57.8z"/>
</g>
<g>
	<path fill="#1F2B33" d="M86.8,51.1c-2,0-3.7-1.7-3.7-3.7c0-2,1.7-3.7,3.7-3.7s3.7,1.7,3.7,3.7C90.5,49.5,88.8,51.1,86.8,51.1z
		 M86.8,46.7c-0.4,0-0.7,0.3-0.7,0.7c0,0.4,0.3,0.7,0.7,0.7s0.7-0.3,0.7-0.7C87.5,47,87.2,46.7,86.8,46.7z"/>
</g>
<g>
	<path fill="#1F2B33" d="M49.3,51.1c-2,0-3.7-1.7-3.7-3.7c0-2,1.7-3.7,3.7-3.7c2,0,3.7,1.7,3.7,3.7C53,49.5,51.3,51.1,49.3,51.1z
		 M49.3,46.7c-0.4,0-0.7,0.3-0.7,0.7c0,0.4,0.3,0.7,0.7,0.7c0.4,0,0.7-0.3,0.7-0.7C50,47,49.7,46.7,49.3,46.7z"/>
</g>
<g>
	<path fill="#1F2B33" d="M62.2,40.3c-2,0-3.7-1.7-3.7-3.7c0-2,1.7-3.7,3.7-3.7c2,0,3.7,1.7,3.7,3.7C65.9,38.7,64.2,40.3,62.2,40.3z
		 M62.2,35.9c-0.4,0-0.7,0.3-0.7,0.7c0,0.4,0.3,0.7,0.7,0.7c0.4,0,0.7-0.3,0.7-0.7C62.9,36.2,62.6,35.9,62.2,35.9z"/>
</g>
</svg>
