<?xml version="1.0" encoding="utf-8"?>
<!-- Generator: Adobe Illustrator 18.0.0, SVG Export Plug-In . SVG Version: 6.00 Build 0)  -->
<!DOCTYPE svg PUBLIC "-//W3C//DTD SVG 1.1//EN" "http://www.w3.org/Graphics/SVG/1.1/DTD/svg11.dtd">
<svg version="1.1" id="Layer_1" xmlns="http://www.w3.org/2000/svg" xmlns:xlink="http://www.w3.org/1999/xlink" x="0px" y="0px"
	 viewBox="0 0 54.3 28.7" enable-background="new 0 0 54.3 28.7" xml:space="preserve">
<g>
	<path fill="#1F2B33" d="M9,26.2H7.5c-0.4,0-0.8,0.3-0.8,0.8s0.3,0.8,0.8,0.8h42.8c0.3,0,0.5-0.1,0.6-0.4c0.1-0.2,0.1-0.5,0-0.7
		l-6.1-11.2c0,0,0,0,0,0c-0.1-0.1-0.1-0.1-0.2-0.2c0,0-0.1,0-0.1-0.1c-0.1-0.1-0.2-0.1-0.3-0.1c0,0,0,0,0,0c0,0,0,0,0,0H27
		c-0.3,0-0.5,0.1-0.7,0.4l-6,10.8h-2.2v-3.5c0.4,0.3,0.8,0.6,1.3,0.9c0.3,0.2,0.7,0.1,1-0.1c0.2-0.2,0.2-0.4,0.2-0.6
		c0-0.2-0.2-0.4-0.4-0.6c-0.4-0.3-0.8-0.5-1.1-0.8c-0.6-0.5-1-1.2-1-2.1c0.4,0.4,0.8,0.8,1.3,1.1c0.3,0.2,0.7,0.2,1-0.1
		c0.2-0.2,0.3-0.4,0.2-0.6c0-0.2-0.1-0.5-0.3-0.6c-0.6-0.4-1.2-0.9-1.7-1.5c-0.3-0.3-0.4-0.7-0.5-1.1c0.3,0.4,0.6,0.7,1,0.9
		c0.3,0.2,0.8,0.2,1-0.1c0.2-0.2,0.3-0.4,0.2-0.6c0-0.2-0.2-0.4-0.4-0.6c-0.9-0.6-1.7-2.2-2-2.8c-0.1-0.3-0.4-0.5-0.7-0.5
		c-0.3,0-0.6,0.2-0.7,0.5c-0.6,1.7-1.6,2.6-1.9,2.8c-0.2,0.1-0.3,0.3-0.3,0.5c0,0.2,0,0.4,0.1,0.6c0.2,0.3,0.7,0.5,1,0.2
		c0.1,0,0.5-0.3,1-1c-0.1,0.4-0.2,0.8-0.5,1.1c-0.5,0.6-1,1.1-1.6,1.5c-0.3,0.2-0.5,0.6-0.3,1c0.1,0.3,0.4,0.5,0.7,0.5
		c0.2,0,0.3,0,0.4-0.1c0.5-0.3,1-0.7,1.4-1.1c-0.1,0.7-0.4,1.3-0.9,1.8c-0.3,0.3-0.7,0.6-1.2,0.9c-0.2,0.1-0.3,0.3-0.4,0.5
		s0,0.4,0.1,0.6c0.2,0.2,0.4,0.3,0.6,0.3c0.2,0,0.3,0,0.4-0.1c0.5-0.3,0.9-0.6,1.3-1v3.6h-6.2 M39.3,26.2l4.1-7.5v7.5H39.3z
		 M27.4,16.6h15.5l-5.3,9.6h-8.8l2.3-4.4c0.2-0.4,0-0.8-0.3-1c-0.4-0.2-0.8,0-1,0.3l-2.7,5.1h-1.3l1.4-2.6c0.2-0.4,0.1-0.8-0.3-1
		c-0.4-0.2-0.8-0.1-1,0.3l-1.8,3.3h-2L27.4,16.6z M44.9,26.2v-7.5l4.1,7.5H44.9z"/>
	<path fill="#1F2B33" d="M24.3,11.4c0.9,0,1.7-0.2,2.4-0.6c0.4-0.3,0.8-0.6,1.1-1.1C27.9,9.5,28,9.2,27.8,9
		c-0.1-0.2-0.3-0.4-0.6-0.4l-0.1,0c-0.9,0-2.1-0.4-2.6-1.3c-0.7-1.1-0.2-2.6,0-3c0.1-0.2,0.1-0.5-0.1-0.7c-0.2-0.2-0.4-0.3-0.7-0.2
		c-0.5,0.1-1,0.3-1.4,0.6c-1.9,1.2-2.4,3.7-1.2,5.6C21.8,10.7,23,11.3,24.3,11.4z M22.8,5.3c-0.1,1,0,2,0.5,2.8
		c0.5,0.8,1.3,1.4,2.3,1.7c-1.2,0.6-2.7,0.2-3.4-0.9C21.5,7.7,21.8,6.2,22.8,5.3z"/>
	<path fill="#1F2B33" d="M43.4,5.5c0.8,0.3,1,0.8,1,0.9c0,0.2,0.2,0.3,0.3,0.3c0,0,0,0,0,0c0.2,0,0.3-0.1,0.4-0.2
		c0.2-0.5,0.8-0.8,1-0.9c0.1-0.1,0.2-0.2,0.2-0.4c0-0.2-0.1-0.3-0.2-0.3c-0.6-0.2-1-1-1-1c-0.1-0.1-0.2-0.2-0.4-0.2
		c-0.2,0-0.3,0.1-0.3,0.3c-0.2,0.8-0.9,0.9-0.9,0.9c-0.2,0-0.3,0.2-0.3,0.3C43.1,5.2,43.2,5.4,43.4,5.5z M44.8,4.7
		C44.9,4.8,45,5,45.2,5.1c-0.1,0.1-0.3,0.2-0.4,0.4c-0.1-0.1-0.2-0.3-0.4-0.4C44.5,5,44.6,4.9,44.8,4.7z"/>
	<path fill="#1F2B33" d="M30.3,3.1c0.8,0.3,1,0.8,1,0.9c0,0.2,0.2,0.3,0.3,0.3c0,0,0,0,0,0c0.2,0,0.3-0.1,0.4-0.2
		c0.2-0.5,0.8-0.8,1-0.9c0.1-0.1,0.2-0.2,0.2-0.4c0-0.2-0.1-0.3-0.2-0.3c-0.6-0.2-1-1-1-1c-0.1-0.1-0.2-0.2-0.4-0.2
		c-0.2,0-0.3,0.1-0.3,0.3c-0.2,0.8-0.9,0.9-0.9,0.9c-0.2,0-0.3,0.2-0.3,0.3C30,2.9,30.1,3,30.3,3.1z M31.7,2.3
		c0.1,0.1,0.3,0.3,0.4,0.4C32,2.8,31.8,3,31.7,3.1c-0.1-0.1-0.2-0.3-0.4-0.4C31.4,2.6,31.6,2.5,31.7,2.3z"/>
	<path fill="#1F2B33" d="M52.1,16c-0.6-0.2-1-1-1-1c-0.1-0.1-0.2-0.2-0.4-0.2c-0.2,0-0.3,0.1-0.3,0.3c-0.2,0.8-0.9,0.9-0.9,0.9
		c-0.2,0-0.3,0.2-0.3,0.3c0,0.2,0.1,0.3,0.2,0.4c0.8,0.3,1,0.8,1,0.9c0,0.2,0.2,0.3,0.3,0.3c0,0,0,0,0,0c0.2,0,0.3-0.1,0.4-0.2
		c0.2-0.5,0.8-0.8,1-0.9c0.1-0.1,0.2-0.2,0.2-0.4C52.4,16.2,52.3,16,52.1,16z M50.8,16.7c-0.1-0.1-0.2-0.3-0.4-0.4
		c0.2-0.1,0.3-0.3,0.4-0.4c0.1,0.1,0.3,0.3,0.4,0.4C51.1,16.4,51,16.6,50.8,16.7z"/>
	<path fill="#1F2B33" d="M34.9,10.6c0.8,0.3,1,0.8,1,0.9c0,0.2,0.2,0.3,0.3,0.3c0,0,0,0,0,0c0.2,0,0.3-0.1,0.4-0.2
		c0.2-0.5,0.8-0.8,1-0.9c0.1-0.1,0.2-0.2,0.2-0.4c0-0.2-0.1-0.3-0.2-0.3c-0.6-0.2-1-1-1-1c-0.1-0.1-0.2-0.2-0.4-0.2
		c-0.2,0-0.3,0.1-0.3,0.3c-0.2,0.8-0.9,0.9-0.9,0.9c-0.2,0-0.3,0.2-0.3,0.3C34.6,10.4,34.7,10.5,34.9,10.6z M36.3,9.8
		c0.1,0.1,0.2,0.3,0.4,0.4c-0.1,0.1-0.3,0.2-0.4,0.4c-0.1-0.1-0.2-0.3-0.4-0.4C36,10.1,36.1,10,36.3,9.8z"/>
	<path fill="#1F2B33" d="M12.3,5.5c0.8,0.3,1,0.8,1,0.9c0,0.2,0.2,0.3,0.3,0.3c0,0,0,0,0,0c0.2,0,0.3-0.1,0.4-0.2
		c0.2-0.5,0.8-0.8,1-0.9c0.1-0.1,0.2-0.2,0.2-0.4S15.2,4.8,15,4.8c-0.6-0.2-1-1-1-1c-0.1-0.1-0.2-0.2-0.4-0.2
		c-0.2,0-0.3,0.1-0.3,0.3c-0.2,0.8-0.9,0.9-0.9,0.9c-0.2,0-0.3,0.2-0.3,0.3C12.1,5.3,12.2,5.4,12.3,5.5z M13.7,4.7
		C13.9,4.8,14,5,14.2,5.1c-0.1,0.1-0.3,0.2-0.4,0.4c-0.1-0.1-0.2-0.3-0.4-0.4C13.5,5,13.6,4.9,13.7,4.7z"/>
	<path fill="#1F2B33" d="M5,26.2H3.2c-0.4,0-0.8,0.3-0.8,0.8s0.3,0.8,0.8,0.8H5c0.4,0,0.8-0.3,0.8-0.8S5.4,26.2,5,26.2z"/>
</g>
<path fill="#1F2B33" d="M10.8,26.9v-5.7c0.4,0.3,0.8,0.6,1.3,0.9c0.3,0.2,0.7,0.1,1-0.1c0.2-0.2,0.2-0.4,0.2-0.6
	c0-0.2-0.2-0.4-0.4-0.6c-0.4-0.3-0.8-0.5-1.1-0.8c-0.6-0.5-1-1.2-1-2.1c0.4,0.4,0.8,0.8,1.3,1.1c0.3,0.2,0.7,0.2,1-0.1
	c0.2-0.2,0.3-0.4,0.2-0.6c0-0.2-0.1-0.5-0.3-0.6c-0.6-0.4-1.2-0.9-1.7-1.5c-0.3-0.3-0.4-0.7-0.5-1.1c0.3,0.4,0.6,0.7,1,0.9
	c0.3,0.2,0.8,0.2,1-0.1c0.2-0.2,0.3-0.4,0.2-0.6c0-0.2-0.2-0.4-0.4-0.6c-0.9-0.6-1.7-2.2-2-2.8c-0.1-0.3-0.4-0.5-0.7-0.5
	c-0.3,0-0.6,0.2-0.7,0.5c-0.6,1.7-1.6,2.6-1.9,2.8c-0.2,0.1-0.3,0.3-0.3,0.5c0,0.2,0,0.4,0.1,0.6c0.2,0.3,0.7,0.5,1,0.2
	c0.1,0,0.5-0.3,1-1c-0.1,0.4-0.2,0.8-0.5,1.1c-0.5,0.6-1,1.1-1.6,1.5c-0.3,0.2-0.5,0.6-0.3,1c0.1,0.3,0.4,0.5,0.7,0.5
	c0.2,0,0.3,0,0.4-0.1c0.5-0.3,1-0.7,1.4-1.1c-0.1,0.7-0.4,1.3-0.9,1.8c-0.3,0.3-0.7,0.6-1.2,0.9c-0.2,0.1-0.3,0.3-0.4,0.5
	s0,0.4,0.1,0.6c0.2,0.2,0.4,0.3,0.6,0.3c0.2,0,0.3,0,0.4-0.1c0.5-0.3,0.9-0.6,1.3-1v5.8"/>
</svg>
