<?xml version="1.0" encoding="utf-8"?>
<!-- Generator: Adobe Illustrator 18.1.1, SVG Export Plug-In . SVG Version: 6.00 Build 0)  -->
<!DOCTYPE svg PUBLIC "-//W3C//DTD SVG 1.1//EN" "http://www.w3.org/Graphics/SVG/1.1/DTD/svg11.dtd">
<svg version="1.1" id="Layer_1" xmlns="http://www.w3.org/2000/svg" xmlns:xlink="http://www.w3.org/1999/xlink" x="0px" y="0px"
	 width="215px" height="155.3px" viewBox="0 0 215 155.3" enable-background="new 0 0 215 155.3" xml:space="preserve">
<g>
	<g>
		<path fill="#EAEAEA" d="M28.7,105c-0.1-0.2-0.2-0.3-0.4-0.3h-1.7c-0.2,0-0.4,0.1-0.4,0.3l-4.5,10.1c-0.1,0.1,0,0.3,0,0.4
			c0.1,0.1,0.2,0.2,0.4,0.2h1.8c0.2,0,0.4-0.1,0.4-0.3l0.8-2h4.5l0.8,2c0.1,0.2,0.2,0.3,0.4,0.3h1.8c0,0,0,0,0,0
			c0.3,0,0.5-0.2,0.5-0.5c0-0.1,0-0.2-0.1-0.3L28.7,105z M28.6,111.1h-2.4l1.2-2.8L28.6,111.1z"/>
		<path fill="#EAEAEA" d="M46.9,104.8h-2c-0.2,0-0.3,0.1-0.4,0.3l-2.9,5.9l-2.9-5.9c-0.1-0.2-0.2-0.3-0.4-0.3h-2
			c-0.3,0-0.5,0.2-0.5,0.5v10.1c0,0.3,0.2,0.5,0.5,0.5h1.6c0.3,0,0.5-0.2,0.5-0.5v-5.5l2.3,4.7c0.1,0.2,0.2,0.3,0.4,0.3h1.1
			c0.2,0,0.3-0.1,0.4-0.3l2.3-4.7l0,5.5c0,0.3,0.2,0.5,0.5,0.5h1.6c0.3,0,0.5-0.2,0.5-0.5v-10.1C47.4,105,47.1,104.8,46.9,104.8z"/>
		<path fill="#EAEAEA" d="M59.1,113.3h-5.2v-1.9h4.5c0.3,0,0.5-0.2,0.5-0.5v-1.5c0-0.3-0.2-0.5-0.5-0.5h-4.5v-1.8h5
			c0.3,0,0.5-0.2,0.5-0.5v-1.5c0-0.3-0.2-0.5-0.5-0.5h-7.2c-0.3,0-0.5,0.2-0.5,0.5v10.1c0,0.3,0.2,0.5,0.5,0.5h7.4
			c0.3,0,0.5-0.2,0.5-0.5v-1.5C59.6,113.5,59.4,113.3,59.1,113.3z"/>
		<path fill="#EAEAEA" d="M71.7,115.8c0.3,0,0.5-0.2,0.5-0.5c0-0.1-0.1-0.3-0.2-0.4l-1.9-2.8c1.2-0.7,1.9-1.9,1.9-3.5
			c0-2.5-1.7-3.9-4.5-3.9h-4.1c-0.3,0-0.5,0.2-0.5,0.5v10.1c0,0.3,0.2,0.5,0.5,0.5h1.7c0.3,0,0.5-0.2,0.5-0.5v-2.6h1.9
			c0.1,0,0.1,0,0.2,0l1.7,2.8c0.1,0.1,0.2,0.2,0.4,0.2H71.7C71.7,115.8,71.7,115.8,71.7,115.8z M65.5,107.2h1.9c1.8,0,2,0.9,2,1.5
			c0,0.7-0.2,1.6-2,1.6h-1.9V107.2z"/>
		<path fill="#EAEAEA" d="M76,115.8h1.7c0.3,0,0.5-0.2,0.5-0.5v-10.1c0-0.3-0.2-0.5-0.5-0.5H76c-0.3,0-0.5,0.2-0.5,0.5v10.1
			C75.5,115.6,75.7,115.8,76,115.8z"/>
		<path fill="#EAEAEA" d="M90.2,112.3c-0.1-0.1-0.2-0.2-0.3-0.2c-0.1,0-0.2,0-0.3,0.1c-0.7,0.7-1.6,1.1-2.5,1.1
			c-1.8,0-3.1-1.4-3.1-3.1c0-1.7,1.4-3.1,3.1-3.1c0.9,0,1.8,0.4,2.5,1.1c0.1,0.1,0.2,0.1,0.4,0.1c0.1,0,0.3-0.1,0.3-0.2l1-1.2
			c0.2-0.2,0.1-0.5,0-0.6c-1.1-1.1-2.6-1.7-4.2-1.7c-3.2,0-5.8,2.4-5.8,5.5c0,3.1,2.5,5.6,5.7,5.6c1.5,0,3.1-0.7,4.2-1.8
			c0.2-0.2,0.2-0.5,0-0.6L90.2,112.3z"/>
		<path fill="#EAEAEA" d="M102.2,115.8h1.8c0,0,0,0,0,0c0.3,0,0.5-0.2,0.5-0.5c0-0.1,0-0.2-0.1-0.3l-4.4-10
			c-0.1-0.2-0.2-0.3-0.4-0.3h-1.7c-0.2,0-0.4,0.1-0.4,0.3l-4.5,10.1c-0.1,0.1,0,0.3,0,0.4c0.1,0.1,0.2,0.2,0.4,0.2h1.8
			c0.2,0,0.4-0.1,0.4-0.3l0.8-2h4.5l0.8,2C101.8,115.7,102,115.8,102.2,115.8z M99.8,111.1h-2.4l1.2-2.8L99.8,111.1z"/>
		<path fill="#EAEAEA" d="M114.6,115.8h1.7c0.3,0,0.5-0.2,0.5-0.5v-10.1c0-0.3-0.2-0.5-0.5-0.5h-1.7c-0.3,0-0.5,0.2-0.5,0.5v5.9
			l-4.6-6.1c-0.1-0.1-0.2-0.2-0.4-0.2h-1.7c-0.3,0-0.5,0.2-0.5,0.5v10.1c0,0.3,0.2,0.5,0.5,0.5h1.7c0.3,0,0.5-0.2,0.5-0.5v-5.8
			l4.5,6.1C114.3,115.7,114.4,115.8,114.6,115.8z"/>
		<path fill="#EAEAEA" d="M131.7,104.8H125c-0.3,0-0.5,0.2-0.5,0.5v10.1c0,0.3,0.2,0.5,0.5,0.5h1.7c0.3,0,0.5-0.2,0.5-0.5v-3.7h4.1
			c0.3,0,0.5-0.2,0.5-0.5v-1.5c0-0.3-0.2-0.5-0.5-0.5h-4.1v-2h4.6c0.3,0,0.5-0.2,0.5-0.5l0-1.5c0-0.1,0-0.2-0.1-0.3
			C132,104.8,131.9,104.8,131.7,104.8z"/>
		<path fill="#EAEAEA" d="M134.1,110.3c0,3.1,2.6,5.6,5.8,5.6s5.8-2.5,5.8-5.6c0-3.1-2.6-5.6-5.8-5.6S134.1,107.2,134.1,110.3z
			 M140,113.4c-1.7,0-3.2-1.4-3.2-3.1c0-1.7,1.4-3.1,3.2-3.1c1.8,0,3.1,1.4,3.1,3.1C143.1,112,141.7,113.4,140,113.4z"/>
		<path fill="#EAEAEA" d="M156.1,112.1c1.2-0.7,1.9-1.9,1.9-3.5c0-2.5-1.7-3.9-4.5-3.9h-4.1c-0.3,0-0.5,0.2-0.5,0.5v10.1
			c0,0.3,0.2,0.5,0.5,0.5h1.7c0.3,0,0.5-0.2,0.5-0.5v-2.6h1.9c0.1,0,0.1,0,0.2,0l1.7,2.8c0.1,0.1,0.2,0.2,0.4,0.2h1.9c0,0,0,0,0,0
			c0.3,0,0.5-0.2,0.5-0.5c0-0.1-0.1-0.3-0.2-0.4L156.1,112.1z M151.5,107.2h1.9c1.8,0,2,0.9,2,1.5c0,0.7-0.2,1.6-2,1.6h-1.9V107.2z"
			/>
		<path fill="#EAEAEA" d="M169.3,113.3h-5.2v-1.9h4.5c0.3,0,0.5-0.2,0.5-0.5v-1.5c0-0.3-0.2-0.5-0.5-0.5h-4.5v-1.8h5
			c0.3,0,0.5-0.2,0.5-0.5v-1.5c0-0.3-0.2-0.5-0.5-0.5h-7.2c-0.3,0-0.5,0.2-0.5,0.5v10.1c0,0.3,0.2,0.5,0.5,0.5h7.4
			c0.3,0,0.5-0.2,0.5-0.5v-1.5C169.8,113.5,169.5,113.3,169.3,113.3z"/>
		<path fill="#EAEAEA" d="M177.4,109c-1.3-0.4-1.9-0.6-1.9-1.2c0-0.5,0.9-0.6,1.2-0.6c0.8,0,1.8,0.3,2.7,0.9c0.1,0.1,0.2,0.1,0.4,0
			c0.1,0,0.2-0.1,0.3-0.2l0.7-1.5c0.1-0.2,0-0.5-0.2-0.6c-1.1-0.7-2.5-1.1-3.8-1.1c-2.5,0-4.1,1.3-4.1,3.3c0,2.4,2,3,3.5,3.4
			c1.3,0.4,1.9,0.6,1.9,1.2c0,0.7-1,0.8-1.4,0.8c-1,0-2.2-0.5-3.1-1.3c-0.1-0.1-0.3-0.1-0.4-0.1c-0.1,0-0.3,0.1-0.3,0.3l-0.7,1.5
			c-0.1,0.2-0.1,0.4,0.1,0.6c1.2,1.1,2.8,1.7,4.4,1.7c2.6,0,4.3-1.4,4.3-3.4C181,110.1,178.9,109.4,177.4,109z"/>
		<path fill="#EAEAEA" d="M191.6,104.8h-8.1c-0.3,0-0.5,0.2-0.5,0.5v1.5c0,0.3,0.2,0.5,0.5,0.5h2.7v8.1c0,0.3,0.2,0.5,0.5,0.5h1.7
			c0.3,0,0.5-0.2,0.5-0.5v-8.1h2.7c0.3,0,0.5-0.2,0.5-0.5v-1.5C192,105,191.8,104.8,191.6,104.8z"/>
	</g>
	<g>
		<path fill="#EAEAEA" d="M67.9,124.2h-4.5c-0.2,0-0.4,0.2-0.4,0.4v7.1c0,0.2,0.2,0.4,0.4,0.4h0.8c0.2,0,0.4-0.2,0.4-0.4v-2.6h2.9
			c0.2,0,0.4-0.2,0.4-0.4v-0.8c0-0.2-0.2-0.4-0.4-0.4h-2.9v-1.6h3.3c0.2,0,0.4-0.2,0.4-0.4v-0.8C68.3,124.4,68.2,124.2,67.9,124.2z"
			/>
		<path fill="#EAEAEA" d="M74.4,124.1c-2.3,0-4.1,1.8-4.1,4c0,2.3,1.8,4,4.1,4c2.3,0,4.1-1.8,4.1-4
			C78.5,125.9,76.7,124.1,74.4,124.1z M74.4,130.5c-1.4,0-2.5-1.1-2.5-2.4c0-1.3,1.1-2.4,2.5-2.4c1.3,0,2.4,1.1,2.4,2.4
			C76.8,129.4,75.7,130.5,74.4,130.5z"/>
		<path fill="#EAEAEA" d="M87.6,124.2h-0.8c-0.2,0-0.4,0.2-0.4,0.4v4.2c0,1.1-0.6,1.7-1.7,1.7c-1.1,0-1.7-0.6-1.7-1.7v-4.2
			c0-0.2-0.2-0.4-0.4-0.4h-0.8c-0.2,0-0.4,0.2-0.4,0.4v4.2c0,2.1,1.3,3.4,3.4,3.4c2.1,0,3.4-1.3,3.4-3.4v-4.2
			C88,124.4,87.8,124.2,87.6,124.2z"/>
		<path fill="#EAEAEA" d="M97.6,124.2h-0.8c-0.2,0-0.4,0.2-0.4,0.4v4.4l-3.5-4.6c-0.1-0.1-0.2-0.2-0.3-0.2h-0.8
			c-0.2,0-0.4,0.2-0.4,0.4v7.1c0,0.2,0.2,0.4,0.4,0.4h0.8c0.2,0,0.4-0.2,0.4-0.4v-4.4l3.5,4.6c0.1,0.1,0.2,0.2,0.3,0.2h0.8
			c0.2,0,0.4-0.2,0.4-0.4v-7.1C98.1,124.4,97.9,124.2,97.6,124.2z"/>
		<path fill="#EAEAEA" d="M104.9,124.2H102c-0.2,0-0.4,0.2-0.4,0.4v7.1c0,0.2,0.2,0.4,0.4,0.4h2.8c2.3,0,4.1-1.7,4.1-4
			C109,125.9,107.2,124.2,104.9,124.2z M104.9,130.5h-1.6v-4.7h1.6c1.4,0,2.4,1,2.4,2.3C107.3,129.5,106.2,130.5,104.9,130.5z"/>
		<path fill="#EAEAEA" d="M115.4,124.4c-0.1-0.2-0.2-0.3-0.4-0.3h-0.8c-0.2,0-0.3,0.1-0.4,0.3l-3.2,7.1c-0.1,0.1,0,0.3,0,0.4
			c0.1,0.1,0.2,0.2,0.4,0.2h0.9c0.2,0,0.3-0.1,0.4-0.3l0.7-1.5h3.3l0.7,1.5c0.1,0.2,0.2,0.3,0.4,0.3h0.9c0,0,0,0,0,0
			c0.2,0,0.4-0.2,0.4-0.4c0-0.1,0-0.2-0.1-0.3L115.4,124.4z M113.7,128.7l0.9-2.1l0.9,2.1H113.7z"/>
		<path fill="#EAEAEA" d="M125.3,124.2h-5.4c-0.2,0-0.4,0.2-0.4,0.4v0.8c0,0.2,0.2,0.4,0.4,0.4h1.9v5.9c0,0.2,0.2,0.4,0.4,0.4h0.8
			c0.2,0,0.4-0.2,0.4-0.4v-5.9h1.9c0.2,0,0.4-0.2,0.4-0.4v-0.8C125.8,124.4,125.6,124.2,125.3,124.2z"/>
		<path fill="#EAEAEA" d="M129.5,124.2h-0.8c-0.2,0-0.4,0.2-0.4,0.4v7.1c0,0.2,0.2,0.4,0.4,0.4h0.8c0.2,0,0.4-0.2,0.4-0.4v-7.1
			C130,124.4,129.8,124.2,129.5,124.2z"/>
		<path fill="#EAEAEA" d="M137,124.1c-2.3,0-4.1,1.8-4.1,4c0,2.3,1.8,4,4.1,4c2.3,0,4.1-1.8,4.1-4
			C141.1,125.9,139.3,124.1,137,124.1z M137,130.5c-1.4,0-2.5-1.1-2.5-2.4c0-1.3,1.1-2.4,2.5-2.4c1.3,0,2.4,1.1,2.4,2.4
			C139.4,129.4,138.3,130.5,137,130.5z"/>
		<path fill="#EAEAEA" d="M150.2,124.2h-0.8c-0.2,0-0.4,0.2-0.4,0.4v4.4l-3.5-4.6c-0.1-0.1-0.2-0.2-0.3-0.2h-0.8
			c-0.2,0-0.4,0.2-0.4,0.4v7.1c0,0.2,0.2,0.4,0.4,0.4h0.8c0.2,0,0.4-0.2,0.4-0.4v-4.4l3.5,4.6c0.1,0.1,0.2,0.2,0.3,0.2h0.8
			c0.2,0,0.4-0.2,0.4-0.4v-7.1C150.7,124.4,150.5,124.2,150.2,124.2z"/>
	</g>
	<path fill="#EAEAEA" d="M106.8,19.7c-20.8,0-37.6,16.9-37.6,37.6s16.9,37.6,37.6,37.6s37.6-16.9,37.6-37.6S127.6,19.7,106.8,19.7z
		 M106.8,91.6c-11.9,0-23.1-6.3-29.3-16.5c1.3-0.2,3.4-0.3,6.1-0.3c6.8,0,14.8,1.1,23.3,3c0.1,0,6,1.7,13,2.5
		c5.1,0.6,9.3,0.5,12.6-0.2C125.9,87.4,116.6,91.6,106.8,91.6z M127,77.3V66.2c0-0.3,0.3-0.4,0.5-0.3c0.8,0.6,2.2,1.6,3.1,2.2
		c0.3,0.1,0.5,0.2,0.8,0.2c0.7,0,1.3-0.4,1.6-1.1c0.3-0.7-0.1-1.6-0.8-2.1c-0.8-0.5-1.5-1-2.2-1.5c-1.8-1.4-2.9-3.5-3.1-5.7
		c0-0.1,0.1-0.1,0.2-0.1c1,1.1,2.2,2,3.4,2.9c0.7,0.5,1.6,0.4,2.2-0.2c0.7-0.8,0.6-2-0.3-2.5c-1.4-0.9-2.6-2-3.7-3.3
		c-0.9-1.1-1.5-2.5-1.8-3.9c0-0.1,0.2-0.1,0.2-0.1l0,0c0.8,1.1,1.7,1.9,2.6,2.5c0.7,0.4,1.6,0.4,2.1-0.1c0.4-0.4,0.6-0.9,0.5-1.4
		s-0.3-1-0.8-1.2c-2.8-1.8-4.8-6.8-4.9-7c-0.2-0.6-0.9-1.1-1.6-1.1c-0.7,0-1.3,0.5-1.5,1.1c-1.7,5-4.8,7.1-4.8,7.1
		c-0.8,0.5-1,1.5-0.5,2.3c0.5,0.7,1.5,1,2.3,0.5c0.1,0,1.3-0.9,2.7-2.6l0,0c0,0,0.1-0.1,0.2,0c-0.2,1.5-0.8,2.9-1.7,4
		c-1.1,1.3-2.3,2.4-3.6,3.2c-0.8,0.5-1.1,1.4-0.8,2.1c0.3,0.6,0.9,1,1.5,1c0.3,0,0.6-0.1,0.9-0.2c1.3-0.8,2.5-1.7,3.5-2.8
		c0.1-0.1,0.2,0,0.2,0.1c-0.3,2.1-1.3,4.1-3,5.4c-0.7,0.5-1.4,1.1-2.2,1.5c-0.8,0.5-1.1,1.4-0.7,2.2c0.3,0.6,0.9,1,1.5,1
		c0.3,0,0.6-0.1,0.9-0.3c1.1-0.7,2-1.4,2.9-2.1c0.3-0.2,0.7,0,0.7,0.3l0,10.9c-5.4-0.3-11.3-1.4-15.1-2.4l0-7.3
		c0-0.3,0.4-0.5,0.6-0.3c1.1,1,2.5,1.9,4,2.7c0.2,0.1,0.5,0.2,0.8,0.2c0.7,0,1.3-0.4,1.5-1c0.3-0.8-0.1-1.7-0.9-2.1
		c-1-0.6-2-1.2-2.8-1.8c-1.7-1.3-2.8-3.4-3.1-5.6c0-0.2,0.2-0.3,0.3-0.1c1.2,1.2,2.6,2.3,4.2,3.3c0.7,0.5,1.7,0.4,2.2-0.3
		c0.3-0.4,0.5-0.9,0.3-1.4c-0.1-0.4-0.4-0.8-0.7-1c-1.5-1-2.8-2-3.9-3.2c-1.3-1.4-2.1-3.1-2.4-5.1c0-0.1,0.2-0.2,0.3-0.1
		c1.2,1.4,2.7,2.6,4.3,3.6c0.3,0.2,0.6,0.3,0.9,0.3c0.7,0,1.2-0.4,1.5-1c0.3-0.7,0-1.7-0.7-2.2c-2.7-1.8-4.4-3.8-5.3-5.3
		c-0.5-0.8-0.8-1.6-0.9-2.5c0,0,0.1-0.1,0.2,0l0,0c0.7,0.9,1.4,1.6,2.2,2.1c0.7,0.5,1.6,0.4,2.2-0.1c0.4-0.4,0.6-0.9,0.5-1.4
		c0-0.5-0.3-1-0.7-1.2c-2.8-1.9-4.1-7.2-4.4-9.1c-0.1-0.8-0.8-1.4-1.6-1.4l-0.1,0c-0.9,0-1.5,0.7-1.6,1.6c-0.2,6.2-4.4,8.8-4.5,8.9
		c-0.8,0.5-1,1.5-0.6,2.3c0.5,0.8,1.5,1,2.3,0.6c0.1-0.1,1.3-0.8,2.5-2.2l0,0c0,0,0.1-0.1,0.2,0.1c-0.1,0.9-0.4,1.7-0.9,2.4
		c-0.9,1.4-2.4,3.4-5,4.9c-0.8,0.4-1.1,1.3-0.8,2.1c0.2,0.7,0.9,1.1,1.6,1.1c0.3,0,0.6-0.1,0.8-0.2c1.5-0.9,2.9-2,4.1-3.3
		c0.1-0.1,0.3,0,0.3,0.1c-0.2,1.9-1,3.6-2.3,4.9c-1.2,1.3-2.5,2.3-4,3.2c-0.8,0.5-1.1,1.4-0.8,2.1c0.3,0.6,0.9,1,1.5,1
		c0.3,0,0.6-0.1,0.8-0.2c1.6-0.9,3.1-2.1,4.4-3.4c0.1-0.1,0.3,0,0.3,0.1c-0.3,2.2-1.3,4.1-3,5.5c-0.8,0.6-1.6,1.2-2.6,1.8
		c-0.8,0.4-1.1,1.3-0.8,2.1c0.3,0.7,0.9,1.1,1.6,1.1c0.3,0,0.6-0.1,0.8-0.2c1.3-0.7,2.5-1.6,3.5-2.5c0.2-0.2,0.6-0.1,0.6,0.3l0,6.5
		c-5.1-1.1-10-1.9-14.5-2.3l0-3.7c0-0.4,0.4-0.6,0.7-0.3c0.7,0.6,1.6,1.3,2.7,1.9c0.3,0.1,0.5,0.2,0.8,0.2c0.7,0,1.3-0.4,1.6-1.1
		c0.3-0.7-0.1-1.6-0.8-2.1c-0.9-0.5-1.7-1.1-2.4-1.7c-1.4-1.2-2.3-2.8-2.5-4.7c0-0.1,0.2-0.2,0.3-0.1c0.9,0.9,1.9,1.7,3,2.5
		c0.7,0.5,1.6,0.4,2.2-0.2c0.7-0.8,0.6-2-0.3-2.5c-1.4-0.9-2.6-2-3.6-3.2c-0.8-0.9-1.3-2.1-1.5-3.2c0-0.1,0.1-0.2,0.2,0c0,0,0,0,0,0
		c0.7,0.9,1.5,1.6,2.3,2.1c0.7,0.4,1.6,0.4,2.1-0.1c0.4-0.4,0.6-0.9,0.5-1.4c-0.1-0.5-0.3-1-0.8-1.2c-2.2-1.4-4.1-5.3-4.6-6.6
		c-0.2-0.6-0.9-1.1-1.6-1.1c0,0,0,0,0,0c-0.7,0-1.3,0.5-1.5,1.1C85.8,51,82.9,53,82.9,53c-0.8,0.5-1,1.5-0.5,2.3
		c0.5,0.7,1.5,1,2.3,0.5c0,0,0.8-0.5,1.8-1.6l0,0c0,0,0,0,0,0c0.1-0.1,0.2-0.2,0.3-0.3c0.1-0.1,0.2-0.2,0.3-0.3c0,0,0.1,0,0.1,0.1
		c0,0,0,0.1,0,0.1c-0.2,1.1-0.7,2.2-1.4,3.1c-1,1.3-2.2,2.3-3.6,3.2c-0.8,0.5-1.1,1.4-0.8,2.1c0.3,0.6,0.9,1,1.5,1
		c0.3,0,0.6-0.1,0.9-0.2c1.1-0.7,2.1-1.5,3.1-2.4c0.1-0.1,0.3,0,0.3,0.1c-0.3,1.7-1.1,3.3-2.5,4.4c-0.7,0.6-1.5,1.2-2.4,1.7
		c-0.8,0.5-1.1,1.4-0.7,2.2c0.3,0.6,0.9,1,1.5,1c0.3,0,0.6-0.1,0.9-0.3c0.9-0.6,1.8-1.2,2.6-1.8c0.3-0.2,0.7,0,0.7,0.3l0,3.4
		c-1.3-0.1-2.6-0.1-3.8-0.1c-3.9,0-6.5,0.3-7.8,0.6c-2.2-4.6-3.3-9.6-3.3-14.7c0-18.9,15.4-34.3,34.3-34.3c1.3,0,2.6,0.1,3.9,0.2
		c15.8,1.8,28.5,14.5,30.2,30.2c0.8,7.5-0.8,14.9-4.6,21.3C134.7,76.4,131.5,77.3,127,77.3z"/>
</g>
</svg>
