<?xml version="1.0" encoding="utf-8"?>
<!-- Generator: Adobe Illustrator 18.1.1, SVG Export Plug-In . SVG Version: 6.00 Build 0)  -->
<!DOCTYPE svg PUBLIC "-//W3C//DTD SVG 1.1//EN" "http://www.w3.org/Graphics/SVG/1.1/DTD/svg11.dtd">
<svg version="1.1" id="Layer_1" xmlns="http://www.w3.org/2000/svg" xmlns:xlink="http://www.w3.org/1999/xlink" x="0px" y="0px"
	 width="100px" height="100px" viewBox="0 0 100 100" enable-background="new 0 0 100 100" xml:space="preserve">
<g>
	<path fill="#EAEAE9" d="M59.3,39.8H37.2c-1.1,0-1.9-0.8-1.9-1.9c0-1.1,0.8-1.9,1.9-1.9h22.1c1.1,0,1.9,0.8,1.9,1.9
		C61.2,39,60.3,39.8,59.3,39.8z"/>
</g>
<g>
	<path fill="#EAEAE9" d="M59.3,47.7H37.2c-1.1,0-1.9-0.8-1.9-1.9c0-1.1,0.8-1.9,1.9-1.9h22.1c1.1,0,1.9,0.8,1.9,1.9
		C61.2,46.9,60.3,47.7,59.3,47.7z"/>
</g>
<g>
	<path fill="#EAEAE9" d="M59.3,55.7H37.2c-1.1,0-1.9-0.8-1.9-1.9c0-1.1,0.8-1.9,1.9-1.9h22.1c1.1,0,1.9,0.8,1.9,1.9
		C61.2,54.9,60.3,55.7,59.3,55.7z"/>
</g>
</svg>
