<?xml version="1.0" encoding="utf-8"?>
<!-- Generator: Adobe Illustrator 18.0.0, SVG Export Plug-In . SVG Version: 6.00 Build 0)  -->
<!DOCTYPE svg PUBLIC "-//W3C//DTD SVG 1.1//EN" "http://www.w3.org/Graphics/SVG/1.1/DTD/svg11.dtd">
<svg version="1.1" id="Layer_1" xmlns="http://www.w3.org/2000/svg" xmlns:xlink="http://www.w3.org/1999/xlink" x="0px" y="0px"
	 viewBox="0 0 111.5 80.2" enable-background="new 0 0 111.5 80.2" xml:space="preserve">
<path fill="#1E2A33" d="M57.4,0.7C36,0.7,18.5,18.2,18.5,39.6S36,78.5,57.4,78.5S96.3,61,96.3,39.6S78.8,0.7,57.4,0.7z M93.1,39.6
	c0,19.6-16,35.6-35.6,35.6c-6.8,0-13.1-1.9-18.5-5.2l-0.6-0.4C28.1,63.1,22,51.9,22,39.7C22,20,38,4,57.6,4c0.6,0,1.1,0,1.6,0
	C78.1,5,93.1,20.6,93.1,39.6z"/>
<g>
	
		<path fill="#1D2933" stroke="#1D2933" stroke-width="1.5" stroke-linecap="round" stroke-linejoin="round" stroke-miterlimit="10" d="
		M66.3,27.7c0,0.3-0.3,0.6-0.6,0.6H49.1c-0.3,0-0.6-0.2-0.6-0.6c0-0.3,0.3-0.6,0.6-0.6h16.7C66,27.1,66.3,27.3,66.3,27.7z"/>
	
		<path fill="#1D2933" stroke="#1D2933" stroke-width="1.5" stroke-linecap="round" stroke-linejoin="round" stroke-miterlimit="10" d="
		M66.3,33.1c0,0.3-0.3,0.6-0.6,0.6H49.1c-0.3,0-0.6-0.2-0.6-0.6s0.3-0.6,0.6-0.6h16.7C66,32.5,66.3,32.8,66.3,33.1z"/>
	
		<path fill="#1D2933" stroke="#1D2933" stroke-width="1.5" stroke-linecap="round" stroke-linejoin="round" stroke-miterlimit="10" d="
		M66.3,38.7c0,0.3-0.3,0.6-0.6,0.6H49.1c-0.3,0-0.6-0.3-0.6-0.6c0-0.3,0.3-0.6,0.6-0.6h16.7C66,38.2,66.3,38.4,66.3,38.7z"/>
	
		<path fill="#1D2933" stroke="#1D2933" stroke-width="1.5" stroke-linecap="round" stroke-linejoin="round" stroke-miterlimit="10" d="
		M71.9,36.3V21.8c0-1.4-1.1-2.5-2.5-2.5H45.8c-1.4,0-2.5,1.1-2.5,2.5v14.4c-1.4,0-2.5,1.1-2.5,2.5v18.6c0,1.4,1.1,2.5,2.5,2.5h28.3
		c1.4,0,2.5-1.1,2.5-2.5V38.8C74.1,37.5,73.1,36.5,71.9,36.3z M71.9,37.5c0.1,0,0.3,0.1,0.4,0.2l-0.4,0.2V37.5z M44.4,21.8
		c0-0.7,0.6-1.3,1.3-1.3h23.6c0.7,0,1.3,0.6,1.3,1.3v16.8L57.1,47l-12.7-8.3V21.8z M43.2,37.5C43.2,37.5,43.2,37.5,43.2,37.5
		l0.1,0.4l-0.1-0.1l-0.4-0.3C42.9,37.5,43,37.5,43.2,37.5z M72.9,57.4c0,0.7-0.6,1.3-1.3,1.3H43.2c-0.3,0-0.6-0.1-0.8-0.2
		c-0.1-0.1-0.2-0.2-0.3-0.3c-0.2-0.2-0.2-0.5-0.2-0.8V38.8c0-0.1,0-0.2,0-0.3l0.2,0.1l1,0.7l0.1,0.1l0.6,0.4l0.6,0.4L55,47l1.8,1.2
		l0.3,0.2l0.3-0.2l1.9-1.2l11.4-7l0.6-0.4l0.6-0.4l0.6-0.3l0.4-0.3c0,0,0,0.1,0,0.1L72.9,57.4L72.9,57.4z"/>
</g>
</svg>
