<?xml version="1.0" encoding="utf-8"?>
<!-- Generator: Adobe Illustrator 18.0.0, SVG Export Plug-In . SVG Version: 6.00 Build 0)  -->
<!DOCTYPE svg PUBLIC "-//W3C//DTD SVG 1.1//EN" "http://www.w3.org/Graphics/SVG/1.1/DTD/svg11.dtd">
<svg version="1.1" id="Layer_1" xmlns="http://www.w3.org/2000/svg" xmlns:xlink="http://www.w3.org/1999/xlink" x="0px" y="0px"
	 viewBox="42.3 34.7 85 103" enable-background="new 42.3 34.7 85 103" xml:space="preserve">
<g>
	<path d="M107.1,56.2c0,0.8-0.7,1.4-1.4,1.4H63.9c-0.8,0-1.4-0.6-1.4-1.4c0-0.8,0.7-1.4,1.4-1.4h41.8
		C106.4,54.8,107.1,55.4,107.1,56.2z"/>
	<path d="M107.1,69.8c0,0.8-0.7,1.4-1.4,1.4H63.9c-0.8,0-1.4-0.6-1.4-1.4s0.7-1.4,1.4-1.4h41.8C106.4,68.4,107.1,69.1,107.1,69.8z"
		/>
	<path d="M107.1,84c0,0.8-0.7,1.4-1.4,1.4H63.9c-0.8,0-1.4-0.7-1.4-1.4c0-0.8,0.7-1.4,1.4-1.4h41.8C106.4,82.6,107.1,83.2,107.1,84z
		"/>
	<path d="M121.1,77.9V41.6c0-3.5-2.8-6.3-6.3-6.3H55.6c-3.5,0-6.3,2.8-6.3,6.3v36.2c-3.6,0.1-6.3,2.8-6.3,6.3v46.7
		c0,3.5,2.8,6.3,6.3,6.3h71c3.5,0,6.3-2.8,6.3-6.3V84.1C126.6,80.9,124.2,78.3,121.1,77.9z M121.1,80.9c0.3,0.1,0.7,0.2,1,0.4
		l-1,0.6V80.9z M52.3,41.6c0-1.8,1.5-3.3,3.3-3.3h59.2c1.8,0,3.3,1.5,3.3,3.3v42.2l-34,20.9L52.3,83.9V41.6z M49.1,80.9
		c0.1,0,0.2,0,0.2,0V82l-0.2-0.2L48,81.1C48.3,81,48.7,80.9,49.1,80.9z M123.6,130.8c0,1.8-1.5,3.3-3.3,3.3h-71
		c-0.7,0-1.4-0.2-1.9-0.6c-0.3-0.2-0.6-0.5-0.8-0.8c-0.4-0.5-0.6-1.2-0.6-1.9V84.1c0-0.3,0-0.6,0.1-0.8l0.5,0.3l2.5,1.7l0.2,0.2
		l1.5,1l1.5,1l26.6,17.3l4.4,2.9l0.8,0.5l0.8-0.5l4.7-2.9l28.6-17.6l1.5-0.9l1.5-0.9l1.4-0.8l1.1-0.7c0,0.1,0,0.2,0,0.3L123.6,130.8
		L123.6,130.8z"/>
</g>
</svg>
