<?xml version="1.0" encoding="utf-8"?>
<!-- Generator: Adobe Illustrator 18.1.1, SVG Export Plug-In . SVG Version: 6.00 Build 0)  -->
<!DOCTYPE svg PUBLIC "-//W3C//DTD SVG 1.1//EN" "http://www.w3.org/Graphics/SVG/1.1/DTD/svg11.dtd">
<svg version="1.1" id="Layer_1" xmlns="http://www.w3.org/2000/svg" xmlns:xlink="http://www.w3.org/1999/xlink" x="0px" y="0px"
	 width="684px" height="792px" viewBox="280 0 684 792" enable-background="new 280 0 684 792" xml:space="preserve">
<g>
</g>
<g>
	<path fill="#1F2B33" d="M881.7,771.7c-24.6,0-49.5-10.7-68.2-29.4c-0.6-0.6-1.1-1.2-1.7-1.9l-96.8-121
		c-17.7-18.3-24.8-43.6-20.1-69.7l-21.5-23.8l-0.1,0.1c-36.9,17.9-76.6,27-118.2,27c-72.2,0-139.9-27.9-190.5-78.5
		s-78.5-118.3-78.5-190.5c0-72.2,27.9-139.9,78.5-190.5s118.3-78.5,190.5-78.5c72.2,0,139.9,27.9,190.5,78.5s78.5,118.3,78.5,190.5
		c0,65.8-23.5,128.7-66.4,177.6l19.3,21.3c0.5,0,1.1,0,1.6,0c23.2,0,48.3,14.1,62.8,35.1l96.3,120.3c14.9,15.5,22.6,37.3,20.9,60
		c-1.7,23.5-13,45.3-30.4,58.3C915.1,766.5,899,771.7,881.7,771.7z M846.2,711.3c10.1,9.7,23.3,15.4,35.6,15.4
		c7.4,0,14.2-2.1,19.5-6.1c7-5.2,11.8-15,12.5-25.5c0.4-6-0.2-17.3-8.8-25.9c-0.6-0.6-1.1-1.2-1.7-1.9l-97.5-121.9
		c-0.4-0.5-0.8-1-1.2-1.6c-6-8.9-17.4-15.9-25.9-15.9c-1.2,0-2.2,0.1-3.1,0.4c-8.5,2.8-17.8,0.4-23.8-6.2l-39.9-44.1
		c-7.1-7.9-7.8-19.6-1.6-28.3l9-12.5c0.5-0.7,1-1.4,1.6-2c37.5-41.2,58.2-94.9,58.2-151.3c0-60.2-23.2-116.6-65.3-158.7
		s-98.5-65.3-158.7-65.3s-116.6,23.2-158.7,65.3s-65.3,98.5-65.3,158.7c0,60.2,23.2,116.6,65.3,158.7s98.5,65.3,158.7,65.3
		c35,0,68.5-7.7,99.5-22.9c0.8-0.4,1.5-0.7,2.3-1l15.5-5.6c8.6-3.1,18.2-0.7,24.3,6.1l39.6,43.9c5.4,6,7.2,14.5,4.6,22.2
		c-2.3,7-6.4,24.8,6.8,37.9c0.6,0.6,1.1,1.2,1.7,1.9L846.2,711.3z M555.2,463.7c-45.4,0-91.2-19.8-125.6-54.2
		c-34.4-34.4-54.2-80.2-54.2-125.6c0-46.2,18.5-91.8,50.8-125.3c33.9-35.1,79.7-54.5,129-54.5c49.3,0,95.1,19.3,129,54.5
		c32.3,33.5,50.8,79.1,50.8,125.3c0,45.4-19.8,91.2-54.2,125.6C646.3,444,600.6,463.7,555.2,463.7z M555.2,149.2
		c-37,0-71.3,14.5-96.6,40.7c-24.3,25.2-38.2,59.5-38.2,94.1c0,70.5,64.2,134.8,134.8,134.8c70.5,0,134.8-64.2,134.8-134.8
		c0-34.6-13.9-68.9-38.2-94.1C626.4,163.6,592.1,149.2,555.2,149.2z"/>
</g>
</svg>
